<ttFont>
<head>
    <!-- Most of this table will be recalculated by the compiler -->
    <tableVersion value="1.0"/>
    <fontRevision value="1.106"/>
    <checkSumAdjustment value="0x50fbc963"/>
    <magicNumber value="0x5f0f3cf5"/>
    <flags value="00000000 00000001"/>
    <unitsPerEm value="1000"/>
    <created value="Mon Sep 16 15:15:04 2019"/>
    <modified value="Mon Sep 16 15:22:47 2019"/>
    <xMin value="-230"/>
    <yMin value="-349"/>
    <xMax value="1971"/>
    <yMax value="1314"/>
    <macStyle value="00000000 00000010"/>
    <lowestRecPPEM value="6"/>
    <fontDirectionHint value="2"/>
    <indexToLocFormat value="0"/>
    <glyphDataFormat value="0"/>
  </head>
    <TTGlyph name=".notdef" xMin="117" yMin="-200" xMax="617" yMax="800">
      <contour>
        <pt x="117" y="-200" on="1"/>
        <pt x="117" y="800" on="1"/>
        <pt x="617" y="800" on="1"/>
        <pt x="617" y="-200" on="1"/>
      </contour>
      <contour>
        <pt x="188" y="750" on="1"/>
        <pt x="367" y="360" on="1"/>
        <pt x="546" y="750" on="1"/>
      </contour>
      <contour>
        <pt x="167" y="-76" on="1"/>
        <pt x="339" y="300" on="1"/>
        <pt x="167" y="676" on="1"/>
      </contour>
      <contour>
        <pt x="567" y="676" on="1"/>
        <pt x="395" y="300" on="1"/>
        <pt x="567" y="-76" on="1"/>
      </contour>
      <contour>
        <pt x="367" y="240" on="1"/>
        <pt x="188" y="-150" on="1"/>
        <pt x="546" y="-150" on="1"/>
      </contour>
    </TTGlyph>
    <TTGlyph name="A" xMin="22" yMin="0" xMax="688" yMax="700">
      <contour>
        <pt x="22" y="0" on="1"/>
        <pt x="448" y="700" on="1"/>
        <pt x="563" y="700" on="1"/>
        <pt x="688" y="0" on="1"/>
        <pt x="640" y="0" on="1"/>
        <pt x="601" y="215" on="1"/>
        <pt x="205" y="215" on="1"/>
        <pt x="75" y="0" on="1"/>
      </contour>
      <contour>
        <pt x="473" y="656" on="1"/>
        <pt x="232" y="258" on="1"/>
        <pt x="594" y="258" on="1"/>
        <pt x="523" y="656" on="1"/>
      </contour>
    </TTGlyph>
    <TTGlyph name="A.sc" xMin="21" yMin="0" xMax="594" yMax="567">
      <component glyphName="a.sc" x="0" y="0" flags="0x204"/>
    </TTGlyph>
    <TTGlyph name="AE" xMin="-19" yMin="0" xMax="1222" yMax="700">
      <contour>
        <pt x="757" y="658" on="1"/>
        <pt x="699" y="383" on="1"/>
        <pt x="1081" y="383" on="1"/>
        <pt x="1072" y="341" on="1"/>
        <pt x="690" y="341" on="1"/>
        <pt x="626" y="42" on="1"/>
        <pt x="1112" y="42" on="1"/>
        <pt x="1095" y="0" on="1"/>
        <pt x="570" y="0" on="1"/>
        <pt x="616" y="215" on="1"/>
        <pt x="227" y="215" on="1"/>
        <pt x="40" y="0" on="1"/>
        <pt x="-19" y="0" on="1"/>
        <pt x="588" y="700" on="1"/>
        <pt x="1218" y="700" on="1"/>
        <pt x="1222" y="658" on="1"/>
      </contour>
      <contour>
        <pt x="611" y="656" on="1"/>
        <pt x="265" y="258" on="1"/>
        <pt x="625" y="258" on="1"/>
        <pt x="710" y="656" on="1"/>
      </contour>
    </TTGlyph>
    <TTGlyph name="AE.sc" xMin="-8" yMin="0" xMax="1032" yMax="567">
      <component glyphName="ae.sc" x="0" y="0" flags="0x204"/>
    </TTGlyph>
    <TTGlyph name="AEacute" xMin="-19" yMin="0" xMax="1222" yMax="983">
      <component glyphName="AE" x="0" y="0" flags="0x204"/>
      <component glyphName="acute" x="507" y="176" flags="0x4"/>
    </TTGlyph>
    <TTGlyph name="AEacute.sc" xMin="-8" yMin="0" xMax="1032" yMax="850">
      <component glyphName="aeacute.sc" x="0" y="0" flags="0x204"/>
    </TTGlyph>
    <TTGlyph name="Aacute" xMin="22" yMin="0" xMax="743" yMax="983">
      <component glyphName="A" x="0" y="0" flags="0x204"/>
      <component glyphName="acute" x="262" y="176" flags="0x4"/>
    </TTGlyph>
    <TTGlyph name="Aacute.sc" xMin="21" yMin="0" xMax="662" yMax="850">
      <component glyphName="aacute.sc" x="0" y="0" flags="0x204"/>
    </TTGlyph>
    <TTGlyph name="Abreve" xMin="22" yMin="0" xMax="721" yMax="987">
      <component glyphName="A" x="0" y="0" flags="0x204"/>
      <component glyphName="breve" x="199" y="176" flags="0x4"/>
    </TTGlyph>
    <TTGlyph name="Abreve.sc" xMin="21" yMin="0" xMax="650" yMax="854">
      <component glyphName="abreve.sc" x="0" y="0" flags="0x204"/>
    </TTGlyph>
    <TTGlyph name="Acircumflex" xMin="22" yMin="0" xMax="713" yMax="986">
      <component glyphName="A" x="0" y="0" flags="0x204"/>
      <component glyphName="circumflex" x="199" y="176" flags="0x4"/>
    </TTGlyph>
    <TTGlyph name="Acircumflex.sc" xMin="21" yMin="0" xMax="642" yMax="853">
      <component glyphName="acircumflex.sc" x="0" y="0" flags="0x204"/>
    </TTGlyph>
    <TTGlyph name="Adieresis" xMin="22" yMin="0" xMax="698" yMax="891">
      <component glyphName="A" x="0" y="0" flags="0x204"/>
      <component glyphName="dieresis" x="199" y="176" flags="0x4"/>
    </TTGlyph>
    <TTGlyph name="Adieresis.sc" xMin="21" yMin="0" xMax="627" yMax="758">
      <component glyphName="adieresis.sc" x="0" y="0" flags="0x204"/>
    </TTGlyph>
    <TTGlyph name="Agrave" xMin="22" yMin="0" xMax="688" yMax="983">
      <component glyphName="A" x="0" y="0" flags="0x204"/>
      <component glyphName="grave" x="135" y="176" flags="0x4"/>
    </TTGlyph>
    <TTGlyph name="Agrave.sc" xMin="21" yMin="0" xMax="594" yMax="850">
      <component glyphName="agrave.sc" x="0" y="0" flags="0x204"/>
    </TTGlyph>
    <TTGlyph name="Amacron" xMin="22" yMin="0" xMax="714" yMax="874">
      <component glyphName="A" x="0" y="0" flags="0x204"/>
      <component glyphName="macron" x="199" y="176" flags="0x4"/>
    </TTGlyph>
    <TTGlyph name="Amacron.sc" xMin="21" yMin="0" xMax="643" yMax="741">
      <component glyphName="amacron.sc" x="0" y="0" flags="0x204"/>
    </TTGlyph>
    <TTGlyph name="Aogonek" xMin="22" yMin="-289" xMax="696" yMax="700">
      <contour>
        <pt x="22" y="0" on="1"/>
        <pt x="448" y="700" on="1"/>
        <pt x="563" y="700" on="1"/>
        <pt x="688" y="0" on="1"/>
        <pt x="617" y="-60" on="1"/>
        <pt x="563" y="-106" on="0"/>
        <pt x="518" y="-168" on="0"/>
        <pt x="518" y="-197" on="1"/>
        <pt x="518" y="-223" on="0"/>
        <pt x="556" y="-252" on="0"/>
        <pt x="590" y="-252" on="1"/>
        <pt x="617" y="-252" on="0"/>
        <pt x="671" y="-234" on="0"/>
        <pt x="696" y="-218" on="1"/>
        <pt x="687" y="-260" on="1"/>
        <pt x="663" y="-274" on="0"/>
        <pt x="610" y="-289" on="0"/>
        <pt x="582" y="-289" on="1"/>
        <pt x="531" y="-289" on="0"/>
        <pt x="474" y="-244" on="0"/>
        <pt x="474" y="-205" on="1"/>
        <pt x="474" y="-165" on="0"/>
        <pt x="530" y="-88" on="0"/>
        <pt x="593" y="-36" on="1"/>
        <pt x="639" y="2" on="1"/>
        <pt x="601" y="215" on="1"/>
        <pt x="205" y="215" on="1"/>
        <pt x="75" y="0" on="1"/>
      </contour>
      <contour>
        <pt x="473" y="656" on="1"/>
        <pt x="232" y="258" on="1"/>
        <pt x="594" y="258" on="1"/>
        <pt x="523" y="656" on="1"/>
      </contour>
    </TTGlyph>
    <TTGlyph name="Aogonek.sc" xMin="21" yMin="-289" xMax="602" yMax="567">
      <component glyphName="aogonek.sc" x="0" y="0" flags="0x204"/>
    </TTGlyph>
    <TTGlyph name="Aring" xMin="22" yMin="0" xMax="700" yMax="1060">
      <component glyphName="A" x="0" y="0" flags="0x204"/>
      <component glyphName="ring" x="143" y="176" flags="0x4"/>
    </TTGlyph>
    <TTGlyph name="Aring.sc" xMin="21" yMin="0" xMax="629" yMax="927">
      <component glyphName="aring.sc" x="0" y="0" flags="0x204"/>
    </TTGlyph>
    <TTGlyph name="Aringacute" xMin="22" yMin="0" xMax="803" yMax="1314">
      <component glyphName="A" x="0" y="0" flags="0x204"/>
      <component glyphName="ring" x="143" y="176" flags="0x4"/>
      <component glyphName="acute" x="322" y="507" flags="0x4"/>
    </TTGlyph>
    <TTGlyph name="Aringacute.sc" xMin="21" yMin="0" xMax="732" yMax="1181">
      <component glyphName="aringacute.sc" x="0" y="0" flags="0x204"/>
    </TTGlyph>
    <TTGlyph name="Atilde" xMin="22" yMin="0" xMax="728" yMax="929">
      <component glyphName="A" x="0" y="0" flags="0x204"/>
      <component glyphName="tilde" x="199" y="176" flags="0x4"/>
    </TTGlyph>
    <TTGlyph name="Atilde.sc" xMin="21" yMin="0" xMax="657" yMax="796">
      <component glyphName="atilde.sc" x="0" y="0" flags="0x204"/>
    </TTGlyph>
    <TTGlyph name="B" xMin="77" yMin="0" xMax="734" yMax="700">
      <contour>
        <pt x="77" y="0" on="1"/>
        <pt x="226" y="700" on="1"/>
        <pt x="547" y="700" on="1"/>
        <pt x="636" y="700" on="0"/>
        <pt x="734" y="617" on="0"/>
        <pt x="734" y="548" on="1"/>
        <pt x="734" y="476" on="0"/>
        <pt x="644" y="376" on="0"/>
        <pt x="559" y="359" on="1"/>
        <pt x="619" y="346" on="0"/>
        <pt x="691" y="268" on="0"/>
        <pt x="691" y="209" on="1"/>
        <pt x="691" y="110" on="0"/>
        <pt x="535" y="0" on="0"/>
        <pt x="401" y="0" on="1"/>
      </contour>
      <contour>
        <pt x="205" y="379" on="1"/>
        <pt x="484" y="379" on="1"/>
        <pt x="577" y="379" on="0"/>
        <pt x="687" y="469" on="0"/>
        <pt x="687" y="541" on="1"/>
        <pt x="687" y="598" on="0"/>
        <pt x="609" y="658" on="0"/>
        <pt x="541" y="658" on="1"/>
        <pt x="265" y="658" on="1"/>
      </contour>
      <contour>
        <pt x="196" y="340" on="1"/>
        <pt x="133" y="42" on="1"/>
        <pt x="406" y="42" on="1"/>
        <pt x="519" y="42" on="0"/>
        <pt x="644" y="130" on="0"/>
        <pt x="644" y="210" on="1"/>
        <pt x="644" y="267" on="0"/>
        <pt x="559" y="340" on="0"/>
        <pt x="476" y="340" on="1"/>
      </contour>
    </TTGlyph>
    <TTGlyph name="B.sc" xMin="77" yMin="0" xMax="645" yMax="567">
      <component glyphName="b.sc" x="0" y="0" flags="0x204"/>
    </TTGlyph>
    <TTGlyph name="C" xMin="94" yMin="-13" xMax="735" yMax="712">
      <contour>
        <pt x="482" y="712" on="1"/>
        <pt x="557" y="712" on="0"/>
        <pt x="686" y="665" on="0"/>
        <pt x="735" y="616" on="1"/>
        <pt x="724" y="569" on="1"/>
        <pt x="723" y="569" on="1"/>
        <pt x="674" y="622" on="0"/>
        <pt x="550" y="670" on="0"/>
        <pt x="481" y="670" on="1"/>
        <pt x="406" y="670" on="0"/>
        <pt x="281" y="611" on="0"/>
        <pt x="192" y="511" on="0"/>
        <pt x="142" y="374" on="0"/>
        <pt x="142" y="298" on="1"/>
        <pt x="142" y="167" on="0"/>
        <pt x="291" y="30" on="0"/>
        <pt x="413" y="30" on="1"/>
        <pt x="471" y="30" on="0"/>
        <pt x="586" y="65" on="0"/>
        <pt x="635" y="96" on="1"/>
        <pt x="636" y="96" on="1"/>
        <pt x="625" y="44" on="1"/>
        <pt x="577" y="17" on="0"/>
        <pt x="467" y="-13" on="0"/>
        <pt x="408" y="-13" on="1"/>
        <pt x="337" y="-13" on="0"/>
        <pt x="221" y="27" on="0"/>
        <pt x="139" y="105" on="0"/>
        <pt x="94" y="221" on="0"/>
        <pt x="94" y="295" on="1"/>
        <pt x="94" y="380" on="0"/>
        <pt x="150" y="532" on="0"/>
        <pt x="251" y="645" on="0"/>
        <pt x="395" y="712" on="0"/>
      </contour>
    </TTGlyph>
    <TTGlyph name="C.sc" xMin="84" yMin="-11" xMax="639" yMax="578">
      <component glyphName="c.sc" x="0" y="0" flags="0x204"/>
    </TTGlyph>
    <TTGlyph name="Cacute" xMin="94" yMin="-13" xMax="773" yMax="995">
      <component glyphName="C" x="0" y="0" flags="0x204"/>
      <component glyphName="acute" x="292" y="188" flags="0x4"/>
    </TTGlyph>
    <TTGlyph name="Cacute.sc" xMin="84" yMin="-11" xMax="677" yMax="861">
      <component glyphName="cacute.sc" x="0" y="0" flags="0x204"/>
    </TTGlyph>
    <TTGlyph name="Ccaron" xMin="94" yMin="-13" xMax="788" yMax="998">
      <component glyphName="C" x="0" y="0" flags="0x204"/>
      <component glyphName="caron" x="240" y="188" flags="0x4"/>
    </TTGlyph>
    <TTGlyph name="Ccaron.sc" xMin="84" yMin="-11" xMax="692" yMax="864">
      <component glyphName="ccaron.sc" x="0" y="0" flags="0x204"/>
    </TTGlyph>
    <TTGlyph name="Ccedilla" xMin="94" yMin="-193" xMax="735" yMax="712">
      <contour>
        <pt x="482" y="712" on="1"/>
        <pt x="557" y="712" on="0"/>
        <pt x="686" y="665" on="0"/>
        <pt x="735" y="616" on="1"/>
        <pt x="724" y="569" on="1"/>
        <pt x="723" y="569" on="1"/>
        <pt x="674" y="622" on="0"/>
        <pt x="550" y="670" on="0"/>
        <pt x="481" y="670" on="1"/>
        <pt x="406" y="670" on="0"/>
        <pt x="281" y="611" on="0"/>
        <pt x="192" y="511" on="0"/>
        <pt x="142" y="374" on="0"/>
        <pt x="142" y="298" on="1"/>
        <pt x="142" y="167" on="0"/>
        <pt x="291" y="30" on="0"/>
        <pt x="413" y="30" on="1"/>
        <pt x="471" y="30" on="0"/>
        <pt x="586" y="65" on="0"/>
        <pt x="635" y="96" on="1"/>
        <pt x="636" y="96" on="1"/>
        <pt x="625" y="44" on="1"/>
        <pt x="577" y="17" on="0"/>
        <pt x="467" y="-13" on="0"/>
        <pt x="409" y="-13" on="1"/>
        <pt x="244" y="-193" on="1"/>
        <pt x="181" y="-193" on="1"/>
        <pt x="181" y="-191" on="1"/>
        <pt x="368" y="-11" on="1"/>
        <pt x="243" y="-1" on="0"/>
        <pt x="94" y="158" on="0"/>
        <pt x="94" y="295" on="1"/>
        <pt x="94" y="380" on="0"/>
        <pt x="150" y="532" on="0"/>
        <pt x="251" y="645" on="0"/>
        <pt x="395" y="712" on="0"/>
      </contour>
    </TTGlyph>
    <TTGlyph name="Ccedilla.sc" xMin="84" yMin="-193" xMax="639" yMax="578">
      <component glyphName="ccedilla.sc" x="0" y="0" flags="0x204"/>
    </TTGlyph>
    <TTGlyph name="Cdotaccent" xMin="94" yMin="-13" xMax="735" yMax="904">
      <component glyphName="C" x="0" y="0" flags="0x204"/>
      <component glyphName="dotaccent" x="239" y="188" flags="0x4"/>
    </TTGlyph>
    <TTGlyph name="Cdotaccent.sc" xMin="84" yMin="-11" xMax="639" yMax="770">
      <component glyphName="cdotaccent.sc" x="0" y="0" flags="0x204"/>
    </TTGlyph>
    <TTGlyph name="D" xMin="77" yMin="0" xMax="771" yMax="700">
      <contour>
        <pt x="77" y="0" on="1"/>
        <pt x="226" y="700" on="1"/>
        <pt x="445" y="700" on="1"/>
        <pt x="538" y="700" on="0"/>
        <pt x="664" y="654" on="0"/>
        <pt x="739" y="578" on="0"/>
        <pt x="771" y="476" on="0"/>
        <pt x="771" y="421" on="1"/>
        <pt x="771" y="336" on="0"/>
        <pt x="714" y="182" on="0"/>
        <pt x="604" y="68" on="0"/>
        <pt x="437" y="0" on="0"/>
        <pt x="328" y="0" on="1"/>
      </contour>
      <contour>
        <pt x="723" y="419" on="1"/>
        <pt x="723" y="464" on="0"/>
        <pt x="698" y="550" on="0"/>
        <pt x="635" y="616" on="0"/>
        <pt x="524" y="657" on="0"/>
        <pt x="439" y="657" on="1"/>
        <pt x="265" y="657" on="1"/>
        <pt x="133" y="43" on="1"/>
        <pt x="332" y="43" on="1"/>
        <pt x="432" y="43" on="0"/>
        <pt x="580" y="106" on="0"/>
        <pt x="676" y="210" on="0"/>
        <pt x="723" y="347" on="0"/>
      </contour>
    </TTGlyph>
    <TTGlyph name="D.sc" xMin="77" yMin="0" xMax="664" yMax="567">
      <component glyphName="d.sc" x="0" y="0" flags="0x204"/>
    </TTGlyph>
    <TTGlyph name="Dcaron" xMin="77" yMin="0" xMax="771" yMax="986">
      <component glyphName="D" x="0" y="0" flags="0x204"/>
      <component glyphName="caron" x="175" y="176" flags="0x4"/>
    </TTGlyph>
    <TTGlyph name="Dcaron.sc" xMin="77" yMin="0" xMax="664" yMax="853">
      <component glyphName="dcaron.sc" x="0" y="0" flags="0x204"/>
    </TTGlyph>
    <TTGlyph name="Dcroat" xMin="60" yMin="0" xMax="808" yMax="700">
      <component glyphName="Eth" x="0" y="0" flags="0x204"/>
    </TTGlyph>
    <TTGlyph name="Dcroat.sc" xMin="62" yMin="0" xMax="702" yMax="567">
      <component glyphName="dcroat.sc" x="0" y="0" flags="0x204"/>
    </TTGlyph>
    <TTGlyph name="E" xMin="77" yMin="0" xMax="729" yMax="700">
      <contour>
        <pt x="265" y="658" on="1"/>
        <pt x="206" y="383" on="1"/>
        <pt x="589" y="383" on="1"/>
        <pt x="579" y="341" on="1"/>
        <pt x="197" y="341" on="1"/>
        <pt x="133" y="42" on="1"/>
        <pt x="620" y="42" on="1"/>
        <pt x="603" y="0" on="1"/>
        <pt x="77" y="0" on="1"/>
        <pt x="226" y="700" on="1"/>
        <pt x="726" y="700" on="1"/>
        <pt x="729" y="658" on="1"/>
      </contour>
    </TTGlyph>
    <TTGlyph name="E.sc" xMin="77" yMin="0" xMax="629" yMax="567">
      <component glyphName="e.sc" x="0" y="0" flags="0x204"/>
    </TTGlyph>
    <TTGlyph name="Eacute" xMin="77" yMin="0" xMax="729" yMax="983">
      <component glyphName="E" x="0" y="0" flags="0x204"/>
      <component glyphName="acute" x="244" y="176" flags="0x4"/>
    </TTGlyph>
    <TTGlyph name="Eacute.sc" xMin="77" yMin="0" xMax="629" yMax="850">
      <component glyphName="eacute.sc" x="0" y="0" flags="0x204"/>
    </TTGlyph>
    <TTGlyph name="Ebreve" xMin="77" yMin="0" xMax="729" yMax="987">
      <component glyphName="E" x="0" y="0" flags="0x204"/>
      <component glyphName="breve" x="191" y="176" flags="0x4"/>
    </TTGlyph>
    <TTGlyph name="Ebreve.sc" xMin="77" yMin="0" xMax="629" yMax="854">
      <component glyphName="ebreve.sc" x="0" y="0" flags="0x204"/>
    </TTGlyph>
    <TTGlyph name="Ecaron" xMin="77" yMin="0" xMax="740" yMax="986">
      <component glyphName="E" x="0" y="0" flags="0x204"/>
      <component glyphName="caron" x="192" y="176" flags="0x4"/>
    </TTGlyph>
    <TTGlyph name="Ecaron.sc" xMin="77" yMin="0" xMax="638" yMax="853">
      <component glyphName="ecaron.sc" x="0" y="0" flags="0x204"/>
    </TTGlyph>
    <TTGlyph name="Ecircumflex" xMin="77" yMin="0" xMax="729" yMax="986">
      <component glyphName="E" x="0" y="0" flags="0x204"/>
      <component glyphName="circumflex" x="191" y="176" flags="0x4"/>
    </TTGlyph>
    <TTGlyph name="Ecircumflex.sc" xMin="77" yMin="0" xMax="629" yMax="853">
      <component glyphName="ecircumflex.sc" x="0" y="0" flags="0x204"/>
    </TTGlyph>
    <TTGlyph name="Edieresis" xMin="77" yMin="0" xMax="729" yMax="891">
      <component glyphName="E" x="0" y="0" flags="0x204"/>
      <component glyphName="dieresis" x="191" y="176" flags="0x4"/>
    </TTGlyph>
    <TTGlyph name="Edieresis.sc" xMin="77" yMin="0" xMax="629" yMax="758">
      <component glyphName="edieresis.sc" x="0" y="0" flags="0x204"/>
    </TTGlyph>
    <TTGlyph name="Edotaccent" xMin="77" yMin="0" xMax="729" yMax="892">
      <component glyphName="E" x="0" y="0" flags="0x204"/>
      <component glyphName="dotaccent" x="191" y="176" flags="0x4"/>
    </TTGlyph>
    <TTGlyph name="Edotaccent.sc" xMin="77" yMin="0" xMax="629" yMax="759">
      <component glyphName="edotaccent.sc" x="0" y="0" flags="0x204"/>
    </TTGlyph>
    <TTGlyph name="Egrave" xMin="77" yMin="0" xMax="729" yMax="983">
      <component glyphName="E" x="0" y="0" flags="0x204"/>
      <component glyphName="grave" x="138" y="176" flags="0x4"/>
    </TTGlyph>
    <TTGlyph name="Egrave.sc" xMin="77" yMin="0" xMax="629" yMax="850">
      <component glyphName="egrave.sc" x="0" y="0" flags="0x204"/>
    </TTGlyph>
    <TTGlyph name="Emacron" xMin="77" yMin="0" xMax="729" yMax="874">
      <component glyphName="E" x="0" y="0" flags="0x204"/>
      <component glyphName="macron" x="191" y="176" flags="0x4"/>
    </TTGlyph>
    <TTGlyph name="Emacron.sc" xMin="77" yMin="0" xMax="629" yMax="741">
      <component glyphName="emacron.sc" x="0" y="0" flags="0x204"/>
    </TTGlyph>
    <TTGlyph name="Eogonek" xMin="77" yMin="-289" xMax="729" yMax="700">
      <contour>
        <pt x="265" y="658" on="1"/>
        <pt x="206" y="383" on="1"/>
        <pt x="589" y="383" on="1"/>
        <pt x="579" y="341" on="1"/>
        <pt x="197" y="341" on="1"/>
        <pt x="133" y="42" on="1"/>
        <pt x="620" y="42" on="1"/>
        <pt x="603" y="0" on="1"/>
        <pt x="532" y="-60" on="1"/>
        <pt x="478" y="-106" on="0"/>
        <pt x="433" y="-168" on="0"/>
        <pt x="433" y="-197" on="1"/>
        <pt x="433" y="-223" on="0"/>
        <pt x="471" y="-252" on="0"/>
        <pt x="505" y="-252" on="1"/>
        <pt x="532" y="-252" on="0"/>
        <pt x="586" y="-234" on="0"/>
        <pt x="611" y="-218" on="1"/>
        <pt x="602" y="-260" on="1"/>
        <pt x="578" y="-274" on="0"/>
        <pt x="525" y="-289" on="0"/>
        <pt x="497" y="-289" on="1"/>
        <pt x="446" y="-289" on="0"/>
        <pt x="389" y="-244" on="0"/>
        <pt x="389" y="-205" on="1"/>
        <pt x="389" y="-165" on="0"/>
        <pt x="445" y="-88" on="0"/>
        <pt x="508" y="-36" on="1"/>
        <pt x="551" y="0" on="1"/>
        <pt x="77" y="0" on="1"/>
        <pt x="226" y="700" on="1"/>
        <pt x="726" y="700" on="1"/>
        <pt x="729" y="658" on="1"/>
      </contour>
    </TTGlyph>
    <TTGlyph name="Eogonek.sc" xMin="77" yMin="-289" xMax="629" yMax="567">
      <component glyphName="eogonek.sc" x="0" y="0" flags="0x204"/>
    </TTGlyph>
    <TTGlyph name="Eth" xMin="60" yMin="0" xMax="808" yMax="700">
      <contour>
        <pt x="114" y="0" on="1"/>
        <pt x="185" y="332" on="1"/>
        <pt x="60" y="332" on="1"/>
        <pt x="76" y="369" on="1"/>
        <pt x="193" y="369" on="1"/>
        <pt x="263" y="700" on="1"/>
        <pt x="483" y="700" on="1"/>
        <pt x="576" y="700" on="0"/>
        <pt x="701" y="654" on="0"/>
        <pt x="776" y="578" on="0"/>
        <pt x="808" y="476" on="0"/>
        <pt x="808" y="421" on="1"/>
        <pt x="808" y="336" on="0"/>
        <pt x="751" y="182" on="0"/>
        <pt x="641" y="68" on="0"/>
        <pt x="474" y="0" on="0"/>
        <pt x="365" y="0" on="1"/>
      </contour>
      <contour>
        <pt x="761" y="419" on="1"/>
        <pt x="761" y="464" on="0"/>
        <pt x="736" y="550" on="0"/>
        <pt x="673" y="616" on="0"/>
        <pt x="561" y="657" on="0"/>
        <pt x="476" y="657" on="1"/>
        <pt x="302" y="657" on="1"/>
        <pt x="241" y="369" on="1"/>
        <pt x="478" y="369" on="1"/>
        <pt x="470" y="332" on="1"/>
        <pt x="233" y="332" on="1"/>
        <pt x="171" y="43" on="1"/>
        <pt x="369" y="43" on="1"/>
        <pt x="469" y="43" on="0"/>
        <pt x="617" y="106" on="0"/>
        <pt x="714" y="210" on="0"/>
        <pt x="761" y="347" on="0"/>
      </contour>
    </TTGlyph>
    <TTGlyph name="Eth.sc" xMin="62" yMin="0" xMax="702" yMax="567">
      <component glyphName="eth.sc" x="0" y="0" flags="0x204"/>
    </TTGlyph>
    <TTGlyph name="Euro" xMin="47" yMin="-13" xMax="758" yMax="707">
      <contour>
        <pt x="47" y="239" on="1"/>
        <pt x="58" y="274" on="1"/>
        <pt x="180" y="274" on="1"/>
        <pt x="180" y="277" on="0"/>
        <pt x="180" y="284" on="0"/>
        <pt x="180" y="288" on="1"/>
        <pt x="180" y="319" on="0"/>
        <pt x="188" y="381" on="0"/>
        <pt x="195" y="410" on="1"/>
        <pt x="102" y="410" on="1"/>
        <pt x="113" y="444" on="1"/>
        <pt x="205" y="444" on="1"/>
        <pt x="224" y="500" on="0"/>
        <pt x="288" y="596" on="0"/>
        <pt x="378" y="667" on="0"/>
        <pt x="493" y="707" on="0"/>
        <pt x="561" y="707" on="1"/>
        <pt x="624" y="707" on="0"/>
        <pt x="723" y="675" on="0"/>
        <pt x="758" y="647" on="1"/>
        <pt x="748" y="606" on="1"/>
        <pt x="747" y="606" on="1"/>
        <pt x="710" y="634" on="0"/>
        <pt x="615" y="667" on="0"/>
        <pt x="561" y="667" on="1"/>
        <pt x="502" y="667" on="0"/>
        <pt x="404" y="633" on="0"/>
        <pt x="326" y="574" on="0"/>
        <pt x="269" y="492" on="0"/>
        <pt x="251" y="444" on="1"/>
        <pt x="598" y="444" on="1"/>
        <pt x="591" y="410" on="1"/>
        <pt x="241" y="410" on="1"/>
        <pt x="233" y="381" on="0"/>
        <pt x="225" y="320" on="0"/>
        <pt x="225" y="289" on="1"/>
        <pt x="225" y="285" on="0"/>
        <pt x="225" y="278" on="0"/>
        <pt x="225" y="274" on="1"/>
        <pt x="563" y="274" on="1"/>
        <pt x="556" y="240" on="1"/>
        <pt x="228" y="240" on="1"/>
        <pt x="241" y="139" on="0"/>
        <pt x="376" y="28" on="0"/>
        <pt x="490" y="28" on="1"/>
        <pt x="533" y="28" on="0"/>
        <pt x="625" y="49" on="0"/>
        <pt x="662" y="68" on="1"/>
        <pt x="663" y="68" on="1"/>
        <pt x="654" y="22" on="1"/>
        <pt x="617" y="5" on="0"/>
        <pt x="527" y="-13" on="0"/>
        <pt x="485" y="-13" on="1"/>
        <pt x="353" y="-13" on="0"/>
        <pt x="196" y="122" on="0"/>
        <pt x="183" y="239" on="1"/>
      </contour>
    </TTGlyph>
    <TTGlyph name="Euro.tab" xMin="32" yMin="-13" xMax="711" yMax="707">
      <contour>
        <pt x="32" y="239" on="1"/>
        <pt x="43" y="274" on="1"/>
        <pt x="157" y="274" on="1"/>
        <pt x="157" y="278" on="0"/>
        <pt x="157" y="285" on="0"/>
        <pt x="157" y="289" on="1"/>
        <pt x="157" y="320" on="0"/>
        <pt x="164" y="381" on="0"/>
        <pt x="171" y="410" on="1"/>
        <pt x="87" y="410" on="1"/>
        <pt x="98" y="444" on="1"/>
        <pt x="180" y="444" on="1"/>
        <pt x="198" y="499" on="0"/>
        <pt x="259" y="596" on="0"/>
        <pt x="343" y="666" on="0"/>
        <pt x="451" y="707" on="0"/>
        <pt x="516" y="707" on="1"/>
        <pt x="577" y="707" on="0"/>
        <pt x="676" y="675" on="0"/>
        <pt x="711" y="647" on="1"/>
        <pt x="701" y="606" on="1"/>
        <pt x="700" y="606" on="1"/>
        <pt x="664" y="634" on="0"/>
        <pt x="570" y="667" on="0"/>
        <pt x="516" y="667" on="1"/>
        <pt x="461" y="667" on="0"/>
        <pt x="369" y="633" on="0"/>
        <pt x="296" y="574" on="0"/>
        <pt x="243" y="492" on="0"/>
        <pt x="227" y="444" on="1"/>
        <pt x="553" y="444" on="1"/>
        <pt x="546" y="410" on="1"/>
        <pt x="217" y="410" on="1"/>
        <pt x="210" y="381" on="0"/>
        <pt x="202" y="320" on="0"/>
        <pt x="202" y="289" on="1"/>
        <pt x="202" y="285" on="0"/>
        <pt x="202" y="278" on="0"/>
        <pt x="202" y="274" on="1"/>
        <pt x="518" y="274" on="1"/>
        <pt x="511" y="240" on="1"/>
        <pt x="205" y="240" on="1"/>
        <pt x="217" y="139" on="0"/>
        <pt x="340" y="28" on="0"/>
        <pt x="444" y="28" on="1"/>
        <pt x="487" y="28" on="0"/>
        <pt x="579" y="49" on="0"/>
        <pt x="615" y="67" on="1"/>
        <pt x="616" y="67" on="1"/>
        <pt x="607" y="22" on="1"/>
        <pt x="570" y="4" on="0"/>
        <pt x="481" y="-13" on="0"/>
        <pt x="440" y="-13" on="1"/>
        <pt x="318" y="-13" on="0"/>
        <pt x="173" y="122" on="0"/>
        <pt x="160" y="239" on="1"/>
      </contour>
    </TTGlyph>
    <TTGlyph name="F" xMin="77" yMin="0" xMax="726" yMax="700">
      <contour>
        <pt x="265" y="658" on="1"/>
        <pt x="205" y="377" on="1"/>
        <pt x="588" y="377" on="1"/>
        <pt x="579" y="335" on="1"/>
        <pt x="196" y="335" on="1"/>
        <pt x="124" y="0" on="1"/>
        <pt x="77" y="0" on="1"/>
        <pt x="226" y="700" on="1"/>
        <pt x="726" y="700" on="1"/>
        <pt x="726" y="658" on="1"/>
      </contour>
    </TTGlyph>
    <TTGlyph name="F.sc" xMin="77" yMin="0" xMax="617" yMax="567">
      <component glyphName="f.sc" x="0" y="0" flags="0x204"/>
    </TTGlyph>
    <TTGlyph name="G" xMin="95" yMin="-19" xMax="767" yMax="712">
      <contour>
        <pt x="489" y="670" on="1"/>
        <pt x="409" y="670" on="0"/>
        <pt x="280" y="607" on="0"/>
        <pt x="190" y="503" on="0"/>
        <pt x="142" y="367" on="0"/>
        <pt x="142" y="293" on="1"/>
        <pt x="142" y="235" on="0"/>
        <pt x="175" y="136" on="0"/>
        <pt x="241" y="64" on="0"/>
        <pt x="342" y="23" on="0"/>
        <pt x="409" y="23" on="1"/>
        <pt x="474" y="23" on="0"/>
        <pt x="579" y="66" on="0"/>
        <pt x="655" y="143" on="0"/>
        <pt x="705" y="252" on="0"/>
        <pt x="714" y="318" on="1"/>
        <pt x="396" y="318" on="1"/>
        <pt x="404" y="359" on="1"/>
        <pt x="767" y="359" on="1"/>
        <pt x="756" y="264" on="0"/>
        <pt x="695" y="119" on="0"/>
        <pt x="647" y="72" on="1"/>
        <pt x="602" y="26" on="0"/>
        <pt x="482" y="-19" on="0"/>
        <pt x="407" y="-19" on="1"/>
        <pt x="331" y="-19" on="0"/>
        <pt x="214" y="27" on="0"/>
        <pt x="135" y="108" on="0"/>
        <pt x="95" y="222" on="0"/>
        <pt x="95" y="289" on="1"/>
        <pt x="95" y="371" on="0"/>
        <pt x="150" y="525" on="0"/>
        <pt x="251" y="642" on="0"/>
        <pt x="399" y="712" on="0"/>
        <pt x="490" y="712" on="1"/>
        <pt x="574" y="712" on="0"/>
        <pt x="710" y="655" on="0"/>
        <pt x="759" y="602" on="1"/>
        <pt x="748" y="555" on="1"/>
        <pt x="747" y="555" on="1"/>
        <pt x="698" y="609" on="0"/>
        <pt x="571" y="670" on="0"/>
      </contour>
    </TTGlyph>
    <TTGlyph name="G.sc" xMin="85" yMin="-16" xMax="671" yMax="578">
      <component glyphName="g.sc" x="0" y="0" flags="0x204"/>
    </TTGlyph>
    <TTGlyph name="Gbreve" xMin="95" yMin="-19" xMax="767" yMax="999">
      <component glyphName="G" x="0" y="0" flags="0x204"/>
      <component glyphName="breve" x="191" y="188" flags="0x4"/>
    </TTGlyph>
    <TTGlyph name="Gbreve.sc" xMin="85" yMin="-16" xMax="671" yMax="865">
      <component glyphName="gbreve.sc" x="0" y="0" flags="0x204"/>
    </TTGlyph>
    <TTGlyph name="Gdotaccent" xMin="95" yMin="-19" xMax="767" yMax="904">
      <component glyphName="G" x="0" y="0" flags="0x204"/>
      <component glyphName="dotaccent" x="191" y="188" flags="0x4"/>
    </TTGlyph>
    <TTGlyph name="Gdotaccent.sc" xMin="85" yMin="-16" xMax="671" yMax="770">
      <component glyphName="gdotaccent.sc" x="0" y="0" flags="0x204"/>
    </TTGlyph>
    <TTGlyph name="H" xMin="77" yMin="0" xMax="794" yMax="700">
      <contour>
        <pt x="598" y="0" on="1"/>
        <pt x="671" y="341" on="1"/>
        <pt x="197" y="341" on="1"/>
        <pt x="124" y="0" on="1"/>
        <pt x="77" y="0" on="1"/>
        <pt x="226" y="700" on="1"/>
        <pt x="273" y="700" on="1"/>
        <pt x="206" y="383" on="1"/>
        <pt x="680" y="383" on="1"/>
        <pt x="747" y="700" on="1"/>
        <pt x="794" y="700" on="1"/>
        <pt x="645" y="0" on="1"/>
      </contour>
    </TTGlyph>
    <TTGlyph name="H.sc" xMin="77" yMin="0" xMax="698" yMax="567">
      <component glyphName="h.sc" x="0" y="0" flags="0x204"/>
    </TTGlyph>
    <TTGlyph name="Hbar" xMin="98" yMin="0" xMax="921" yMax="700">
      <contour>
        <pt x="98" y="524" on="1"/>
        <pt x="114" y="561" on="1"/>
        <pt x="234" y="561" on="1"/>
        <pt x="264" y="700" on="1"/>
        <pt x="311" y="700" on="1"/>
        <pt x="281" y="560" on="1"/>
        <pt x="755" y="560" on="1"/>
        <pt x="785" y="700" on="1"/>
        <pt x="832" y="700" on="1"/>
        <pt x="802" y="561" on="1"/>
        <pt x="917" y="561" on="1"/>
        <pt x="921" y="524" on="1"/>
        <pt x="795" y="524" on="1"/>
        <pt x="683" y="0" on="1"/>
        <pt x="636" y="0" on="1"/>
        <pt x="702" y="310" on="1"/>
        <pt x="228" y="310" on="1"/>
        <pt x="162" y="0" on="1"/>
        <pt x="115" y="0" on="1"/>
        <pt x="227" y="524" on="1"/>
      </contour>
      <contour>
        <pt x="237" y="353" on="1"/>
        <pt x="711" y="353" on="1"/>
        <pt x="748" y="525" on="1"/>
        <pt x="274" y="525" on="1"/>
      </contour>
    </TTGlyph>
    <TTGlyph name="Hbar.sc" xMin="92" yMin="0" xMax="815" yMax="567">
      <component glyphName="hbar.sc" x="0" y="0" flags="0x204"/>
    </TTGlyph>
    <TTGlyph name="I" xMin="86" yMin="0" xMax="282" yMax="700">
      <contour>
        <pt x="133" y="0" on="1"/>
        <pt x="86" y="0" on="1"/>
        <pt x="235" y="700" on="1"/>
        <pt x="282" y="700" on="1"/>
      </contour>
    </TTGlyph>
    <TTGlyph name="I.sc" xMin="78" yMin="0" xMax="245" yMax="567">
      <component glyphName="i.sc" x="0" y="0" flags="0x204"/>
    </TTGlyph>
    <TTGlyph name="Iacute" xMin="86" yMin="0" xMax="499" yMax="983">
      <component glyphName="I" x="0" y="0" flags="0x204"/>
      <component glyphName="acute" x="18" y="176" flags="0x4"/>
    </TTGlyph>
    <TTGlyph name="Iacute.sc" xMin="78" yMin="0" xMax="462" yMax="850">
      <component glyphName="iacute.sc" x="0" y="0" flags="0x204"/>
    </TTGlyph>
    <TTGlyph name="Ibreve" xMin="86" yMin="0" xMax="474" yMax="987">
      <component glyphName="I" x="0" y="0" flags="0x204"/>
      <component glyphName="breve" x="-48" y="176" flags="0x4"/>
    </TTGlyph>
    <TTGlyph name="Ibreve.sc" xMin="78" yMin="0" xMax="438" yMax="854">
      <component glyphName="ibreve.sc" x="0" y="0" flags="0x204"/>
    </TTGlyph>
    <TTGlyph name="Icircumflex" xMin="86" yMin="0" xMax="466" yMax="986">
      <component glyphName="I" x="0" y="0" flags="0x204"/>
      <component glyphName="circumflex" x="-48" y="176" flags="0x4"/>
    </TTGlyph>
    <TTGlyph name="Icircumflex.sc" xMin="67" yMin="0" xMax="430" yMax="853">
      <component glyphName="icircumflex.sc" x="0" y="0" flags="0x204"/>
    </TTGlyph>
    <TTGlyph name="Idieresis" xMin="86" yMin="0" xMax="451" yMax="891">
      <component glyphName="I" x="0" y="0" flags="0x204"/>
      <component glyphName="dieresis" x="-48" y="176" flags="0x4"/>
    </TTGlyph>
    <TTGlyph name="Idieresis.sc" xMin="78" yMin="0" xMax="414" yMax="758">
      <component glyphName="idieresis.sc" x="0" y="0" flags="0x204"/>
    </TTGlyph>
    <TTGlyph name="Idotaccent" xMin="86" yMin="0" xMax="330" yMax="892">
      <component glyphName="I" x="0" y="0" flags="0x204"/>
      <component glyphName="dotaccent" x="-48" y="176" flags="0x4"/>
    </TTGlyph>
    <TTGlyph name="Idotaccent.sc" xMin="78" yMin="0" xMax="294" yMax="759">
      <component glyphName="idotaccent.sc" x="0" y="0" flags="0x204"/>
    </TTGlyph>
    <TTGlyph name="Igrave" xMin="86" yMin="0" xMax="305" yMax="983">
      <component glyphName="I" x="0" y="0" flags="0x204"/>
      <component glyphName="grave" x="-115" y="176" flags="0x4"/>
    </TTGlyph>
    <TTGlyph name="Igrave.sc" xMin="78" yMin="0" xMax="268" yMax="850">
      <component glyphName="igrave.sc" x="0" y="0" flags="0x204"/>
    </TTGlyph>
    <TTGlyph name="Imacron" xMin="86" yMin="0" xMax="467" yMax="874">
      <component glyphName="I" x="0" y="0" flags="0x204"/>
      <component glyphName="macron" x="-48" y="176" flags="0x4"/>
    </TTGlyph>
    <TTGlyph name="Imacron.sc" xMin="78" yMin="0" xMax="430" yMax="741">
      <component glyphName="imacron.sc" x="0" y="0" flags="0x204"/>
    </TTGlyph>
    <TTGlyph name="Iogonek" xMin="-80" yMin="-289" xMax="282" yMax="700">
      <contour>
        <pt x="133" y="0" on="1"/>
        <pt x="62" y="-60" on="1"/>
        <pt x="-2" y="-114" on="0"/>
        <pt x="-36" y="-174" on="0"/>
        <pt x="-36" y="-198" on="1"/>
        <pt x="-36" y="-223" on="0"/>
        <pt x="3" y="-252" on="0"/>
        <pt x="41" y="-252" on="1"/>
        <pt x="68" y="-252" on="0"/>
        <pt x="119" y="-235" on="0"/>
        <pt x="141" y="-219" on="1"/>
        <pt x="133" y="-259" on="1"/>
        <pt x="111" y="-274" on="0"/>
        <pt x="60" y="-289" on="0"/>
        <pt x="32" y="-289" on="1"/>
        <pt x="-20" y="-289" on="0"/>
        <pt x="-80" y="-244" on="0"/>
        <pt x="-80" y="-205" on="1"/>
        <pt x="-80" y="-169" on="0"/>
        <pt x="-30" y="-94" on="0"/>
        <pt x="38" y="-37" on="1"/>
        <pt x="87" y="3" on="1"/>
        <pt x="235" y="700" on="1"/>
        <pt x="282" y="700" on="1"/>
      </contour>
    </TTGlyph>
    <TTGlyph name="Iogonek.sc" xMin="-89" yMin="-289" xMax="245" yMax="567">
      <component glyphName="iogonek.sc" x="0" y="0" flags="0x204"/>
    </TTGlyph>
    <TTGlyph name="J" xMin="43" yMin="-13" xMax="647" yMax="700">
      <contour>
        <pt x="285" y="-13" on="1"/>
        <pt x="219" y="-13" on="0"/>
        <pt x="94" y="31" on="0"/>
        <pt x="43" y="72" on="1"/>
        <pt x="54" y="119" on="1"/>
        <pt x="55" y="119" on="1"/>
        <pt x="107" y="75" on="0"/>
        <pt x="226" y="30" on="0"/>
        <pt x="285" y="30" on="1"/>
        <pt x="372" y="30" on="0"/>
        <pt x="480" y="132" on="0"/>
        <pt x="504" y="246" on="1"/>
        <pt x="591" y="658" on="1"/>
        <pt x="285" y="658" on="1"/>
        <pt x="302" y="700" on="1"/>
        <pt x="647" y="700" on="1"/>
        <pt x="548" y="233" on="1"/>
        <pt x="521" y="103" on="0"/>
        <pt x="389" y="-13" on="0"/>
      </contour>
    </TTGlyph>
    <TTGlyph name="J.sc" xMin="40" yMin="-12" xMax="568" yMax="567">
      <component glyphName="j.sc" x="0" y="0" flags="0x204"/>
    </TTGlyph>
    <TTGlyph name="K" xMin="77" yMin="0" xMax="788" yMax="700">
      <contour>
        <pt x="77" y="0" on="1"/>
        <pt x="226" y="700" on="1"/>
        <pt x="273" y="700" on="1"/>
        <pt x="205" y="380" on="1"/>
        <pt x="385" y="380" on="1"/>
        <pt x="726" y="700" on="1"/>
        <pt x="788" y="700" on="1"/>
        <pt x="419" y="356" on="1"/>
        <pt x="664" y="0" on="1"/>
        <pt x="609" y="0" on="1"/>
        <pt x="378" y="336" on="1"/>
        <pt x="196" y="336" on="1"/>
        <pt x="124" y="0" on="1"/>
      </contour>
    </TTGlyph>
    <TTGlyph name="K.sc" xMin="77" yMin="0" xMax="683" yMax="567">
      <component glyphName="k.sc" x="0" y="0" flags="0x204"/>
    </TTGlyph>
    <TTGlyph name="L" xMin="77" yMin="0" xMax="579" yMax="700">
      <contour>
        <pt x="77" y="0" on="1"/>
        <pt x="226" y="700" on="1"/>
        <pt x="273" y="700" on="1"/>
        <pt x="133" y="43" on="1"/>
        <pt x="579" y="43" on="1"/>
        <pt x="561" y="0" on="1"/>
      </contour>
    </TTGlyph>
    <TTGlyph name="L.sc" xMin="77" yMin="0" xMax="501" yMax="567">
      <component glyphName="l.sc" x="0" y="0" flags="0x204"/>
    </TTGlyph>
    <TTGlyph name="Lacute" xMin="77" yMin="0" xMax="579" yMax="983">
      <component glyphName="L" x="0" y="0" flags="0x204"/>
      <component glyphName="acute" x="9" y="176" flags="0x4"/>
    </TTGlyph>
    <TTGlyph name="Lacute.sc" xMin="77" yMin="0" xMax="501" yMax="850">
      <component glyphName="lacute.sc" x="0" y="0" flags="0x204"/>
    </TTGlyph>
    <TTGlyph name="Lcaron" xMin="77" yMin="0" xMax="579" yMax="711">
      <component glyphName="L" x="0" y="0" flags="0x204"/>
      <component glyphName="caron.alt" x="107" y="-78" flags="0x4"/>
    </TTGlyph>
    <TTGlyph name="Lcaron.sc" xMin="77" yMin="0" xMax="501" yMax="567">
      <component glyphName="lcaron.sc" x="0" y="0" flags="0x204"/>
    </TTGlyph>
    <TTGlyph name="Ldot" xMin="77" yMin="0" xMax="579" yMax="700">
      <contour>
        <pt x="77" y="0" on="1"/>
        <pt x="226" y="700" on="1"/>
        <pt x="273" y="700" on="1"/>
        <pt x="133" y="43" on="1"/>
        <pt x="579" y="43" on="1"/>
        <pt x="561" y="0" on="1"/>
      </contour>
      <contour>
        <pt x="483" y="413" on="1"/>
        <pt x="483" y="427" on="0"/>
        <pt x="504" y="449" on="0"/>
        <pt x="523" y="449" on="1"/>
        <pt x="540" y="449" on="0"/>
        <pt x="560" y="429" on="0"/>
        <pt x="560" y="416" on="1"/>
        <pt x="560" y="401" on="0"/>
        <pt x="539" y="379" on="0"/>
        <pt x="520" y="379" on="1"/>
        <pt x="502" y="379" on="0"/>
        <pt x="483" y="399" on="0"/>
      </contour>
    </TTGlyph>
    <TTGlyph name="Ldot.sc" xMin="77" yMin="0" xMax="524" yMax="567">
      <component glyphName="ldot.sc" x="0" y="0" flags="0x204"/>
    </TTGlyph>
    <TTGlyph name="Lslash" xMin="17" yMin="0" xMax="616" yMax="700">
      <contour>
        <pt x="114" y="0" on="1"/>
        <pt x="175" y="285" on="1"/>
        <pt x="17" y="204" on="1"/>
        <pt x="28" y="252" on="1"/>
        <pt x="185" y="333" on="1"/>
        <pt x="263" y="700" on="1"/>
        <pt x="310" y="700" on="1"/>
        <pt x="237" y="359" on="1"/>
        <pt x="523" y="506" on="1"/>
        <pt x="511" y="458" on="1"/>
        <pt x="227" y="313" on="1"/>
        <pt x="170" y="43" on="1"/>
        <pt x="616" y="43" on="1"/>
        <pt x="598" y="0" on="1"/>
      </contour>
    </TTGlyph>
    <TTGlyph name="Lslash.sc" xMin="35" yMin="0" xMax="540" yMax="567">
      <component glyphName="lslash.sc" x="0" y="0" flags="0x204"/>
    </TTGlyph>
    <TTGlyph name="M" xMin="78" yMin="0" xMax="945" yMax="700">
      <contour>
        <pt x="78" y="0" on="1"/>
        <pt x="226" y="700" on="1"/>
        <pt x="301" y="700" on="1"/>
        <pt x="469" y="161" on="1"/>
        <pt x="863" y="700" on="1"/>
        <pt x="945" y="700" on="1"/>
        <pt x="797" y="0" on="1"/>
        <pt x="750" y="0" on="1"/>
        <pt x="886" y="641" on="1"/>
        <pt x="871" y="641" on="1"/>
        <pt x="457" y="74" on="1"/>
        <pt x="451" y="74" on="1"/>
        <pt x="274" y="640" on="1"/>
        <pt x="259" y="640" on="1"/>
        <pt x="124" y="0" on="1"/>
      </contour>
    </TTGlyph>
    <TTGlyph name="M.sc" xMin="77" yMin="0" xMax="813" yMax="567">
      <component glyphName="m.sc" x="0" y="0" flags="0x204"/>
    </TTGlyph>
    <TTGlyph name="N" xMin="78" yMin="0" xMax="796" yMax="700">
      <contour>
        <pt x="78" y="0" on="1"/>
        <pt x="226" y="700" on="1"/>
        <pt x="299" y="700" on="1"/>
        <pt x="599" y="59" on="1"/>
        <pt x="614" y="59" on="1"/>
        <pt x="750" y="700" on="1"/>
        <pt x="796" y="700" on="1"/>
        <pt x="648" y="0" on="1"/>
        <pt x="577" y="0" on="1"/>
        <pt x="276" y="644" on="1"/>
        <pt x="261" y="644" on="1"/>
        <pt x="125" y="0" on="1"/>
      </contour>
    </TTGlyph>
    <TTGlyph name="N.sc" xMin="77" yMin="0" xMax="706" yMax="567">
      <component glyphName="n.sc" x="0" y="0" flags="0x204"/>
    </TTGlyph>
    <TTGlyph name="Nacute" xMin="78" yMin="0" xMax="796" yMax="958">
      <component glyphName="N" x="0" y="0" flags="0x204"/>
      <component glyphName="acute" x="272" y="151" flags="0x4"/>
    </TTGlyph>
    <TTGlyph name="Nacute.sc" xMin="77" yMin="0" xMax="706" yMax="827">
      <component glyphName="nacute.sc" x="0" y="0" flags="0x204"/>
    </TTGlyph>
    <TTGlyph name="Ncaron" xMin="78" yMin="0" xMax="796" yMax="961">
      <component glyphName="N" x="0" y="0" flags="0x204"/>
      <component glyphName="caron" x="220" y="151" flags="0x4"/>
    </TTGlyph>
    <TTGlyph name="Ncaron.sc" xMin="77" yMin="0" xMax="706" yMax="830">
      <component glyphName="ncaron.sc" x="0" y="0" flags="0x204"/>
    </TTGlyph>
    <TTGlyph name="Ntilde" xMin="78" yMin="0" xMax="796" yMax="929">
      <component glyphName="N" x="0" y="0" flags="0x204"/>
      <component glyphName="tilde" x="224" y="176" flags="0x4"/>
    </TTGlyph>
    <TTGlyph name="Ntilde.sc" xMin="77" yMin="0" xMax="706" yMax="796">
      <component glyphName="ntilde.sc" x="0" y="0" flags="0x204"/>
    </TTGlyph>
    <TTGlyph name="O" xMin="94" yMin="-19" xMax="795" yMax="719">
      <contour>
        <pt x="399" y="-19" on="1"/>
        <pt x="330" y="-19" on="0"/>
        <pt x="217" y="24" on="0"/>
        <pt x="137" y="104" on="0"/>
        <pt x="94" y="218" on="0"/>
        <pt x="94" y="289" on="1"/>
        <pt x="94" y="368" on="0"/>
        <pt x="146" y="524" on="0"/>
        <pt x="245" y="644" on="0"/>
        <pt x="393" y="719" on="0"/>
        <pt x="489" y="719" on="1"/>
        <pt x="558" y="719" on="0"/>
        <pt x="672" y="676" on="0"/>
        <pt x="751" y="596" on="0"/>
        <pt x="795" y="482" on="0"/>
        <pt x="795" y="411" on="1"/>
        <pt x="795" y="332" on="0"/>
        <pt x="743" y="176" on="0"/>
        <pt x="643" y="56" on="0"/>
        <pt x="495" y="-19" on="0"/>
      </contour>
      <contour>
        <pt x="403" y="23" on="1"/>
        <pt x="487" y="23" on="0"/>
        <pt x="616" y="90" on="0"/>
        <pt x="702" y="198" on="0"/>
        <pt x="747" y="337" on="0"/>
        <pt x="747" y="408" on="1"/>
        <pt x="747" y="530" on="0"/>
        <pt x="606" y="676" on="0"/>
        <pt x="486" y="676" on="1"/>
        <pt x="402" y="676" on="0"/>
        <pt x="273" y="609" on="0"/>
        <pt x="186" y="501" on="0"/>
        <pt x="141" y="363" on="0"/>
        <pt x="141" y="292" on="1"/>
        <pt x="141" y="169" on="0"/>
        <pt x="282" y="23" on="0"/>
      </contour>
    </TTGlyph>
    <TTGlyph name="O.sc" xMin="86" yMin="-18" xMax="694" yMax="585">
      <component glyphName="o.sc" x="0" y="0" flags="0x204"/>
    </TTGlyph>
    <TTGlyph name="OE" xMin="94" yMin="0" xMax="1244" yMax="700">
      <contour>
        <pt x="779" y="658" on="1"/>
        <pt x="721" y="383" on="1"/>
        <pt x="1099" y="383" on="1"/>
        <pt x="1090" y="341" on="1"/>
        <pt x="712" y="341" on="1"/>
        <pt x="648" y="42" on="1"/>
        <pt x="1135" y="42" on="1"/>
        <pt x="1118" y="0" on="1"/>
        <pt x="420" y="0" on="1"/>
        <pt x="327" y="0" on="0"/>
        <pt x="201" y="46" on="0"/>
        <pt x="126" y="122" on="0"/>
        <pt x="94" y="224" on="0"/>
        <pt x="94" y="279" on="1"/>
        <pt x="94" y="364" on="0"/>
        <pt x="151" y="518" on="0"/>
        <pt x="262" y="632" on="0"/>
        <pt x="429" y="700" on="0"/>
        <pt x="538" y="700" on="1"/>
        <pt x="1242" y="700" on="1"/>
        <pt x="1244" y="658" on="1"/>
      </contour>
      <contour>
        <pt x="142" y="281" on="1"/>
        <pt x="142" y="236" on="0"/>
        <pt x="167" y="150" on="0"/>
        <pt x="230" y="84" on="0"/>
        <pt x="341" y="43" on="0"/>
        <pt x="427" y="43" on="1"/>
        <pt x="601" y="43" on="1"/>
        <pt x="732" y="657" on="1"/>
        <pt x="534" y="657" on="1"/>
        <pt x="434" y="657" on="0"/>
        <pt x="285" y="594" on="0"/>
        <pt x="189" y="490" on="0"/>
        <pt x="142" y="353" on="0"/>
      </contour>
    </TTGlyph>
    <TTGlyph name="OE.sc" xMin="86" yMin="0" xMax="1059" yMax="567">
      <component glyphName="oe.sc" x="0" y="0" flags="0x204"/>
    </TTGlyph>
    <TTGlyph name="Oacute" xMin="94" yMin="-19" xMax="795" yMax="1002">
      <component glyphName="O" x="0" y="0" flags="0x204"/>
      <component glyphName="acute" x="269" y="195" flags="0x4"/>
    </TTGlyph>
    <TTGlyph name="Oacute.sc" xMin="86" yMin="-18" xMax="694" yMax="868">
      <component glyphName="oacute.sc" x="0" y="0" flags="0x204"/>
    </TTGlyph>
    <TTGlyph name="Obreve" xMin="94" yMin="-19" xMax="795" yMax="1006">
      <component glyphName="O" x="0" y="0" flags="0x204"/>
      <component glyphName="breve" x="216" y="195" flags="0x4"/>
    </TTGlyph>
    <TTGlyph name="Obreve.sc" xMin="86" yMin="-18" xMax="694" yMax="872">
      <component glyphName="obreve.sc" x="0" y="0" flags="0x204"/>
    </TTGlyph>
    <TTGlyph name="Ocircumflex" xMin="94" yMin="-19" xMax="795" yMax="1005">
      <component glyphName="O" x="0" y="0" flags="0x204"/>
      <component glyphName="circumflex" x="216" y="195" flags="0x4"/>
    </TTGlyph>
    <TTGlyph name="Ocircumflex.sc" xMin="86" yMin="-18" xMax="694" yMax="871">
      <component glyphName="ocircumflex.sc" x="0" y="0" flags="0x204"/>
    </TTGlyph>
    <TTGlyph name="Odieresis" xMin="94" yMin="-19" xMax="795" yMax="910">
      <component glyphName="O" x="0" y="0" flags="0x204"/>
      <component glyphName="dieresis" x="216" y="195" flags="0x4"/>
    </TTGlyph>
    <TTGlyph name="Odieresis.sc" xMin="86" yMin="-18" xMax="694" yMax="776">
      <component glyphName="odieresis.sc" x="0" y="0" flags="0x204"/>
    </TTGlyph>
    <TTGlyph name="Ograve" xMin="94" yMin="-19" xMax="795" yMax="1002">
      <component glyphName="O" x="0" y="0" flags="0x204"/>
      <component glyphName="grave" x="163" y="195" flags="0x4"/>
    </TTGlyph>
    <TTGlyph name="Ograve.sc" xMin="86" yMin="-18" xMax="694" yMax="868">
      <component glyphName="ograve.sc" x="0" y="0" flags="0x204"/>
    </TTGlyph>
    <TTGlyph name="Ohungarumlaut" xMin="94" yMin="-19" xMax="867" yMax="1002">
      <component glyphName="O" x="0" y="0" flags="0x204"/>
      <component glyphName="hungarumlaut" x="286" y="195" flags="0x4"/>
    </TTGlyph>
    <TTGlyph name="Ohungarumlaut.sc" xMin="86" yMin="-18" xMax="795" yMax="868">
      <component glyphName="ohungarumlaut.sc" x="0" y="0" flags="0x204"/>
    </TTGlyph>
    <TTGlyph name="Omacron" xMin="94" yMin="-19" xMax="795" yMax="893">
      <component glyphName="O" x="0" y="0" flags="0x204"/>
      <component glyphName="macron" x="216" y="195" flags="0x4"/>
    </TTGlyph>
    <TTGlyph name="Omacron.sc" xMin="86" yMin="-18" xMax="694" yMax="759">
      <component glyphName="omacron.sc" x="0" y="0" flags="0x204"/>
    </TTGlyph>
    <TTGlyph name="Oslash" xMin="-3" yMin="-61" xMax="891" yMax="761">
      <contour>
        <pt x="-3" y="-61" on="1"/>
        <pt x="153" y="93" on="1"/>
        <pt x="125" y="131" on="0"/>
        <pt x="94" y="231" on="0"/>
        <pt x="94" y="290" on="1"/>
        <pt x="94" y="369" on="0"/>
        <pt x="146" y="524" on="0"/>
        <pt x="245" y="644" on="0"/>
        <pt x="393" y="719" on="0"/>
        <pt x="489" y="719" on="1"/>
        <pt x="558" y="719" on="0"/>
        <pt x="669" y="677" on="0"/>
        <pt x="709" y="638" on="1"/>
        <pt x="835" y="761" on="1"/>
        <pt x="891" y="761" on="1"/>
        <pt x="735" y="608" on="1"/>
        <pt x="764" y="570" on="0"/>
        <pt x="795" y="469" on="0"/>
        <pt x="795" y="410" on="1"/>
        <pt x="795" y="331" on="0"/>
        <pt x="743" y="176" on="0"/>
        <pt x="644" y="56" on="0"/>
        <pt x="496" y="-19" on="0"/>
        <pt x="400" y="-19" on="1"/>
        <pt x="331" y="-19" on="0"/>
        <pt x="220" y="23" on="0"/>
        <pt x="180" y="62" on="1"/>
        <pt x="54" y="-61" on="1"/>
      </contour>
      <contour>
        <pt x="141" y="291" on="1"/>
        <pt x="141" y="241" on="0"/>
        <pt x="166" y="157" on="0"/>
        <pt x="188" y="124" on="1"/>
        <pt x="678" y="604" on="1"/>
        <pt x="644" y="639" on="0"/>
        <pt x="546" y="677" on="0"/>
        <pt x="486" y="677" on="1"/>
        <pt x="402" y="677" on="0"/>
        <pt x="272" y="610" on="0"/>
        <pt x="185" y="502" on="0"/>
        <pt x="141" y="363" on="0"/>
      </contour>
      <contour>
        <pt x="403" y="23" on="1"/>
        <pt x="487" y="23" on="0"/>
        <pt x="616" y="90" on="0"/>
        <pt x="703" y="198" on="0"/>
        <pt x="748" y="337" on="0"/>
        <pt x="748" y="409" on="1"/>
        <pt x="748" y="459" on="0"/>
        <pt x="723" y="543" on="0"/>
        <pt x="701" y="576" on="1"/>
        <pt x="211" y="96" on="1"/>
        <pt x="245" y="61" on="0"/>
        <pt x="343" y="23" on="0"/>
      </contour>
    </TTGlyph>
    <TTGlyph name="Oslash.sc" xMin="15" yMin="-52" xMax="764" yMax="619">
      <component glyphName="oslash.sc" x="0" y="0" flags="0x204"/>
    </TTGlyph>
    <TTGlyph name="Oslashacute" xMin="-3" yMin="-61" xMax="891" yMax="999">
      <component glyphName="Oslash" x="0" y="0" flags="0x204"/>
      <component glyphName="acute" x="268" y="192" flags="0x4"/>
    </TTGlyph>
    <TTGlyph name="Oslashacute.sc" xMin="15" yMin="-52" xMax="764" yMax="863">
      <component glyphName="oslashacute.sc" x="0" y="0" flags="0x204"/>
    </TTGlyph>
    <TTGlyph name="Otilde" xMin="94" yMin="-19" xMax="795" yMax="948">
      <component glyphName="O" x="0" y="0" flags="0x204"/>
      <component glyphName="tilde" x="216" y="195" flags="0x4"/>
    </TTGlyph>
    <TTGlyph name="Otilde.sc" xMin="86" yMin="-18" xMax="694" yMax="814">
      <component glyphName="otilde.sc" x="0" y="0" flags="0x204"/>
    </TTGlyph>
    <TTGlyph name="P" xMin="77" yMin="0" xMax="732" yMax="700">
      <contour>
        <pt x="426" y="237" on="1"/>
        <pt x="175" y="237" on="1"/>
        <pt x="124" y="0" on="1"/>
        <pt x="77" y="0" on="1"/>
        <pt x="226" y="700" on="1"/>
        <pt x="508" y="700" on="1"/>
        <pt x="618" y="700" on="0"/>
        <pt x="732" y="597" on="0"/>
        <pt x="732" y="507" on="1"/>
        <pt x="732" y="385" on="0"/>
        <pt x="575" y="237" on="0"/>
      </contour>
      <contour>
        <pt x="427" y="281" on="1"/>
        <pt x="553" y="281" on="0"/>
        <pt x="685" y="402" on="0"/>
        <pt x="685" y="503" on="1"/>
        <pt x="685" y="575" on="0"/>
        <pt x="594" y="657" on="0"/>
        <pt x="505" y="657" on="1"/>
        <pt x="265" y="657" on="1"/>
        <pt x="184" y="281" on="1"/>
      </contour>
    </TTGlyph>
    <TTGlyph name="P.sc" xMin="77" yMin="0" xMax="630" yMax="567">
      <component glyphName="p.sc" x="0" y="0" flags="0x204"/>
    </TTGlyph>
    <TTGlyph name="Q" xMin="94" yMin="-27" xMax="795" yMax="719">
      <contour>
        <pt x="400" y="-19" on="1"/>
        <pt x="331" y="-19" on="0"/>
        <pt x="217" y="24" on="0"/>
        <pt x="138" y="104" on="0"/>
        <pt x="94" y="218" on="0"/>
        <pt x="94" y="289" on="1"/>
        <pt x="94" y="368" on="0"/>
        <pt x="146" y="524" on="0"/>
        <pt x="245" y="644" on="0"/>
        <pt x="393" y="719" on="0"/>
        <pt x="489" y="719" on="1"/>
        <pt x="558" y="719" on="0"/>
        <pt x="672" y="676" on="0"/>
        <pt x="751" y="596" on="0"/>
        <pt x="795" y="481" on="0"/>
        <pt x="795" y="410" on="1"/>
        <pt x="795" y="323" on="0"/>
        <pt x="733" y="155" on="0"/>
        <pt x="673" y="93" on="1"/>
        <pt x="738" y="21" on="1"/>
        <pt x="726" y="-27" on="1"/>
        <pt x="642" y="65" on="1"/>
        <pt x="595" y="26" on="0"/>
        <pt x="473" y="-19" on="0"/>
      </contour>
      <contour>
        <pt x="403" y="23" on="1"/>
        <pt x="467" y="23" on="0"/>
        <pt x="573" y="62" on="0"/>
        <pt x="613" y="96" on="1"/>
        <pt x="445" y="282" on="1"/>
        <pt x="473" y="312" on="1"/>
        <pt x="643" y="123" on="1"/>
        <pt x="694" y="178" on="0"/>
        <pt x="748" y="329" on="0"/>
        <pt x="748" y="408" on="1"/>
        <pt x="748" y="530" on="0"/>
        <pt x="606" y="676" on="0"/>
        <pt x="486" y="676" on="1"/>
        <pt x="402" y="676" on="0"/>
        <pt x="273" y="609" on="0"/>
        <pt x="186" y="501" on="0"/>
        <pt x="141" y="363" on="0"/>
        <pt x="141" y="292" on="1"/>
        <pt x="141" y="169" on="0"/>
        <pt x="283" y="23" on="0"/>
      </contour>
    </TTGlyph>
    <TTGlyph name="Q.sc" xMin="86" yMin="-27" xMax="694" yMax="585">
      <component glyphName="q.sc" x="0" y="0" flags="0x204"/>
    </TTGlyph>
    <TTGlyph name="R" xMin="77" yMin="0" xMax="734" yMax="700">
      <contour>
        <pt x="637" y="0" on="1"/>
        <pt x="584" y="0" on="1"/>
        <pt x="440" y="266" on="1"/>
        <pt x="181" y="266" on="1"/>
        <pt x="124" y="0" on="1"/>
        <pt x="77" y="0" on="1"/>
        <pt x="226" y="700" on="1"/>
        <pt x="509" y="700" on="1"/>
        <pt x="617" y="700" on="0"/>
        <pt x="734" y="600" on="0"/>
        <pt x="734" y="514" on="1"/>
        <pt x="734" y="414" on="0"/>
        <pt x="607" y="284" on="0"/>
        <pt x="489" y="270" on="1"/>
      </contour>
      <contour>
        <pt x="434" y="308" on="1"/>
        <pt x="553" y="308" on="0"/>
        <pt x="686" y="418" on="0"/>
        <pt x="686" y="510" on="1"/>
        <pt x="686" y="579" on="0"/>
        <pt x="594" y="657" on="0"/>
        <pt x="506" y="657" on="1"/>
        <pt x="265" y="657" on="1"/>
        <pt x="190" y="308" on="1"/>
      </contour>
    </TTGlyph>
    <TTGlyph name="R.sc" xMin="77" yMin="0" xMax="641" yMax="567">
      <component glyphName="r.sc" x="0" y="0" flags="0x204"/>
    </TTGlyph>
    <TTGlyph name="R_p" xMin="108" yMin="-182" xMax="1341" yMax="700">
      <contour>
        <pt x="211" y="264" on="1"/>
        <pt x="154" y="0" on="1"/>
        <pt x="108" y="0" on="1"/>
        <pt x="257" y="700" on="1"/>
        <pt x="534" y="700" on="1"/>
        <pt x="642" y="700" on="0"/>
        <pt x="760" y="600" on="0"/>
        <pt x="760" y="513" on="1"/>
        <pt x="760" y="413" on="0"/>
        <pt x="633" y="283" on="0"/>
        <pt x="515" y="269" on="1"/>
        <pt x="662" y="0" on="1"/>
        <pt x="609" y="0" on="1"/>
        <pt x="467" y="264" on="1"/>
      </contour>
      <contour>
        <pt x="460" y="306" on="1"/>
        <pt x="579" y="306" on="0"/>
        <pt x="713" y="416" on="0"/>
        <pt x="713" y="509" on="1"/>
        <pt x="713" y="580" on="0"/>
        <pt x="620" y="658" on="0"/>
        <pt x="532" y="658" on="1"/>
        <pt x="295" y="658" on="1"/>
        <pt x="219" y="306" on="1"/>
      </contour>
      <contour>
        <pt x="1159" y="537" on="1"/>
        <pt x="1236" y="537" on="0"/>
        <pt x="1341" y="436" on="0"/>
        <pt x="1341" y="337" on="1"/>
        <pt x="1341" y="268" on="0"/>
        <pt x="1299" y="140" on="0"/>
        <pt x="1223" y="44" on="0"/>
        <pt x="1117" y="-14" on="0"/>
        <pt x="1053" y="-14" on="1"/>
        <pt x="993" y="-14" on="0"/>
        <pt x="904" y="35" on="0"/>
        <pt x="876" y="74" on="1"/>
        <pt x="821" y="-182" on="1"/>
        <pt x="776" y="-182" on="1"/>
        <pt x="926" y="524" on="1"/>
        <pt x="971" y="524" on="1"/>
        <pt x="949" y="426" on="1"/>
        <pt x="993" y="475" on="0"/>
        <pt x="1096" y="537" on="0"/>
      </contour>
      <contour>
        <pt x="1148" y="498" on="1"/>
        <pt x="1091" y="498" on="0"/>
        <pt x="988" y="436" on="0"/>
        <pt x="941" y="383" on="1"/>
        <pt x="885" y="123" on="1"/>
        <pt x="910" y="80" on="0"/>
        <pt x="994" y="25" on="0"/>
        <pt x="1053" y="25" on="1"/>
        <pt x="1108" y="25" on="0"/>
        <pt x="1198" y="77" on="0"/>
        <pt x="1261" y="162" on="0"/>
        <pt x="1295" y="273" on="0"/>
        <pt x="1295" y="332" on="1"/>
        <pt x="1295" y="413" on="0"/>
        <pt x="1213" y="498" on="0"/>
      </contour>
    </TTGlyph>
    <TTGlyph name="Racute" xMin="77" yMin="0" xMax="734" yMax="983">
      <component glyphName="R" x="0" y="0" flags="0x204"/>
      <component glyphName="acute" x="214" y="176" flags="0x4"/>
    </TTGlyph>
    <TTGlyph name="Racute.sc" xMin="77" yMin="0" xMax="641" yMax="850">
      <component glyphName="racute.sc" x="0" y="0" flags="0x204"/>
    </TTGlyph>
    <TTGlyph name="Rcaron" xMin="77" yMin="0" xMax="734" yMax="986">
      <component glyphName="R" x="0" y="0" flags="0x204"/>
      <component glyphName="caron" x="162" y="176" flags="0x4"/>
    </TTGlyph>
    <TTGlyph name="Rcaron.sc" xMin="77" yMin="0" xMax="641" yMax="853">
      <component glyphName="rcaron.sc" x="0" y="0" flags="0x204"/>
    </TTGlyph>
    <TTGlyph name="S" xMin="49" yMin="-16" xMax="689" yMax="716">
      <contour>
        <pt x="61" y="129" on="1"/>
        <pt x="119" y="83" on="0"/>
        <pt x="280" y="26" on="0"/>
        <pt x="365" y="26" on="1"/>
        <pt x="472" y="26" on="0"/>
        <pt x="579" y="113" on="0"/>
        <pt x="579" y="177" on="1"/>
        <pt x="579" y="210" on="0"/>
        <pt x="552" y="256" on="0"/>
        <pt x="500" y="291" on="0"/>
        <pt x="422" y="320" on="0"/>
        <pt x="371" y="336" on="1"/>
        <pt x="326" y="350" on="0"/>
        <pt x="246" y="380" on="0"/>
        <pt x="186" y="421" on="0"/>
        <pt x="151" y="479" on="0"/>
        <pt x="151" y="521" on="1"/>
        <pt x="151" y="560" on="0"/>
        <pt x="183" y="631" on="0"/>
        <pt x="247" y="684" on="0"/>
        <pt x="347" y="716" on="0"/>
        <pt x="414" y="716" on="1"/>
        <pt x="498" y="716" on="0"/>
        <pt x="636" y="669" on="0"/>
        <pt x="689" y="635" on="1"/>
        <pt x="679" y="588" on="1"/>
        <pt x="678" y="588" on="1"/>
        <pt x="621" y="629" on="0"/>
        <pt x="481" y="674" on="0"/>
        <pt x="412" y="674" on="1"/>
        <pt x="303" y="674" on="0"/>
        <pt x="198" y="587" on="0"/>
        <pt x="198" y="525" on="1"/>
        <pt x="198" y="461" on="0"/>
        <pt x="305" y="404" on="0"/>
        <pt x="392" y="376" on="1"/>
        <pt x="446" y="358" on="0"/>
        <pt x="534" y="324" on="0"/>
        <pt x="594" y="281" on="0"/>
        <pt x="626" y="222" on="0"/>
        <pt x="626" y="179" on="1"/>
        <pt x="626" y="139" on="0"/>
        <pt x="593" y="67" on="0"/>
        <pt x="529" y="15" on="0"/>
        <pt x="431" y="-16" on="0"/>
        <pt x="366" y="-16" on="1"/>
        <pt x="270" y="-16" on="0"/>
        <pt x="109" y="39" on="0"/>
        <pt x="49" y="82" on="1"/>
        <pt x="60" y="129" on="1"/>
      </contour>
    </TTGlyph>
    <TTGlyph name="S.sc" xMin="47" yMin="-16" xMax="588" yMax="582">
      <component glyphName="s.sc" x="0" y="0" flags="0x204"/>
    </TTGlyph>
    <TTGlyph name="Sacute" xMin="49" yMin="-16" xMax="699" yMax="999">
      <component glyphName="S" x="0" y="0" flags="0x204"/>
      <component glyphName="acute" x="218" y="192" flags="0x4"/>
    </TTGlyph>
    <TTGlyph name="Sacute.sc" xMin="47" yMin="-16" xMax="615" yMax="865">
      <component glyphName="sacute.sc" x="0" y="0" flags="0x204"/>
    </TTGlyph>
    <TTGlyph name="Scaron" xMin="49" yMin="-16" xMax="714" yMax="1002">
      <component glyphName="S" x="0" y="0" flags="0x204"/>
      <component glyphName="caron" x="166" y="192" flags="0x4"/>
    </TTGlyph>
    <TTGlyph name="Scaron.sc" xMin="47" yMin="-16" xMax="630" yMax="868">
      <component glyphName="scaron.sc" x="0" y="0" flags="0x204"/>
    </TTGlyph>
    <TTGlyph name="Scedilla" xMin="49" yMin="-195" xMax="689" yMax="716">
      <contour>
        <pt x="61" y="129" on="1"/>
        <pt x="119" y="83" on="0"/>
        <pt x="280" y="26" on="0"/>
        <pt x="365" y="26" on="1"/>
        <pt x="472" y="26" on="0"/>
        <pt x="579" y="113" on="0"/>
        <pt x="579" y="177" on="1"/>
        <pt x="579" y="210" on="0"/>
        <pt x="552" y="256" on="0"/>
        <pt x="500" y="291" on="0"/>
        <pt x="422" y="320" on="0"/>
        <pt x="371" y="336" on="1"/>
        <pt x="326" y="350" on="0"/>
        <pt x="246" y="380" on="0"/>
        <pt x="186" y="421" on="0"/>
        <pt x="151" y="479" on="0"/>
        <pt x="151" y="521" on="1"/>
        <pt x="151" y="560" on="0"/>
        <pt x="183" y="631" on="0"/>
        <pt x="247" y="684" on="0"/>
        <pt x="347" y="716" on="0"/>
        <pt x="414" y="716" on="1"/>
        <pt x="498" y="716" on="0"/>
        <pt x="636" y="669" on="0"/>
        <pt x="689" y="635" on="1"/>
        <pt x="679" y="588" on="1"/>
        <pt x="678" y="588" on="1"/>
        <pt x="621" y="629" on="0"/>
        <pt x="481" y="674" on="0"/>
        <pt x="412" y="674" on="1"/>
        <pt x="303" y="674" on="0"/>
        <pt x="198" y="587" on="0"/>
        <pt x="198" y="525" on="1"/>
        <pt x="198" y="461" on="0"/>
        <pt x="305" y="404" on="0"/>
        <pt x="392" y="376" on="1"/>
        <pt x="446" y="358" on="0"/>
        <pt x="534" y="324" on="0"/>
        <pt x="594" y="281" on="0"/>
        <pt x="626" y="222" on="0"/>
        <pt x="626" y="179" on="1"/>
        <pt x="626" y="139" on="0"/>
        <pt x="593" y="67" on="0"/>
        <pt x="529" y="15" on="0"/>
        <pt x="433" y="-16" on="0"/>
        <pt x="370" y="-16" on="1"/>
        <pt x="206" y="-195" on="1"/>
        <pt x="143" y="-195" on="1"/>
        <pt x="143" y="-193" on="1"/>
        <pt x="328" y="-15" on="1"/>
        <pt x="244" y="-10" on="0"/>
        <pt x="103" y="43" on="0"/>
        <pt x="49" y="82" on="1"/>
        <pt x="60" y="129" on="1"/>
      </contour>
    </TTGlyph>
    <TTGlyph name="Scedilla.sc" xMin="47" yMin="-196" xMax="588" yMax="582">
      <component glyphName="scedilla.sc" x="0" y="0" flags="0x204"/>
    </TTGlyph>
    <TTGlyph name="T" xMin="124" yMin="0" xMax="750" yMax="700">
      <contour>
        <pt x="750" y="657" on="1"/>
        <pt x="464" y="657" on="1"/>
        <pt x="324" y="0" on="1"/>
        <pt x="277" y="0" on="1"/>
        <pt x="416" y="657" on="1"/>
        <pt x="124" y="657" on="1"/>
        <pt x="141" y="700" on="1"/>
        <pt x="746" y="700" on="1"/>
      </contour>
    </TTGlyph>
    <TTGlyph name="T.sc" xMin="98" yMin="0" xMax="651" yMax="567">
      <component glyphName="t.sc" x="0" y="0" flags="0x204"/>
    </TTGlyph>
    <TTGlyph name="Tcaron" xMin="124" yMin="0" xMax="750" yMax="986">
      <component glyphName="T" x="0" y="0" flags="0x204"/>
      <component glyphName="caron" x="143" y="176" flags="0x4"/>
    </TTGlyph>
    <TTGlyph name="Tcaron.sc" xMin="98" yMin="0" xMax="671" yMax="853">
      <component glyphName="tcaron.sc" x="0" y="0" flags="0x204"/>
    </TTGlyph>
    <TTGlyph name="Thorn" xMin="77" yMin="0" xMax="714" yMax="700">
      <contour>
        <pt x="226" y="700" on="1"/>
        <pt x="273" y="700" on="1"/>
        <pt x="248" y="579" on="1"/>
        <pt x="487" y="579" on="1"/>
        <pt x="599" y="579" on="0"/>
        <pt x="714" y="478" on="0"/>
        <pt x="714" y="390" on="1"/>
        <pt x="714" y="270" on="0"/>
        <pt x="557" y="126" on="0"/>
        <pt x="408" y="126" on="1"/>
        <pt x="151" y="126" on="1"/>
        <pt x="124" y="0" on="1"/>
        <pt x="77" y="0" on="1"/>
      </contour>
      <contour>
        <pt x="239" y="535" on="1"/>
        <pt x="160" y="169" on="1"/>
        <pt x="408" y="169" on="1"/>
        <pt x="534" y="169" on="0"/>
        <pt x="666" y="287" on="0"/>
        <pt x="666" y="387" on="1"/>
        <pt x="666" y="457" on="0"/>
        <pt x="575" y="535" on="0"/>
        <pt x="485" y="535" on="1"/>
      </contour>
    </TTGlyph>
    <TTGlyph name="Thorn.sc" xMin="77" yMin="0" xMax="616" yMax="567">
      <component glyphName="thorn.sc" x="0" y="0" flags="0x204"/>
    </TTGlyph>
    <TTGlyph name="U" xMin="112" yMin="-16" xMax="792" yMax="700">
      <contour>
        <pt x="373" y="-16" on="1"/>
        <pt x="253" y="-16" on="0"/>
        <pt x="112" y="88" on="0"/>
        <pt x="112" y="190" on="1"/>
        <pt x="112" y="217" on="0"/>
        <pt x="119" y="267" on="0"/>
        <pt x="126" y="300" on="1"/>
        <pt x="211" y="700" on="1"/>
        <pt x="259" y="700" on="1"/>
        <pt x="172" y="294" on="1"/>
        <pt x="166" y="266" on="0"/>
        <pt x="160" y="219" on="0"/>
        <pt x="160" y="196" on="1"/>
        <pt x="160" y="109" on="0"/>
        <pt x="276" y="27" on="0"/>
        <pt x="375" y="27" on="1"/>
        <pt x="492" y="27" on="0"/>
        <pt x="626" y="141" on="0"/>
        <pt x="649" y="251" on="1"/>
        <pt x="745" y="700" on="1"/>
        <pt x="792" y="700" on="1"/>
        <pt x="694" y="240" on="1"/>
        <pt x="668" y="115" on="0"/>
        <pt x="507" y="-16" on="0"/>
      </contour>
    </TTGlyph>
    <TTGlyph name="U.sc" xMin="101" yMin="-16" xMax="675" yMax="567">
      <component glyphName="u.sc" x="0" y="0" flags="0x204"/>
    </TTGlyph>
    <TTGlyph name="Uacute" xMin="112" yMin="-16" xMax="792" yMax="959">
      <component glyphName="U" x="0" y="0" flags="0x204"/>
      <component glyphName="acute" x="241" y="152" flags="0x4"/>
    </TTGlyph>
    <TTGlyph name="Uacute.sc" xMin="101" yMin="-16" xMax="675" yMax="827">
      <component glyphName="uacute.sc" x="0" y="0" flags="0x204"/>
    </TTGlyph>
    <TTGlyph name="Ubreve" xMin="112" yMin="-16" xMax="792" yMax="963">
      <component glyphName="U" x="0" y="0" flags="0x204"/>
      <component glyphName="breve" x="188" y="152" flags="0x4"/>
    </TTGlyph>
    <TTGlyph name="Ubreve.sc" xMin="101" yMin="-16" xMax="675" yMax="831">
      <component glyphName="ubreve.sc" x="0" y="0" flags="0x204"/>
    </TTGlyph>
    <TTGlyph name="Ucircumflex" xMin="112" yMin="-16" xMax="792" yMax="986">
      <component glyphName="U" x="0" y="0" flags="0x204"/>
      <component glyphName="circumflex" x="193" y="176" flags="0x4"/>
    </TTGlyph>
    <TTGlyph name="Ucircumflex.sc" xMin="101" yMin="-16" xMax="675" yMax="853">
      <component glyphName="ucircumflex.sc" x="0" y="0" flags="0x204"/>
    </TTGlyph>
    <TTGlyph name="Udieresis" xMin="112" yMin="-16" xMax="792" yMax="891">
      <component glyphName="U" x="0" y="0" flags="0x204"/>
      <component glyphName="dieresis" x="193" y="176" flags="0x4"/>
    </TTGlyph>
    <TTGlyph name="Udieresis.sc" xMin="101" yMin="-16" xMax="675" yMax="758">
      <component glyphName="udieresis.sc" x="0" y="0" flags="0x204"/>
    </TTGlyph>
    <TTGlyph name="Ugrave" xMin="112" yMin="-16" xMax="792" yMax="959">
      <component glyphName="U" x="0" y="0" flags="0x204"/>
      <component glyphName="grave" x="136" y="152" flags="0x4"/>
    </TTGlyph>
    <TTGlyph name="Ugrave.sc" xMin="101" yMin="-16" xMax="675" yMax="827">
      <component glyphName="ugrave.sc" x="0" y="0" flags="0x204"/>
    </TTGlyph>
    <TTGlyph name="Uhungarumlaut" xMin="112" yMin="-16" xMax="842" yMax="983">
      <component glyphName="U" x="0" y="0" flags="0x204"/>
      <component glyphName="hungarumlaut" x="261" y="176" flags="0x4"/>
    </TTGlyph>
    <TTGlyph name="Uhungarumlaut.sc" xMin="101" yMin="-16" xMax="730" yMax="850">
      <component glyphName="uhungarumlaut.sc" x="0" y="0" flags="0x204"/>
    </TTGlyph>
    <TTGlyph name="Umacron" xMin="112" yMin="-16" xMax="792" yMax="874">
      <component glyphName="U" x="0" y="0" flags="0x204"/>
      <component glyphName="macron" x="193" y="176" flags="0x4"/>
    </TTGlyph>
    <TTGlyph name="Umacron.sc" xMin="101" yMin="-16" xMax="675" yMax="741">
      <component glyphName="umacron.sc" x="0" y="0" flags="0x204"/>
    </TTGlyph>
    <TTGlyph name="Uogonek" xMin="112" yMin="-298" xMax="792" yMax="700">
      <contour>
        <pt x="428" y="-269" on="1"/>
        <pt x="404" y="-283" on="0"/>
        <pt x="351" y="-298" on="0"/>
        <pt x="323" y="-298" on="1"/>
        <pt x="272" y="-298" on="0"/>
        <pt x="215" y="-253" on="0"/>
        <pt x="215" y="-214" on="1"/>
        <pt x="215" y="-174" on="0"/>
        <pt x="271" y="-97" on="0"/>
        <pt x="334" y="-45" on="1"/>
        <pt x="369" y="-16" on="1"/>
        <pt x="250" y="-15" on="0"/>
        <pt x="112" y="89" on="0"/>
        <pt x="112" y="190" on="1"/>
        <pt x="112" y="217" on="0"/>
        <pt x="119" y="267" on="0"/>
        <pt x="126" y="300" on="1"/>
        <pt x="211" y="700" on="1"/>
        <pt x="259" y="700" on="1"/>
        <pt x="172" y="294" on="1"/>
        <pt x="166" y="266" on="0"/>
        <pt x="160" y="219" on="0"/>
        <pt x="160" y="196" on="1"/>
        <pt x="160" y="109" on="0"/>
        <pt x="276" y="27" on="0"/>
        <pt x="375" y="27" on="1"/>
        <pt x="492" y="27" on="0"/>
        <pt x="626" y="141" on="0"/>
        <pt x="649" y="251" on="1"/>
        <pt x="745" y="700" on="1"/>
        <pt x="792" y="700" on="1"/>
        <pt x="694" y="240" on="1"/>
        <pt x="670" y="127" on="0"/>
        <pt x="535" y="-2" on="0"/>
        <pt x="424" y="-13" on="1"/>
        <pt x="358" y="-69" on="1"/>
        <pt x="304" y="-115" on="0"/>
        <pt x="259" y="-177" on="0"/>
        <pt x="259" y="-206" on="1"/>
        <pt x="259" y="-232" on="0"/>
        <pt x="297" y="-261" on="0"/>
        <pt x="331" y="-261" on="1"/>
        <pt x="358" y="-261" on="0"/>
        <pt x="412" y="-243" on="0"/>
        <pt x="437" y="-227" on="1"/>
      </contour>
    </TTGlyph>
    <TTGlyph name="Uogonek.sc" xMin="101" yMin="-293" xMax="675" yMax="567">
      <component glyphName="uogonek.sc" x="0" y="0" flags="0x204"/>
    </TTGlyph>
    <TTGlyph name="Uring" xMin="112" yMin="-16" xMax="792" yMax="1036">
      <component glyphName="U" x="0" y="0" flags="0x204"/>
      <component glyphName="ring" x="133" y="152" flags="0x4"/>
    </TTGlyph>
    <TTGlyph name="Uring.sc" xMin="101" yMin="-16" xMax="675" yMax="904">
      <component glyphName="uring.sc" x="0" y="0" flags="0x204"/>
    </TTGlyph>
    <TTGlyph name="V" xMin="158" yMin="0" xMax="809" yMax="700">
      <contour>
        <pt x="276" y="0" on="1"/>
        <pt x="158" y="700" on="1"/>
        <pt x="207" y="700" on="1"/>
        <pt x="317" y="44" on="1"/>
        <pt x="364" y="44" on="1"/>
        <pt x="755" y="700" on="1"/>
        <pt x="809" y="700" on="1"/>
        <pt x="392" y="0" on="1"/>
      </contour>
    </TTGlyph>
    <TTGlyph name="V.sc" xMin="131" yMin="0" xMax="682" yMax="567">
      <component glyphName="v.sc" x="0" y="0" flags="0x204"/>
    </TTGlyph>
    <TTGlyph name="W" xMin="176" yMin="0" xMax="1209" yMax="700">
      <contour>
        <pt x="222" y="0" on="1"/>
        <pt x="176" y="700" on="1"/>
        <pt x="224" y="700" on="1"/>
        <pt x="266" y="47" on="1"/>
        <pt x="311" y="47" on="1"/>
        <pt x="655" y="700" on="1"/>
        <pt x="724" y="700" on="1"/>
        <pt x="786" y="47" on="1"/>
        <pt x="831" y="47" on="1"/>
        <pt x="1158" y="700" on="1"/>
        <pt x="1209" y="700" on="1"/>
        <pt x="856" y="0" on="1"/>
        <pt x="746" y="0" on="1"/>
        <pt x="746" y="0" on="0"/>
        <pt x="728" y="201" on="0"/>
        <pt x="706" y="440" on="0"/>
        <pt x="687" y="641" on="0"/>
        <pt x="687" y="641" on="1"/>
        <pt x="671" y="641" on="1"/>
        <pt x="333" y="0" on="1"/>
      </contour>
    </TTGlyph>
    <TTGlyph name="W.sc" xMin="128" yMin="0" xMax="1031" yMax="567">
      <component glyphName="w.sc" x="0" y="0" flags="0x204"/>
    </TTGlyph>
    <TTGlyph name="Wacute" xMin="176" yMin="0" xMax="1209" yMax="983">
      <component glyphName="W" x="0" y="0" flags="0x204"/>
      <component glyphName="acute" x="447" y="176" flags="0x4"/>
    </TTGlyph>
    <TTGlyph name="Wacute.sc" xMin="128" yMin="0" xMax="1031" yMax="850">
      <component glyphName="wacute.sc" x="0" y="0" flags="0x204"/>
    </TTGlyph>
    <TTGlyph name="Wcircumflex" xMin="176" yMin="0" xMax="1209" yMax="986">
      <component glyphName="W" x="0" y="0" flags="0x204"/>
      <component glyphName="circumflex" x="380" y="176" flags="0x4"/>
    </TTGlyph>
    <TTGlyph name="Wcircumflex.sc" xMin="128" yMin="0" xMax="1031" yMax="853">
      <component glyphName="wcircumflex.sc" x="0" y="0" flags="0x204"/>
    </TTGlyph>
    <TTGlyph name="Wdieresis" xMin="176" yMin="0" xMax="1209" yMax="891">
      <component glyphName="W" x="0" y="0" flags="0x204"/>
      <component glyphName="dieresis" x="380" y="176" flags="0x4"/>
    </TTGlyph>
    <TTGlyph name="Wdieresis.sc" xMin="128" yMin="0" xMax="1031" yMax="758">
      <component glyphName="wdieresis.sc" x="0" y="0" flags="0x204"/>
    </TTGlyph>
    <TTGlyph name="Wgrave" xMin="176" yMin="0" xMax="1209" yMax="983">
      <component glyphName="W" x="0" y="0" flags="0x204"/>
      <component glyphName="grave" x="314" y="176" flags="0x4"/>
    </TTGlyph>
    <TTGlyph name="Wgrave.sc" xMin="128" yMin="0" xMax="1031" yMax="850">
      <component glyphName="wgrave.sc" x="0" y="0" flags="0x204"/>
    </TTGlyph>
    <TTGlyph name="X" xMin="20" yMin="0" xMax="779" yMax="700">
      <contour>
        <pt x="20" y="1" on="1"/>
        <pt x="383" y="369" on="1"/>
        <pt x="189" y="699" on="1"/>
        <pt x="189" y="700" on="1"/>
        <pt x="239" y="700" on="1"/>
        <pt x="418" y="393" on="1"/>
        <pt x="720" y="700" on="1"/>
        <pt x="779" y="700" on="1"/>
        <pt x="779" y="699" on="1"/>
        <pt x="442" y="357" on="1"/>
        <pt x="650" y="1" on="1"/>
        <pt x="650" y="0" on="1"/>
        <pt x="599" y="0" on="1"/>
        <pt x="406" y="331" on="1"/>
        <pt x="79" y="0" on="1"/>
        <pt x="20" y="0" on="1"/>
      </contour>
    </TTGlyph>
    <TTGlyph name="X.sc" xMin="12" yMin="0" xMax="642" yMax="567">
      <component glyphName="x.sc" x="0" y="0" flags="0x204"/>
    </TTGlyph>
    <TTGlyph name="Y" xMin="140" yMin="0" xMax="810" yMax="700">
      <contour>
        <pt x="751" y="700" on="1"/>
        <pt x="810" y="700" on="1"/>
        <pt x="396" y="234" on="1"/>
        <pt x="347" y="0" on="1"/>
        <pt x="299" y="0" on="1"/>
        <pt x="349" y="234" on="1"/>
        <pt x="140" y="700" on="1"/>
        <pt x="190" y="700" on="1"/>
        <pt x="379" y="279" on="1"/>
      </contour>
    </TTGlyph>
    <TTGlyph name="Y.sc" xMin="105" yMin="0" xMax="675" yMax="567">
      <component glyphName="y.sc" x="0" y="0" flags="0x204"/>
    </TTGlyph>
    <TTGlyph name="Yacute" xMin="140" yMin="0" xMax="810" yMax="959">
      <component glyphName="Y" x="0" y="0" flags="0x204"/>
      <component glyphName="acute" x="210" y="152" flags="0x4"/>
    </TTGlyph>
    <TTGlyph name="Yacute.sc" xMin="105" yMin="0" xMax="675" yMax="827">
      <component glyphName="yacute.sc" x="0" y="0" flags="0x204"/>
    </TTGlyph>
    <TTGlyph name="Ycircumflex" xMin="140" yMin="0" xMax="810" yMax="986">
      <component glyphName="Y" x="0" y="0" flags="0x204"/>
      <component glyphName="circumflex" x="162" y="176" flags="0x4"/>
    </TTGlyph>
    <TTGlyph name="Ycircumflex.sc" xMin="105" yMin="0" xMax="675" yMax="853">
      <component glyphName="ycircumflex.sc" x="0" y="0" flags="0x204"/>
    </TTGlyph>
    <TTGlyph name="Ydieresis" xMin="140" yMin="0" xMax="810" yMax="891">
      <component glyphName="Y" x="0" y="0" flags="0x204"/>
      <component glyphName="dieresis" x="162" y="176" flags="0x4"/>
    </TTGlyph>
    <TTGlyph name="Ydieresis.sc" xMin="105" yMin="0" xMax="675" yMax="758">
      <component glyphName="ydieresis.sc" x="0" y="0" flags="0x204"/>
    </TTGlyph>
    <TTGlyph name="Ygrave" xMin="140" yMin="0" xMax="810" yMax="959">
      <component glyphName="Y" x="0" y="0" flags="0x204"/>
      <component glyphName="grave" x="104" y="152" flags="0x4"/>
    </TTGlyph>
    <TTGlyph name="Ygrave.sc" xMin="105" yMin="0" xMax="675" yMax="827">
      <component glyphName="ygrave.sc" x="0" y="0" flags="0x204"/>
    </TTGlyph>
    <TTGlyph name="Z" xMin="27" yMin="0" xMax="760" yMax="700">
      <contour>
        <pt x="27" y="0" on="1"/>
        <pt x="36" y="43" on="1"/>
        <pt x="685" y="658" on="1"/>
        <pt x="176" y="658" on="1"/>
        <pt x="193" y="700" on="1"/>
        <pt x="760" y="700" on="1"/>
        <pt x="751" y="660" on="1"/>
        <pt x="99" y="42" on="1"/>
        <pt x="624" y="42" on="1"/>
        <pt x="615" y="0" on="1"/>
      </contour>
    </TTGlyph>
    <TTGlyph name="Z.sc" xMin="36" yMin="0" xMax="640" yMax="567">
      <component glyphName="z.sc" x="0" y="0" flags="0x204"/>
    </TTGlyph>
    <TTGlyph name="Zacute" xMin="27" yMin="0" xMax="760" yMax="983">
      <component glyphName="Z" x="0" y="0" flags="0x204"/>
      <component glyphName="acute" x="219" y="176" flags="0x4"/>
    </TTGlyph>
    <TTGlyph name="Zacute.sc" xMin="36" yMin="0" xMax="640" yMax="850">
      <component glyphName="zacute.sc" x="0" y="0" flags="0x204"/>
    </TTGlyph>
    <TTGlyph name="Zcaron" xMin="27" yMin="0" xMax="760" yMax="986">
      <component glyphName="Z" x="0" y="0" flags="0x204"/>
      <component glyphName="caron" x="167" y="176" flags="0x4"/>
    </TTGlyph>
    <TTGlyph name="Zcaron.sc" xMin="36" yMin="0" xMax="641" yMax="853">
      <component glyphName="zcaron.sc" x="0" y="0" flags="0x204"/>
    </TTGlyph>
    <TTGlyph name="Zdotaccent" xMin="27" yMin="0" xMax="760" yMax="892">
      <component glyphName="Z" x="0" y="0" flags="0x204"/>
      <component glyphName="dotaccent" x="166" y="176" flags="0x4"/>
    </TTGlyph>
    <TTGlyph name="Zdotaccent.sc" xMin="36" yMin="0" xMax="640" yMax="759">
      <component glyphName="zdotaccent.sc" x="0" y="0" flags="0x204"/>
    </TTGlyph>
    <TTGlyph name="a" xMin="49" yMin="-13" xMax="520" yMax="537">
      <contour>
        <pt x="332" y="498" on="1"/>
        <pt x="281" y="498" on="0"/>
        <pt x="179" y="464" on="0"/>
        <pt x="134" y="433" on="1"/>
        <pt x="133" y="433" on="1"/>
        <pt x="142" y="480" on="1"/>
        <pt x="185" y="507" on="0"/>
        <pt x="284" y="537" on="0"/>
        <pt x="338" y="537" on="1"/>
        <pt x="428" y="537" on="0"/>
        <pt x="520" y="455" on="0"/>
        <pt x="520" y="388" on="1"/>
        <pt x="520" y="373" on="0"/>
        <pt x="515" y="337" on="0"/>
        <pt x="511" y="317" on="1"/>
        <pt x="444" y="0" on="1"/>
        <pt x="402" y="0" on="1"/>
        <pt x="422" y="99" on="1"/>
        <pt x="376" y="52" on="0"/>
        <pt x="263" y="-13" on="0"/>
        <pt x="194" y="-13" on="1"/>
        <pt x="125" y="-13" on="0"/>
        <pt x="49" y="56" on="0"/>
        <pt x="49" y="113" on="1"/>
        <pt x="49" y="141" on="0"/>
        <pt x="69" y="196" on="0"/>
        <pt x="93" y="221" on="1"/>
        <pt x="139" y="267" on="0"/>
        <pt x="312" y="304" on="0"/>
        <pt x="441" y="304" on="1"/>
        <pt x="464" y="304" on="1"/>
        <pt x="467" y="320" on="1"/>
        <pt x="472" y="342" on="0"/>
        <pt x="475" y="369" on="0"/>
        <pt x="475" y="385" on="1"/>
        <pt x="475" y="434" on="0"/>
        <pt x="405" y="498" on="0"/>
      </contour>
      <contour>
        <pt x="94" y="117" on="1"/>
        <pt x="94" y="74" on="0"/>
        <pt x="152" y="24" on="0"/>
        <pt x="204" y="24" on="1"/>
        <pt x="269" y="24" on="0"/>
        <pt x="380" y="94" on="0"/>
        <pt x="429" y="141" on="1"/>
        <pt x="457" y="270" on="1"/>
        <pt x="338" y="271" on="0"/>
        <pt x="170" y="241" on="0"/>
        <pt x="130" y="201" on="1"/>
        <pt x="111" y="182" on="0"/>
        <pt x="94" y="139" on="0"/>
      </contour>
    </TTGlyph>
    <TTGlyph name="a.sc" xMin="21" yMin="0" xMax="594" yMax="567">
      <contour>
        <pt x="548" y="0" on="1"/>
        <pt x="519" y="158" on="1"/>
        <pt x="170" y="158" on="1"/>
        <pt x="73" y="0" on="1"/>
        <pt x="21" y="0" on="1"/>
        <pt x="371" y="567" on="1"/>
        <pt x="486" y="567" on="1"/>
        <pt x="594" y="0" on="1"/>
      </contour>
      <contour>
        <pt x="397" y="526" on="1"/>
        <pt x="195" y="198" on="1"/>
        <pt x="511" y="198" on="1"/>
        <pt x="449" y="526" on="1"/>
      </contour>
    </TTGlyph>
    <TTGlyph name="aacute" xMin="49" yMin="-13" xMax="573" yMax="821">
      <component glyphName="a" x="0" y="0" flags="0x204"/>
      <component glyphName="acute" x="92" y="14" flags="0x4"/>
    </TTGlyph>
    <TTGlyph name="aacute.sc" xMin="21" yMin="0" xMax="662" yMax="850">
      <component glyphName="a.sc" x="0" y="0" flags="0x204"/>
      <component glyphName="acute" x="181" y="43" flags="0x4"/>
    </TTGlyph>
    <TTGlyph name="abreve" xMin="49" yMin="-13" xMax="561" yMax="825">
      <component glyphName="a" x="0" y="0" flags="0x204"/>
      <component glyphName="breve" x="39" y="14" flags="0x4"/>
    </TTGlyph>
    <TTGlyph name="abreve.sc" xMin="21" yMin="0" xMax="650" yMax="854">
      <component glyphName="a.sc" x="0" y="0" flags="0x204"/>
      <component glyphName="breve" x="128" y="43" flags="0x4"/>
    </TTGlyph>
    <TTGlyph name="acircumflex" xMin="49" yMin="-13" xMax="553" yMax="824">
      <component glyphName="a" x="0" y="0" flags="0x204"/>
      <component glyphName="circumflex" x="39" y="14" flags="0x4"/>
    </TTGlyph>
    <TTGlyph name="acircumflex.sc" xMin="21" yMin="0" xMax="642" yMax="853">
      <component glyphName="a.sc" x="0" y="0" flags="0x204"/>
      <component glyphName="circumflex" x="128" y="43" flags="0x4"/>
    </TTGlyph>
    <TTGlyph name="acute" xMin="243" yMin="643" xMax="481" yMax="807">
      <contour>
        <pt x="290" y="643" on="1"/>
        <pt x="243" y="643" on="1"/>
        <pt x="414" y="807" on="1"/>
        <pt x="481" y="807" on="1"/>
        <pt x="481" y="805" on="1"/>
      </contour>
    </TTGlyph>
    <TTGlyph name="adieresis" xMin="49" yMin="-13" xMax="538" yMax="729">
      <component glyphName="a" x="0" y="0" flags="0x204"/>
      <component glyphName="dieresis" x="39" y="14" flags="0x4"/>
    </TTGlyph>
    <TTGlyph name="adieresis.sc" xMin="21" yMin="0" xMax="627" yMax="758">
      <component glyphName="a.sc" x="0" y="0" flags="0x204"/>
      <component glyphName="dieresis" x="128" y="43" flags="0x4"/>
    </TTGlyph>
    <TTGlyph name="ae" xMin="48" yMin="-12" xMax="921" yMax="537">
      <contour>
        <pt x="736" y="537" on="1"/>
        <pt x="823" y="537" on="0"/>
        <pt x="921" y="433" on="0"/>
        <pt x="921" y="349" on="1"/>
        <pt x="921" y="327" on="0"/>
        <pt x="916" y="287" on="0"/>
        <pt x="909" y="266" on="1"/>
        <pt x="500" y="266" on="1"/>
        <pt x="498" y="253" on="0"/>
        <pt x="496" y="227" on="0"/>
        <pt x="496" y="214" on="1"/>
        <pt x="496" y="209" on="1"/>
        <pt x="496" y="118" on="0"/>
        <pt x="601" y="27" on="0"/>
        <pt x="685" y="27" on="1"/>
        <pt x="733" y="27" on="0"/>
        <pt x="830" y="58" on="0"/>
        <pt x="873" y="88" on="1"/>
        <pt x="874" y="88" on="1"/>
        <pt x="863" y="40" on="1"/>
        <pt x="823" y="15" on="0"/>
        <pt x="732" y="-12" on="0"/>
        <pt x="681" y="-12" on="1"/>
        <pt x="599" y="-12" on="0"/>
        <pt x="484" y="60" on="0"/>
        <pt x="463" y="127" on="1"/>
        <pt x="409" y="71" on="0"/>
        <pt x="280" y="-12" on="0"/>
        <pt x="195" y="-12" on="1"/>
        <pt x="126" y="-12" on="0"/>
        <pt x="48" y="57" on="0"/>
        <pt x="48" y="114" on="1"/>
        <pt x="48" y="141" on="0"/>
        <pt x="69" y="193" on="0"/>
        <pt x="91" y="216" on="1"/>
        <pt x="137" y="262" on="0"/>
        <pt x="312" y="301" on="0"/>
        <pt x="443" y="301" on="1"/>
        <pt x="463" y="301" on="1"/>
        <pt x="470" y="335" on="0"/>
        <pt x="475" y="366" on="0"/>
        <pt x="475" y="385" on="1"/>
        <pt x="475" y="434" on="0"/>
        <pt x="405" y="498" on="0"/>
        <pt x="331" y="498" on="1"/>
        <pt x="280" y="498" on="0"/>
        <pt x="178" y="464" on="0"/>
        <pt x="134" y="433" on="1"/>
        <pt x="133" y="433" on="1"/>
        <pt x="141" y="480" on="1"/>
        <pt x="184" y="507" on="0"/>
        <pt x="284" y="537" on="0"/>
        <pt x="338" y="537" on="1"/>
        <pt x="386" y="537" on="0"/>
        <pt x="451" y="513" on="0"/>
        <pt x="491" y="477" on="0"/>
        <pt x="510" y="433" on="0"/>
        <pt x="513" y="412" on="1"/>
        <pt x="552" y="469" on="0"/>
        <pt x="668" y="537" on="0"/>
      </contour>
      <contour>
        <pt x="732" y="499" on="1"/>
        <pt x="654" y="499" on="0"/>
        <pt x="529" y="390" on="0"/>
        <pt x="507" y="300" on="1"/>
        <pt x="873" y="300" on="1"/>
        <pt x="875" y="311" on="0"/>
        <pt x="878" y="337" on="0"/>
        <pt x="878" y="351" on="1"/>
        <pt x="878" y="417" on="0"/>
        <pt x="804" y="500" on="0"/>
      </contour>
      <contour>
        <pt x="94" y="118" on="1"/>
        <pt x="94" y="75" on="0"/>
        <pt x="152" y="24" on="0"/>
        <pt x="204" y="24" on="1"/>
        <pt x="281" y="24" on="0"/>
        <pt x="401" y="107" on="0"/>
        <pt x="455" y="163" on="1"/>
        <pt x="454" y="173" on="0"/>
        <pt x="452" y="194" on="0"/>
        <pt x="452" y="205" on="1"/>
        <pt x="452" y="221" on="0"/>
        <pt x="454" y="252" on="0"/>
        <pt x="456" y="267" on="1"/>
        <pt x="336" y="267" on="0"/>
        <pt x="168" y="237" on="0"/>
        <pt x="128" y="197" on="1"/>
        <pt x="110" y="179" on="0"/>
        <pt x="94" y="140" on="0"/>
      </contour>
    </TTGlyph>
    <TTGlyph name="ae.sc" xMin="-8" yMin="0" xMax="1032" yMax="567">
      <contour>
        <pt x="948" y="40" on="1"/>
        <pt x="932" y="0" on="1"/>
        <pt x="481" y="0" on="1"/>
        <pt x="515" y="160" on="1"/>
        <pt x="186" y="160" on="1"/>
        <pt x="48" y="0" on="1"/>
        <pt x="-8" y="0" on="1"/>
        <pt x="480" y="567" on="1"/>
        <pt x="1028" y="567" on="1"/>
        <pt x="1032" y="527" on="1"/>
        <pt x="638" y="527" on="1"/>
        <pt x="592" y="312" on="1"/>
        <pt x="913" y="312" on="1"/>
        <pt x="904" y="273" on="1"/>
        <pt x="584" y="273" on="1"/>
        <pt x="534" y="40" on="1"/>
      </contour>
      <contour>
        <pt x="502" y="527" on="1"/>
        <pt x="219" y="199" on="1"/>
        <pt x="523" y="199" on="1"/>
        <pt x="593" y="527" on="1"/>
      </contour>
    </TTGlyph>
    <TTGlyph name="aeacute" xMin="48" yMin="-12" xMax="921" yMax="805">
      <component glyphName="ae" x="0" y="0" flags="0x204"/>
      <component glyphName="acute" x="309" y="-2" flags="0x4"/>
    </TTGlyph>
    <TTGlyph name="aeacute.sc" xMin="-8" yMin="0" xMax="1032" yMax="850">
      <component glyphName="ae.sc" x="0" y="0" flags="0x204"/>
      <component glyphName="acute" x="408" y="43" flags="0x4"/>
    </TTGlyph>
    <TTGlyph name="agrave" xMin="49" yMin="-13" xMax="520" yMax="821">
      <component glyphName="a" x="0" y="0" flags="0x204"/>
      <component glyphName="grave" x="-14" y="14" flags="0x4"/>
    </TTGlyph>
    <TTGlyph name="agrave.sc" xMin="21" yMin="0" xMax="594" yMax="850">
      <component glyphName="a.sc" x="0" y="0" flags="0x204"/>
      <component glyphName="grave" x="75" y="43" flags="0x4"/>
    </TTGlyph>
    <TTGlyph name="amacron" xMin="49" yMin="-13" xMax="554" yMax="712">
      <component glyphName="a" x="0" y="0" flags="0x204"/>
      <component glyphName="macron" x="39" y="14" flags="0x4"/>
    </TTGlyph>
    <TTGlyph name="amacron.sc" xMin="21" yMin="0" xMax="643" yMax="741">
      <component glyphName="a.sc" x="0" y="0" flags="0x204"/>
      <component glyphName="macron" x="128" y="43" flags="0x4"/>
    </TTGlyph>
    <TTGlyph name="ampersand" xMin="55" yMin="-16" xMax="802" yMax="700">
      <contour>
        <pt x="237" y="-16" on="1"/>
        <pt x="199" y="-16" on="0"/>
        <pt x="132" y="3" on="0"/>
        <pt x="83" y="41" on="0"/>
        <pt x="55" y="100" on="0"/>
        <pt x="55" y="138" on="1"/>
        <pt x="55" y="216" on="0"/>
        <pt x="176" y="339" on="0"/>
        <pt x="298" y="408" on="1"/>
        <pt x="369" y="448" on="1"/>
        <pt x="219" y="658" on="1"/>
        <pt x="228" y="700" on="1"/>
        <pt x="725" y="700" on="1"/>
        <pt x="729" y="660" on="1"/>
        <pt x="271" y="660" on="1"/>
        <pt x="594" y="207" on="1"/>
        <pt x="612" y="221" on="0"/>
        <pt x="677" y="270" on="0"/>
        <pt x="742" y="320" on="0"/>
        <pt x="795" y="361" on="0"/>
        <pt x="801" y="366" on="1"/>
        <pt x="802" y="366" on="1"/>
        <pt x="789" y="307" on="1"/>
        <pt x="786" y="304" on="0"/>
        <pt x="744" y="272" on="0"/>
        <pt x="690" y="230" on="0"/>
        <pt x="634" y="188" on="0"/>
        <pt x="617" y="175" on="1"/>
        <pt x="741" y="0" on="1"/>
        <pt x="690" y="0" on="1"/>
        <pt x="584" y="149" on="1"/>
        <pt x="530" y="106" on="0"/>
        <pt x="438" y="44" on="0"/>
        <pt x="357" y="4" on="0"/>
        <pt x="279" y="-16" on="0"/>
      </contour>
      <contour>
        <pt x="102" y="141" on="1"/>
        <pt x="102" y="110" on="0"/>
        <pt x="125" y="66" on="0"/>
        <pt x="163" y="38" on="0"/>
        <pt x="213" y="25" on="0"/>
        <pt x="239" y="25" on="1"/>
        <pt x="276" y="25" on="0"/>
        <pt x="346" y="43" on="0"/>
        <pt x="421" y="82" on="0"/>
        <pt x="507" y="141" on="0"/>
        <pt x="561" y="181" on="1"/>
        <pt x="393" y="416" on="1"/>
        <pt x="316" y="373" on="1"/>
        <pt x="204" y="310" on="0"/>
        <pt x="102" y="202" on="0"/>
      </contour>
    </TTGlyph>
    <TTGlyph name="ampersand.sc" xMin="42" yMin="-16" xMax="696" yMax="567">
      <contour>
        <pt x="612" y="567" on="1"/>
        <pt x="616" y="530" on="1"/>
        <pt x="242" y="530" on="1"/>
        <pt x="500" y="162" on="1"/>
        <pt x="515" y="172" on="0"/>
        <pt x="575" y="215" on="0"/>
        <pt x="638" y="258" on="0"/>
        <pt x="689" y="294" on="0"/>
        <pt x="695" y="298" on="1"/>
        <pt x="696" y="298" on="1"/>
        <pt x="684" y="242" on="1"/>
        <pt x="681" y="241" on="0"/>
        <pt x="640" y="212" on="0"/>
        <pt x="588" y="176" on="0"/>
        <pt x="536" y="139" on="0"/>
        <pt x="522" y="130" on="1"/>
        <pt x="615" y="0" on="1"/>
        <pt x="566" y="0" on="1"/>
        <pt x="489" y="107" on="1"/>
        <pt x="395" y="44" on="0"/>
        <pt x="258" y="-16" on="0"/>
        <pt x="195" y="-16" on="1"/>
        <pt x="123" y="-16" on="0"/>
        <pt x="42" y="51" on="0"/>
        <pt x="42" y="108" on="1"/>
        <pt x="42" y="169" on="0"/>
        <pt x="144" y="272" on="0"/>
        <pt x="248" y="327" on="1"/>
        <pt x="311" y="360" on="1"/>
        <pt x="190" y="531" on="1"/>
        <pt x="198" y="567" on="1"/>
      </contour>
      <contour>
        <pt x="88" y="111" on="1"/>
        <pt x="88" y="69" on="0"/>
        <pt x="146" y="23" on="0"/>
        <pt x="198" y="23" on="1"/>
        <pt x="254" y="23" on="0"/>
        <pt x="379" y="80" on="0"/>
        <pt x="466" y="140" on="1"/>
        <pt x="333" y="329" on="1"/>
        <pt x="274" y="297" on="1"/>
        <pt x="182" y="248" on="0"/>
        <pt x="88" y="160" on="0"/>
      </contour>
    </TTGlyph>
    <TTGlyph name="aogonek" xMin="49" yMin="-289" xMax="520" yMax="537">
      <contour>
        <pt x="332" y="498" on="1"/>
        <pt x="281" y="498" on="0"/>
        <pt x="179" y="464" on="0"/>
        <pt x="134" y="433" on="1"/>
        <pt x="133" y="433" on="1"/>
        <pt x="142" y="480" on="1"/>
        <pt x="185" y="507" on="0"/>
        <pt x="284" y="537" on="0"/>
        <pt x="338" y="537" on="1"/>
        <pt x="428" y="537" on="0"/>
        <pt x="520" y="455" on="0"/>
        <pt x="520" y="388" on="1"/>
        <pt x="520" y="373" on="0"/>
        <pt x="515" y="337" on="0"/>
        <pt x="511" y="317" on="1"/>
        <pt x="444" y="0" on="1"/>
        <pt x="373" y="-60" on="1"/>
        <pt x="319" y="-106" on="0"/>
        <pt x="274" y="-168" on="0"/>
        <pt x="274" y="-197" on="1"/>
        <pt x="274" y="-223" on="0"/>
        <pt x="312" y="-252" on="0"/>
        <pt x="346" y="-252" on="1"/>
        <pt x="373" y="-252" on="0"/>
        <pt x="427" y="-234" on="0"/>
        <pt x="452" y="-218" on="1"/>
        <pt x="443" y="-260" on="1"/>
        <pt x="419" y="-274" on="0"/>
        <pt x="366" y="-289" on="0"/>
        <pt x="338" y="-289" on="1"/>
        <pt x="287" y="-289" on="0"/>
        <pt x="230" y="-244" on="0"/>
        <pt x="230" y="-205" on="1"/>
        <pt x="230" y="-165" on="0"/>
        <pt x="286" y="-88" on="0"/>
        <pt x="349" y="-36" on="1"/>
        <pt x="405" y="11" on="1"/>
        <pt x="422" y="99" on="1"/>
        <pt x="376" y="52" on="0"/>
        <pt x="263" y="-13" on="0"/>
        <pt x="194" y="-13" on="1"/>
        <pt x="125" y="-13" on="0"/>
        <pt x="49" y="56" on="0"/>
        <pt x="49" y="113" on="1"/>
        <pt x="49" y="141" on="0"/>
        <pt x="69" y="196" on="0"/>
        <pt x="93" y="221" on="1"/>
        <pt x="139" y="267" on="0"/>
        <pt x="312" y="304" on="0"/>
        <pt x="441" y="304" on="1"/>
        <pt x="464" y="304" on="1"/>
        <pt x="467" y="320" on="1"/>
        <pt x="472" y="342" on="0"/>
        <pt x="475" y="369" on="0"/>
        <pt x="475" y="385" on="1"/>
        <pt x="475" y="434" on="0"/>
        <pt x="405" y="498" on="0"/>
      </contour>
      <contour>
        <pt x="94" y="117" on="1"/>
        <pt x="94" y="74" on="0"/>
        <pt x="152" y="24" on="0"/>
        <pt x="204" y="24" on="1"/>
        <pt x="269" y="24" on="0"/>
        <pt x="380" y="94" on="0"/>
        <pt x="429" y="141" on="1"/>
        <pt x="457" y="270" on="1"/>
        <pt x="338" y="271" on="0"/>
        <pt x="170" y="241" on="0"/>
        <pt x="130" y="201" on="1"/>
        <pt x="111" y="182" on="0"/>
        <pt x="94" y="139" on="0"/>
      </contour>
    </TTGlyph>
    <TTGlyph name="aogonek.sc" xMin="21" yMin="-289" xMax="602" yMax="567">
      <contour>
        <pt x="594" y="-259" on="1"/>
        <pt x="572" y="-274" on="0"/>
        <pt x="521" y="-289" on="0"/>
        <pt x="493" y="-289" on="1"/>
        <pt x="441" y="-289" on="0"/>
        <pt x="381" y="-244" on="0"/>
        <pt x="381" y="-205" on="1"/>
        <pt x="381" y="-169" on="0"/>
        <pt x="431" y="-94" on="0"/>
        <pt x="499" y="-37" on="1"/>
        <pt x="547" y="3" on="1"/>
        <pt x="519" y="158" on="1"/>
        <pt x="170" y="158" on="1"/>
        <pt x="73" y="0" on="1"/>
        <pt x="21" y="0" on="1"/>
        <pt x="371" y="567" on="1"/>
        <pt x="486" y="567" on="1"/>
        <pt x="594" y="0" on="1"/>
        <pt x="524" y="-60" on="1"/>
        <pt x="460" y="-114" on="0"/>
        <pt x="425" y="-174" on="0"/>
        <pt x="425" y="-198" on="1"/>
        <pt x="425" y="-223" on="0"/>
        <pt x="464" y="-252" on="0"/>
        <pt x="502" y="-252" on="1"/>
        <pt x="530" y="-252" on="0"/>
        <pt x="580" y="-235" on="0"/>
        <pt x="602" y="-219" on="1"/>
      </contour>
      <contour>
        <pt x="397" y="526" on="1"/>
        <pt x="195" y="198" on="1"/>
        <pt x="511" y="198" on="1"/>
        <pt x="449" y="526" on="1"/>
      </contour>
    </TTGlyph>
    <TTGlyph name="aring" xMin="49" yMin="-13" xMax="540" yMax="898">
      <component glyphName="a" x="0" y="0" flags="0x204"/>
      <component glyphName="ring" x="-17" y="14" flags="0x4"/>
    </TTGlyph>
    <TTGlyph name="aring.sc" xMin="21" yMin="0" xMax="629" yMax="927">
      <component glyphName="a.sc" x="0" y="0" flags="0x204"/>
      <component glyphName="ring" x="72" y="43" flags="0x4"/>
    </TTGlyph>
    <TTGlyph name="aringacute" xMin="49" yMin="-13" xMax="643" yMax="1151">
      <component glyphName="a" x="0" y="0" flags="0x204"/>
      <component glyphName="ring" x="-17" y="14" flags="0x4"/>
      <component glyphName="acute" x="162" y="344" flags="0x4"/>
    </TTGlyph>
    <TTGlyph name="aringacute.sc" xMin="21" yMin="0" xMax="732" yMax="1181">
      <component glyphName="a.sc" x="0" y="0" flags="0x204"/>
      <component glyphName="ring" x="72" y="43" flags="0x4"/>
      <component glyphName="acute" x="251" y="374" flags="0x4"/>
    </TTGlyph>
    <TTGlyph name="asciicircum" xMin="121" yMin="388" xMax="586" yMax="700">
      <contour>
        <pt x="472" y="700" on="1"/>
        <pt x="586" y="388" on="1"/>
        <pt x="539" y="388" on="1"/>
        <pt x="442" y="657" on="1"/>
        <pt x="387" y="657" on="1"/>
        <pt x="177" y="388" on="1"/>
        <pt x="121" y="388" on="1"/>
        <pt x="366" y="700" on="1"/>
      </contour>
    </TTGlyph>
    <TTGlyph name="asciicircum.tab" xMin="157" yMin="388" xMax="622" yMax="700">
      <component glyphName="asciicircum" x="36" y="0" flags="0x4"/>
    </TTGlyph>
    <TTGlyph name="asciitilde" xMin="91" yMin="274" xMax="666" yMax="427">
      <contour>
        <pt x="503" y="275" on="1"/>
        <pt x="471" y="275" on="0"/>
        <pt x="412" y="301" on="0"/>
        <pt x="369" y="330" on="1"/>
        <pt x="326" y="361" on="0"/>
        <pt x="276" y="382" on="0"/>
        <pt x="250" y="382" on="1"/>
        <pt x="210" y="382" on="0"/>
        <pt x="134" y="326" on="0"/>
        <pt x="92" y="274" on="1"/>
        <pt x="91" y="274" on="1"/>
        <pt x="103" y="338" on="1"/>
        <pt x="140" y="384" on="0"/>
        <pt x="215" y="426" on="0"/>
        <pt x="254" y="426" on="1"/>
        <pt x="286" y="426" on="0"/>
        <pt x="344" y="401" on="0"/>
        <pt x="388" y="371" on="1"/>
        <pt x="431" y="342" on="0"/>
        <pt x="481" y="320" on="0"/>
        <pt x="507" y="320" on="1"/>
        <pt x="547" y="320" on="0"/>
        <pt x="624" y="376" on="0"/>
        <pt x="665" y="427" on="1"/>
        <pt x="666" y="427" on="1"/>
        <pt x="654" y="364" on="1"/>
        <pt x="617" y="318" on="0"/>
        <pt x="543" y="275" on="0"/>
      </contour>
    </TTGlyph>
    <TTGlyph name="asciitilde.tab" xMin="95" yMin="274" xMax="670" yMax="427">
      <component glyphName="asciitilde" x="4" y="0" flags="0x4"/>
    </TTGlyph>
    <TTGlyph name="asterisk" xMin="131" yMin="365" xMax="475" yMax="718">
      <contour>
        <pt x="361" y="369" on="1"/>
        <pt x="342" y="365" on="1"/>
        <pt x="301" y="504" on="1"/>
        <pt x="206" y="396" on="1"/>
        <pt x="191" y="407" on="1"/>
        <pt x="273" y="525" on="1"/>
        <pt x="131" y="532" on="1"/>
        <pt x="131" y="550" on="1"/>
        <pt x="275" y="560" on="1"/>
        <pt x="191" y="674" on="1"/>
        <pt x="205" y="686" on="1"/>
        <pt x="304" y="581" on="1"/>
        <pt x="339" y="718" on="1"/>
        <pt x="358" y="714" on="1"/>
        <pt x="339" y="573" on="1"/>
        <pt x="467" y="627" on="1"/>
        <pt x="475" y="610" on="1"/>
        <pt x="351" y="540" on="1"/>
        <pt x="475" y="475" on="1"/>
        <pt x="466" y="458" on="1"/>
        <pt x="336" y="509" on="1"/>
      </contour>
    </TTGlyph>
    <TTGlyph name="at" xMin="116" yMin="-111" xMax="1009" yMax="755">
      <contour>
        <pt x="794" y="126" on="1"/>
        <pt x="740" y="126" on="0"/>
        <pt x="681" y="172" on="0"/>
        <pt x="676" y="212" on="1"/>
        <pt x="638" y="172" on="0"/>
        <pt x="553" y="126" on="0"/>
        <pt x="502" y="126" on="1"/>
        <pt x="445" y="126" on="0"/>
        <pt x="389" y="180" on="0"/>
        <pt x="389" y="220" on="1"/>
        <pt x="389" y="242" on="0"/>
        <pt x="405" y="283" on="0"/>
        <pt x="424" y="302" on="1"/>
        <pt x="453" y="331" on="0"/>
        <pt x="577" y="365" on="0"/>
        <pt x="698" y="365" on="1"/>
        <pt x="701" y="382" on="1"/>
        <pt x="703" y="392" on="0"/>
        <pt x="706" y="410" on="0"/>
        <pt x="706" y="420" on="1"/>
        <pt x="706" y="460" on="0"/>
        <pt x="654" y="501" on="0"/>
        <pt x="605" y="501" on="1"/>
        <pt x="567" y="501" on="0"/>
        <pt x="487" y="478" on="0"/>
        <pt x="453" y="458" on="1"/>
        <pt x="452" y="458" on="1"/>
        <pt x="460" y="498" on="1"/>
        <pt x="495" y="517" on="0"/>
        <pt x="568" y="536" on="0"/>
        <pt x="610" y="536" on="1"/>
        <pt x="675" y="536" on="0"/>
        <pt x="745" y="476" on="0"/>
        <pt x="745" y="422" on="1"/>
        <pt x="745" y="413" on="0"/>
        <pt x="742" y="390" on="0"/>
        <pt x="740" y="380" on="1"/>
        <pt x="718" y="267" on="1"/>
        <pt x="716" y="257" on="0"/>
        <pt x="714" y="240" on="0"/>
        <pt x="714" y="233" on="1"/>
        <pt x="714" y="197" on="0"/>
        <pt x="755" y="159" on="0"/>
        <pt x="796" y="159" on="1"/>
        <pt x="834" y="159" on="0"/>
        <pt x="898" y="198" on="0"/>
        <pt x="944" y="267" on="0"/>
        <pt x="970" y="364" on="0"/>
        <pt x="970" y="423" on="1"/>
        <pt x="970" y="492" on="0"/>
        <pt x="920" y="602" on="0"/>
        <pt x="830" y="678" on="0"/>
        <pt x="702" y="719" on="0"/>
        <pt x="624" y="719" on="1"/>
        <pt x="511" y="719" on="0"/>
        <pt x="335" y="642" on="0"/>
        <pt x="217" y="512" on="0"/>
        <pt x="156" y="341" on="0"/>
        <pt x="156" y="247" on="1"/>
        <pt x="156" y="92" on="0"/>
        <pt x="355" y="-75" on="0"/>
        <pt x="534" y="-75" on="1"/>
        <pt x="610" y="-75" on="0"/>
        <pt x="746" y="-44" on="0"/>
        <pt x="812" y="-13" on="1"/>
        <pt x="804" y="-55" on="1"/>
        <pt x="745" y="-81" on="0"/>
        <pt x="605" y="-111" on="0"/>
        <pt x="533" y="-111" on="1"/>
        <pt x="436" y="-111" on="0"/>
        <pt x="281" y="-64" on="0"/>
        <pt x="173" y="26" on="0"/>
        <pt x="116" y="159" on="0"/>
        <pt x="116" y="244" on="1"/>
        <pt x="116" y="345" on="0"/>
        <pt x="182" y="531" on="0"/>
        <pt x="310" y="671" on="0"/>
        <pt x="501" y="755" on="0"/>
        <pt x="625" y="755" on="1"/>
        <pt x="711" y="755" on="0"/>
        <pt x="854" y="709" on="0"/>
        <pt x="954" y="624" on="0"/>
        <pt x="1009" y="500" on="0"/>
        <pt x="1009" y="424" on="1"/>
        <pt x="1009" y="360" on="0"/>
        <pt x="979" y="250" on="0"/>
        <pt x="923" y="171" on="0"/>
        <pt x="843" y="126" on="0"/>
      </contour>
      <contour>
        <pt x="511" y="160" on="1"/>
        <pt x="558" y="160" on="0"/>
        <pt x="631" y="205" on="0"/>
        <pt x="673" y="245" on="1"/>
        <pt x="691" y="335" on="1"/>
        <pt x="592" y="335" on="0"/>
        <pt x="480" y="308" on="0"/>
        <pt x="455" y="283" on="1"/>
        <pt x="442" y="270" on="0"/>
        <pt x="430" y="240" on="0"/>
        <pt x="430" y="224" on="1"/>
        <pt x="430" y="196" on="0"/>
        <pt x="468" y="160" on="0"/>
      </contour>
    </TTGlyph>
    <TTGlyph name="at.cap" xMin="122" yMin="-83" xMax="1015" yMax="783">
      <component glyphName="at" x="6" y="28" flags="0x4"/>
    </TTGlyph>
    <TTGlyph name="atilde" xMin="49" yMin="-13" xMax="568" yMax="767">
      <component glyphName="a" x="0" y="0" flags="0x204"/>
      <component glyphName="tilde" x="39" y="14" flags="0x4"/>
    </TTGlyph>
    <TTGlyph name="atilde.sc" xMin="21" yMin="0" xMax="657" yMax="796">
      <component glyphName="a.sc" x="0" y="0" flags="0x204"/>
      <component glyphName="tilde" x="128" y="43" flags="0x4"/>
    </TTGlyph>
    <TTGlyph name="b" xMin="67" yMin="-13" xMax="582" yMax="742">
      <contour>
        <pt x="260" y="742" on="1"/>
        <pt x="195" y="434" on="1"/>
        <pt x="237" y="478" on="0"/>
        <pt x="341" y="537" on="0"/>
        <pt x="401" y="537" on="1"/>
        <pt x="439" y="537" on="0"/>
        <pt x="505" y="511" on="0"/>
        <pt x="554" y="461" on="0"/>
        <pt x="582" y="386" on="0"/>
        <pt x="582" y="337" on="1"/>
        <pt x="582" y="268" on="0"/>
        <pt x="540" y="141" on="0"/>
        <pt x="462" y="45" on="0"/>
        <pt x="351" y="-13" on="0"/>
        <pt x="283" y="-13" on="1"/>
        <pt x="236" y="-13" on="0"/>
        <pt x="149" y="14" on="0"/>
        <pt x="107" y="41" on="1"/>
        <pt x="67" y="41" on="1"/>
        <pt x="215" y="742" on="1"/>
      </contour>
      <contour>
        <pt x="283" y="26" on="1"/>
        <pt x="341" y="26" on="0"/>
        <pt x="435" y="78" on="0"/>
        <pt x="501" y="164" on="0"/>
        <pt x="536" y="274" on="0"/>
        <pt x="536" y="332" on="1"/>
        <pt x="536" y="413" on="0"/>
        <pt x="453" y="498" on="0"/>
        <pt x="390" y="498" on="1"/>
        <pt x="333" y="498" on="0"/>
        <pt x="228" y="435" on="0"/>
        <pt x="186" y="388" on="1"/>
        <pt x="121" y="84" on="1"/>
        <pt x="158" y="55" on="0"/>
        <pt x="240" y="26" on="0"/>
      </contour>
    </TTGlyph>
    <TTGlyph name="b.sc" xMin="77" yMin="0" xMax="645" yMax="567">
      <contour>
        <pt x="77" y="0" on="1"/>
        <pt x="197" y="567" on="1"/>
        <pt x="470" y="567" on="1"/>
        <pt x="554" y="567" on="0"/>
        <pt x="645" y="500" on="0"/>
        <pt x="645" y="439" on="1"/>
        <pt x="645" y="382" on="0"/>
        <pt x="564" y="301" on="0"/>
        <pt x="498" y="290" on="1"/>
        <pt x="547" y="279" on="0"/>
        <pt x="606" y="214" on="0"/>
        <pt x="606" y="170" on="1"/>
        <pt x="606" y="92" on="0"/>
        <pt x="487" y="0" on="0"/>
        <pt x="367" y="0" on="1"/>
      </contour>
      <contour>
        <pt x="189" y="311" on="1"/>
        <pt x="437" y="311" on="1"/>
        <pt x="509" y="311" on="0"/>
        <pt x="600" y="377" on="0"/>
        <pt x="600" y="431" on="1"/>
        <pt x="600" y="479" on="0"/>
        <pt x="529" y="527" on="0"/>
        <pt x="466" y="527" on="1"/>
        <pt x="234" y="527" on="1"/>
      </contour>
      <contour>
        <pt x="180" y="273" on="1"/>
        <pt x="131" y="40" on="1"/>
        <pt x="370" y="40" on="1"/>
        <pt x="470" y="40" on="0"/>
        <pt x="560" y="112" on="0"/>
        <pt x="560" y="172" on="1"/>
        <pt x="560" y="217" on="0"/>
        <pt x="487" y="273" on="0"/>
        <pt x="418" y="273" on="1"/>
      </contour>
    </TTGlyph>
    <TTGlyph name="backslash" xMin="170" yMin="-182" xMax="328" yMax="742">
      <contour>
        <pt x="328" y="-182" on="1"/>
        <pt x="286" y="-182" on="1"/>
        <pt x="170" y="742" on="1"/>
        <pt x="212" y="742" on="1"/>
      </contour>
    </TTGlyph>
    <TTGlyph name="backslash.cap" xMin="191" yMin="-112" xMax="349" yMax="812">
      <component glyphName="backslash" x="21" y="70" flags="0x4"/>
    </TTGlyph>
    <TTGlyph name="bar" xMin="142" yMin="-182" xMax="382" yMax="742">
      <contour>
        <pt x="185" y="-182" on="1"/>
        <pt x="142" y="-182" on="1"/>
        <pt x="338" y="742" on="1"/>
        <pt x="382" y="742" on="1"/>
      </contour>
    </TTGlyph>
    <TTGlyph name="bar.cap" xMin="157" yMin="-112" xMax="397" yMax="812">
      <component glyphName="bar" x="15" y="70" flags="0x4"/>
    </TTGlyph>
    <TTGlyph name="bar.tab" xMin="81" yMin="-112" xMax="321" yMax="812">
      <component glyphName="bar.cap" x="-76" y="0" flags="0x4"/>
    </TTGlyph>
    <TTGlyph name="braceleft" xMin="49" yMin="-191" xMax="523" yMax="751">
      <contour>
        <pt x="49" y="290" on="1"/>
        <pt x="51" y="298" on="1"/>
        <pt x="214" y="405" on="1"/>
        <pt x="228" y="553" on="1"/>
        <pt x="236" y="646" on="0"/>
        <pt x="328" y="751" on="0"/>
        <pt x="409" y="751" on="1"/>
        <pt x="442" y="751" on="0"/>
        <pt x="494" y="739" on="0"/>
        <pt x="523" y="726" on="1"/>
        <pt x="514" y="685" on="1"/>
        <pt x="513" y="685" on="1"/>
        <pt x="489" y="698" on="0"/>
        <pt x="440" y="711" on="0"/>
        <pt x="412" y="711" on="1"/>
        <pt x="350" y="711" on="0"/>
        <pt x="279" y="627" on="0"/>
        <pt x="272" y="548" on="1"/>
        <pt x="257" y="384" on="1"/>
        <pt x="105" y="287" on="1"/>
        <pt x="212" y="171" on="1"/>
        <pt x="165" y="44" on="1"/>
        <pt x="154" y="16" on="0"/>
        <pt x="142" y="-34" on="0"/>
        <pt x="142" y="-56" on="1"/>
        <pt x="142" y="-107" on="0"/>
        <pt x="209" y="-151" on="0"/>
        <pt x="257" y="-151" on="1"/>
        <pt x="279" y="-151" on="0"/>
        <pt x="319" y="-144" on="0"/>
        <pt x="344" y="-139" on="1"/>
        <pt x="345" y="-139" on="1"/>
        <pt x="336" y="-179" on="1"/>
        <pt x="312" y="-186" on="0"/>
        <pt x="266" y="-191" on="0"/>
        <pt x="246" y="-191" on="1"/>
        <pt x="181" y="-191" on="0"/>
        <pt x="97" y="-127" on="0"/>
        <pt x="97" y="-62" on="1"/>
        <pt x="97" y="-35" on="0"/>
        <pt x="112" y="23" on="0"/>
        <pt x="125" y="56" on="1"/>
        <pt x="165" y="163" on="1"/>
      </contour>
    </TTGlyph>
    <TTGlyph name="braceleft.cap" xMin="64" yMin="-121" xMax="538" yMax="821">
      <component glyphName="braceleft" x="15" y="70" flags="0x4"/>
    </TTGlyph>
    <TTGlyph name="braceright" xMin="-3" yMin="-191" xMax="471" yMax="751">
      <contour>
        <pt x="471" y="270" on="1"/>
        <pt x="469" y="262" on="1"/>
        <pt x="306" y="155" on="1"/>
        <pt x="292" y="7" on="1"/>
        <pt x="284" y="-86" on="0"/>
        <pt x="192" y="-191" on="0"/>
        <pt x="111" y="-191" on="1"/>
        <pt x="78" y="-191" on="0"/>
        <pt x="26" y="-179" on="0"/>
        <pt x="-3" y="-166" on="1"/>
        <pt x="6" y="-125" on="1"/>
        <pt x="7" y="-125" on="1"/>
        <pt x="31" y="-138" on="0"/>
        <pt x="80" y="-151" on="0"/>
        <pt x="108" y="-151" on="1"/>
        <pt x="170" y="-151" on="0"/>
        <pt x="241" y="-67" on="0"/>
        <pt x="248" y="12" on="1"/>
        <pt x="263" y="176" on="1"/>
        <pt x="415" y="273" on="1"/>
        <pt x="308" y="389" on="1"/>
        <pt x="355" y="516" on="1"/>
        <pt x="366" y="544" on="0"/>
        <pt x="378" y="594" on="0"/>
        <pt x="378" y="616" on="1"/>
        <pt x="378" y="667" on="0"/>
        <pt x="311" y="711" on="0"/>
        <pt x="263" y="711" on="1"/>
        <pt x="241" y="711" on="0"/>
        <pt x="201" y="704" on="0"/>
        <pt x="176" y="699" on="1"/>
        <pt x="175" y="699" on="1"/>
        <pt x="184" y="739" on="1"/>
        <pt x="208" y="746" on="0"/>
        <pt x="254" y="751" on="0"/>
        <pt x="274" y="751" on="1"/>
        <pt x="339" y="751" on="0"/>
        <pt x="423" y="687" on="0"/>
        <pt x="423" y="622" on="1"/>
        <pt x="423" y="595" on="0"/>
        <pt x="408" y="537" on="0"/>
        <pt x="395" y="504" on="1"/>
        <pt x="355" y="397" on="1"/>
      </contour>
    </TTGlyph>
    <TTGlyph name="braceright.cap" xMin="12" yMin="-121" xMax="486" yMax="821">
      <component glyphName="braceright" x="15" y="70" flags="0x4"/>
    </TTGlyph>
    <TTGlyph name="bracketleft" xMin="28" yMin="-182" xMax="460" yMax="742">
      <contour>
        <pt x="28" y="-182" on="1"/>
        <pt x="224" y="742" on="1"/>
        <pt x="460" y="742" on="1"/>
        <pt x="452" y="704" on="1"/>
        <pt x="260" y="704" on="1"/>
        <pt x="80" y="-144" on="1"/>
        <pt x="272" y="-144" on="1"/>
        <pt x="264" y="-182" on="1"/>
      </contour>
    </TTGlyph>
    <TTGlyph name="bracketleft.cap" xMin="43" yMin="-112" xMax="475" yMax="812">
      <component glyphName="bracketleft" x="15" y="70" flags="0x4"/>
    </TTGlyph>
    <TTGlyph name="bracketright" xMin="-12" yMin="-182" xMax="420" yMax="742">
      <contour>
        <pt x="420" y="742" on="1"/>
        <pt x="224" y="-182" on="1"/>
        <pt x="-12" y="-182" on="1"/>
        <pt x="-4" y="-144" on="1"/>
        <pt x="188" y="-144" on="1"/>
        <pt x="368" y="704" on="1"/>
        <pt x="176" y="704" on="1"/>
        <pt x="184" y="742" on="1"/>
      </contour>
    </TTGlyph>
    <TTGlyph name="bracketright.cap" xMin="3" yMin="-112" xMax="435" yMax="812">
      <component glyphName="bracketright" x="15" y="70" flags="0x4"/>
    </TTGlyph>
    <TTGlyph name="breve" xMin="191" yMin="633" xMax="522" yMax="811">
      <contour>
        <pt x="208" y="811" on="1"/>
        <pt x="245" y="811" on="1"/>
        <pt x="236" y="790" on="0"/>
        <pt x="230" y="760" on="0"/>
        <pt x="230" y="750" on="1"/>
        <pt x="230" y="712" on="0"/>
        <pt x="290" y="669" on="0"/>
        <pt x="339" y="669" on="1"/>
        <pt x="403" y="669" on="0"/>
        <pt x="482" y="740" on="0"/>
        <pt x="482" y="807" on="1"/>
        <pt x="482" y="811" on="1"/>
        <pt x="522" y="811" on="1"/>
        <pt x="522" y="803" on="1"/>
        <pt x="522" y="725" on="0"/>
        <pt x="421" y="633" on="0"/>
        <pt x="337" y="633" on="1"/>
        <pt x="271" y="633" on="0"/>
        <pt x="191" y="692" on="0"/>
        <pt x="191" y="743" on="1"/>
        <pt x="191" y="759" on="0"/>
        <pt x="199" y="793" on="0"/>
      </contour>
    </TTGlyph>
    <TTGlyph name="bullet" xMin="119" yMin="243" xMax="270" yMax="385">
      <contour>
        <pt x="119" y="306" on="1"/>
        <pt x="119" y="337" on="0"/>
        <pt x="162" y="385" on="0"/>
        <pt x="202" y="385" on="1"/>
        <pt x="233" y="385" on="0"/>
        <pt x="270" y="350" on="0"/>
        <pt x="270" y="322" on="1"/>
        <pt x="270" y="289" on="0"/>
        <pt x="227" y="243" on="0"/>
        <pt x="188" y="243" on="1"/>
        <pt x="157" y="243" on="0"/>
        <pt x="119" y="278" on="0"/>
      </contour>
    </TTGlyph>
    <TTGlyph name="bullet.cap" xMin="127" yMin="279" xMax="278" yMax="421">
      <component glyphName="bullet" x="8" y="36" flags="0x4"/>
    </TTGlyph>
    <TTGlyph name="c" xMin="64" yMin="-12" xMax="533" yMax="536">
      <contour>
        <pt x="110" y="210" on="1"/>
        <pt x="110" y="121" on="0"/>
        <pt x="209" y="27" on="0"/>
        <pt x="291" y="27" on="1"/>
        <pt x="330" y="27" on="0"/>
        <pt x="415" y="51" on="0"/>
        <pt x="462" y="82" on="1"/>
        <pt x="463" y="82" on="1"/>
        <pt x="453" y="36" on="1"/>
        <pt x="407" y="8" on="0"/>
        <pt x="323" y="-12" on="0"/>
        <pt x="287" y="-12" on="1"/>
        <pt x="186" y="-12" on="0"/>
        <pt x="64" y="103" on="0"/>
        <pt x="64" y="206" on="1"/>
        <pt x="64" y="273" on="0"/>
        <pt x="106" y="394" on="0"/>
        <pt x="182" y="483" on="0"/>
        <pt x="289" y="536" on="0"/>
        <pt x="354" y="536" on="1"/>
        <pt x="418" y="536" on="0"/>
        <pt x="506" y="491" on="0"/>
        <pt x="533" y="463" on="1"/>
        <pt x="523" y="419" on="1"/>
        <pt x="522" y="419" on="1"/>
        <pt x="494" y="450" on="0"/>
        <pt x="415" y="496" on="0"/>
        <pt x="355" y="496" on="1"/>
        <pt x="301" y="496" on="0"/>
        <pt x="210" y="451" on="0"/>
        <pt x="146" y="373" on="0"/>
        <pt x="110" y="269" on="0"/>
      </contour>
    </TTGlyph>
    <TTGlyph name="c.sc" xMin="84" yMin="-11" xMax="639" yMax="578">
      <contour>
        <pt x="419" y="578" on="1"/>
        <pt x="489" y="578" on="0"/>
        <pt x="602" y="532" on="0"/>
        <pt x="639" y="498" on="1"/>
        <pt x="628" y="453" on="1"/>
        <pt x="627" y="453" on="1"/>
        <pt x="587" y="493" on="0"/>
        <pt x="480" y="537" on="0"/>
        <pt x="420" y="537" on="1"/>
        <pt x="354" y="537" on="0"/>
        <pt x="246" y="489" on="0"/>
        <pt x="171" y="408" on="0"/>
        <pt x="130" y="300" on="0"/>
        <pt x="130" y="241" on="1"/>
        <pt x="130" y="146" on="0"/>
        <pt x="249" y="30" on="0"/>
        <pt x="353" y="30" on="1"/>
        <pt x="410" y="30" on="0"/>
        <pt x="515" y="62" on="0"/>
        <pt x="559" y="86" on="1"/>
        <pt x="560" y="86" on="1"/>
        <pt x="549" y="37" on="1"/>
        <pt x="512" y="18" on="0"/>
        <pt x="409" y="-11" on="0"/>
        <pt x="347" y="-11" on="1"/>
        <pt x="225" y="-11" on="0"/>
        <pt x="84" y="127" on="0"/>
        <pt x="84" y="237" on="1"/>
        <pt x="84" y="303" on="0"/>
        <pt x="130" y="427" on="0"/>
        <pt x="216" y="521" on="0"/>
        <pt x="341" y="578" on="0"/>
      </contour>
    </TTGlyph>
    <TTGlyph name="cacute" xMin="64" yMin="-12" xMax="619" yMax="819">
      <component glyphName="c" x="0" y="0" flags="0x204"/>
      <component glyphName="acute" x="138" y="12" flags="0x4"/>
    </TTGlyph>
    <TTGlyph name="cacute.sc" xMin="84" yMin="-11" xMax="677" yMax="861">
      <component glyphName="c.sc" x="0" y="0" flags="0x204"/>
      <component glyphName="acute" x="196" y="54" flags="0x4"/>
    </TTGlyph>
    <TTGlyph name="caron" xMin="185" yMin="643" xMax="548" yMax="810">
      <contour>
        <pt x="548" y="810" on="1"/>
        <pt x="373" y="643" on="1"/>
        <pt x="290" y="643" on="1"/>
        <pt x="185" y="810" on="1"/>
        <pt x="231" y="810" on="1"/>
        <pt x="315" y="677" on="1"/>
        <pt x="355" y="677" on="1"/>
        <pt x="495" y="810" on="1"/>
      </contour>
    </TTGlyph>
    <TTGlyph name="caron.alt" xMin="266" yMin="620" xMax="350" yMax="789">
      <contour>
        <pt x="266" y="620" on="1"/>
        <pt x="302" y="789" on="1"/>
        <pt x="350" y="789" on="1"/>
        <pt x="350" y="786" on="1"/>
        <pt x="294" y="620" on="1"/>
      </contour>
    </TTGlyph>
    <TTGlyph name="ccaron" xMin="64" yMin="-12" xMax="634" yMax="822">
      <component glyphName="c" x="0" y="0" flags="0x204"/>
      <component glyphName="caron" x="86" y="12" flags="0x4"/>
    </TTGlyph>
    <TTGlyph name="ccaron.sc" xMin="84" yMin="-11" xMax="692" yMax="864">
      <component glyphName="c.sc" x="0" y="0" flags="0x204"/>
      <component glyphName="caron" x="144" y="54" flags="0x4"/>
    </TTGlyph>
    <TTGlyph name="ccedilla" xMin="64" yMin="-193" xMax="533" yMax="536">
      <contour>
        <pt x="110" y="210" on="1"/>
        <pt x="110" y="121" on="0"/>
        <pt x="209" y="27" on="0"/>
        <pt x="291" y="27" on="1"/>
        <pt x="330" y="27" on="0"/>
        <pt x="415" y="51" on="0"/>
        <pt x="462" y="82" on="1"/>
        <pt x="463" y="82" on="1"/>
        <pt x="453" y="36" on="1"/>
        <pt x="413" y="11" on="0"/>
        <pt x="337" y="-10" on="0"/>
        <pt x="304" y="-12" on="1"/>
        <pt x="138" y="-193" on="1"/>
        <pt x="75" y="-193" on="1"/>
        <pt x="75" y="-191" on="1"/>
        <pt x="262" y="-11" on="1"/>
        <pt x="171" y="-4" on="0"/>
        <pt x="64" y="110" on="0"/>
        <pt x="64" y="206" on="1"/>
        <pt x="64" y="273" on="0"/>
        <pt x="106" y="394" on="0"/>
        <pt x="182" y="483" on="0"/>
        <pt x="289" y="536" on="0"/>
        <pt x="354" y="536" on="1"/>
        <pt x="418" y="536" on="0"/>
        <pt x="506" y="491" on="0"/>
        <pt x="533" y="463" on="1"/>
        <pt x="523" y="419" on="1"/>
        <pt x="522" y="419" on="1"/>
        <pt x="494" y="450" on="0"/>
        <pt x="415" y="496" on="0"/>
        <pt x="355" y="496" on="1"/>
        <pt x="301" y="496" on="0"/>
        <pt x="210" y="451" on="0"/>
        <pt x="146" y="373" on="0"/>
        <pt x="110" y="269" on="0"/>
      </contour>
    </TTGlyph>
    <TTGlyph name="ccedilla.sc" xMin="84" yMin="-193" xMax="639" yMax="578">
      <contour>
        <pt x="419" y="578" on="1"/>
        <pt x="489" y="578" on="0"/>
        <pt x="602" y="532" on="0"/>
        <pt x="639" y="498" on="1"/>
        <pt x="628" y="453" on="1"/>
        <pt x="627" y="453" on="1"/>
        <pt x="587" y="493" on="0"/>
        <pt x="480" y="537" on="0"/>
        <pt x="420" y="537" on="1"/>
        <pt x="354" y="537" on="0"/>
        <pt x="246" y="489" on="0"/>
        <pt x="171" y="408" on="0"/>
        <pt x="130" y="300" on="0"/>
        <pt x="130" y="241" on="1"/>
        <pt x="130" y="146" on="0"/>
        <pt x="249" y="30" on="0"/>
        <pt x="353" y="30" on="1"/>
        <pt x="410" y="30" on="0"/>
        <pt x="515" y="62" on="0"/>
        <pt x="559" y="86" on="1"/>
        <pt x="560" y="86" on="1"/>
        <pt x="549" y="37" on="1"/>
        <pt x="515" y="20" on="0"/>
        <pt x="424" y="-8" on="0"/>
        <pt x="370" y="-10" on="1"/>
        <pt x="203" y="-193" on="1"/>
        <pt x="140" y="-193" on="1"/>
        <pt x="140" y="-191" on="1"/>
        <pt x="327" y="-10" on="1"/>
        <pt x="214" y="-5" on="0"/>
        <pt x="84" y="131" on="0"/>
        <pt x="84" y="237" on="1"/>
        <pt x="84" y="303" on="0"/>
        <pt x="130" y="427" on="0"/>
        <pt x="216" y="521" on="0"/>
        <pt x="341" y="578" on="0"/>
      </contour>
    </TTGlyph>
    <TTGlyph name="cdotaccent" xMin="64" yMin="-12" xMax="533" yMax="728">
      <component glyphName="c" x="0" y="0" flags="0x204"/>
      <component glyphName="dotaccent" x="85" y="12" flags="0x4"/>
    </TTGlyph>
    <TTGlyph name="cdotaccent.sc" xMin="84" yMin="-11" xMax="639" yMax="770">
      <component glyphName="c.sc" x="0" y="0" flags="0x204"/>
      <component glyphName="dotaccent" x="143" y="54" flags="0x4"/>
    </TTGlyph>
    <TTGlyph name="cedilla" xMin="11" yMin="-195" xMax="245" yMax="-8">
      <contour>
        <pt x="245" y="-8" on="1"/>
        <pt x="74" y="-195" on="1"/>
        <pt x="11" y="-195" on="1"/>
        <pt x="11" y="-193" on="1"/>
        <pt x="203" y="-8" on="1"/>
      </contour>
    </TTGlyph>
    <TTGlyph name="cent" xMin="96" yMin="-31" xMax="530" yMax="708">
      <contour>
        <pt x="239" y="-31" on="1"/>
        <pt x="270" y="114" on="1"/>
        <pt x="195" y="124" on="0"/>
        <pt x="96" y="227" on="0"/>
        <pt x="96" y="312" on="1"/>
        <pt x="96" y="367" on="0"/>
        <pt x="134" y="468" on="0"/>
        <pt x="203" y="543" on="0"/>
        <pt x="303" y="588" on="0"/>
        <pt x="363" y="588" on="1"/>
        <pt x="364" y="588" on="0"/>
        <pt x="367" y="588" on="0"/>
        <pt x="368" y="588" on="1"/>
        <pt x="394" y="708" on="1"/>
        <pt x="436" y="708" on="1"/>
        <pt x="410" y="584" on="1"/>
        <pt x="448" y="577" on="0"/>
        <pt x="512" y="544" on="0"/>
        <pt x="530" y="525" on="1"/>
        <pt x="522" y="482" on="1"/>
        <pt x="521" y="482" on="1"/>
        <pt x="496" y="510" on="0"/>
        <pt x="412" y="548" on="0"/>
        <pt x="363" y="548" on="1"/>
        <pt x="313" y="548" on="0"/>
        <pt x="230" y="510" on="0"/>
        <pt x="172" y="447" on="0"/>
        <pt x="141" y="362" on="0"/>
        <pt x="141" y="316" on="1"/>
        <pt x="141" y="275" on="0"/>
        <pt x="168" y="212" on="0"/>
        <pt x="215" y="171" on="0"/>
        <pt x="278" y="151" on="0"/>
        <pt x="313" y="151" on="1"/>
        <pt x="354" y="151" on="0"/>
        <pt x="429" y="172" on="0"/>
        <pt x="470" y="199" on="1"/>
        <pt x="471" y="199" on="1"/>
        <pt x="461" y="153" on="1"/>
        <pt x="423" y="130" on="0"/>
        <pt x="348" y="112" on="0"/>
        <pt x="311" y="112" on="1"/>
        <pt x="281" y="-26" on="1"/>
      </contour>
    </TTGlyph>
    <TTGlyph name="cent.tab" xMin="168" yMin="-31" xMax="613" yMax="708">
      <contour>
        <pt x="316" y="-31" on="1"/>
        <pt x="347" y="114" on="1"/>
        <pt x="269" y="124" on="0"/>
        <pt x="169" y="228" on="0"/>
        <pt x="168" y="313" on="1"/>
        <pt x="168" y="368" on="0"/>
        <pt x="207" y="469" on="0"/>
        <pt x="278" y="544" on="0"/>
        <pt x="379" y="588" on="0"/>
        <pt x="441" y="588" on="1"/>
        <pt x="442" y="588" on="0"/>
        <pt x="445" y="588" on="0"/>
        <pt x="446" y="588" on="1"/>
        <pt x="471" y="708" on="1"/>
        <pt x="513" y="708" on="1"/>
        <pt x="487" y="584" on="1"/>
        <pt x="527" y="577" on="0"/>
        <pt x="594" y="543" on="0"/>
        <pt x="613" y="524" on="1"/>
        <pt x="605" y="482" on="1"/>
        <pt x="604" y="482" on="1"/>
        <pt x="578" y="509" on="0"/>
        <pt x="491" y="548" on="0"/>
        <pt x="440" y="548" on="1"/>
        <pt x="389" y="548" on="0"/>
        <pt x="305" y="510" on="0"/>
        <pt x="246" y="447" on="0"/>
        <pt x="213" y="362" on="0"/>
        <pt x="213" y="316" on="1"/>
        <pt x="213" y="275" on="0"/>
        <pt x="241" y="212" on="0"/>
        <pt x="290" y="171" on="0"/>
        <pt x="354" y="151" on="0"/>
        <pt x="390" y="151" on="1"/>
        <pt x="433" y="151" on="0"/>
        <pt x="510" y="172" on="0"/>
        <pt x="552" y="198" on="1"/>
        <pt x="553" y="198" on="1"/>
        <pt x="543" y="152" on="1"/>
        <pt x="504" y="130" on="0"/>
        <pt x="427" y="112" on="0"/>
        <pt x="388" y="112" on="1"/>
        <pt x="359" y="-26" on="1"/>
      </contour>
    </TTGlyph>
    <TTGlyph name="circle.checked" xMin="126" yMin="-46" xMax="952" yMax="746">
      <contour>
        <pt x="539" y="-46" on="1"/>
        <pt x="445" y="-46" on="0"/>
        <pt x="291" y="11" on="0"/>
        <pt x="184" y="113" on="0"/>
        <pt x="126" y="260" on="0"/>
        <pt x="126" y="350" on="1"/>
        <pt x="126" y="439" on="0"/>
        <pt x="184" y="586" on="0"/>
        <pt x="291" y="689" on="0"/>
        <pt x="445" y="746" on="0"/>
        <pt x="539" y="746" on="1"/>
        <pt x="634" y="746" on="0"/>
        <pt x="787" y="689" on="0"/>
        <pt x="894" y="587" on="0"/>
        <pt x="952" y="440" on="0"/>
        <pt x="952" y="350" on="1"/>
        <pt x="952" y="261" on="0"/>
        <pt x="894" y="114" on="0"/>
        <pt x="787" y="11" on="0"/>
        <pt x="633" y="-46" on="0"/>
      </contour>
      <contour>
        <pt x="539" y="-3" on="1"/>
        <pt x="623" y="-3" on="0"/>
        <pt x="758" y="47" on="0"/>
        <pt x="852" y="139" on="0"/>
        <pt x="903" y="270" on="0"/>
        <pt x="903" y="350" on="1"/>
        <pt x="903" y="430" on="0"/>
        <pt x="852" y="561" on="0"/>
        <pt x="758" y="653" on="0"/>
        <pt x="623" y="703" on="0"/>
        <pt x="539" y="703" on="1"/>
        <pt x="455" y="703" on="0"/>
        <pt x="320" y="653" on="0"/>
        <pt x="226" y="561" on="0"/>
        <pt x="175" y="430" on="0"/>
        <pt x="175" y="350" on="1"/>
        <pt x="175" y="270" on="0"/>
        <pt x="226" y="139" on="0"/>
        <pt x="320" y="47" on="0"/>
        <pt x="455" y="-3" on="0"/>
      </contour>
      <contour>
        <pt x="539" y="186" on="1"/>
        <pt x="463" y="186" on="0"/>
        <pt x="375" y="275" on="0"/>
        <pt x="375" y="350" on="1"/>
        <pt x="375" y="425" on="0"/>
        <pt x="463" y="514" on="0"/>
        <pt x="539" y="514" on="1"/>
        <pt x="617" y="514" on="0"/>
        <pt x="703" y="425" on="0"/>
        <pt x="703" y="350" on="1"/>
        <pt x="703" y="275" on="0"/>
        <pt x="617" y="186" on="0"/>
      </contour>
    </TTGlyph>
    <TTGlyph name="circle.half" xMin="126" yMin="-46" xMax="952" yMax="746">
      <contour>
        <pt x="539" y="-46" on="1"/>
        <pt x="445" y="-46" on="0"/>
        <pt x="291" y="11" on="0"/>
        <pt x="184" y="113" on="0"/>
        <pt x="126" y="260" on="0"/>
        <pt x="126" y="350" on="1"/>
        <pt x="126" y="439" on="0"/>
        <pt x="184" y="586" on="0"/>
        <pt x="291" y="689" on="0"/>
        <pt x="445" y="746" on="0"/>
        <pt x="539" y="746" on="1"/>
        <pt x="634" y="746" on="0"/>
        <pt x="787" y="689" on="0"/>
        <pt x="894" y="587" on="0"/>
        <pt x="952" y="440" on="0"/>
        <pt x="952" y="350" on="1"/>
        <pt x="952" y="261" on="0"/>
        <pt x="894" y="114" on="0"/>
        <pt x="787" y="11" on="0"/>
        <pt x="633" y="-46" on="0"/>
      </contour>
      <contour>
        <pt x="539" y="-3" on="1"/>
        <pt x="623" y="-3" on="0"/>
        <pt x="758" y="47" on="0"/>
        <pt x="852" y="139" on="0"/>
        <pt x="903" y="270" on="0"/>
        <pt x="903" y="350" on="1"/>
        <pt x="903" y="430" on="0"/>
        <pt x="852" y="561" on="0"/>
        <pt x="758" y="653" on="0"/>
        <pt x="623" y="703" on="0"/>
        <pt x="539" y="703" on="1"/>
      </contour>
    </TTGlyph>
    <TTGlyph name="circle.open" xMin="126" yMin="-46" xMax="952" yMax="746">
      <contour>
        <pt x="539" y="-46" on="1"/>
        <pt x="445" y="-46" on="0"/>
        <pt x="291" y="11" on="0"/>
        <pt x="184" y="113" on="0"/>
        <pt x="126" y="260" on="0"/>
        <pt x="126" y="350" on="1"/>
        <pt x="126" y="439" on="0"/>
        <pt x="184" y="586" on="0"/>
        <pt x="291" y="689" on="0"/>
        <pt x="445" y="746" on="0"/>
        <pt x="539" y="746" on="1"/>
        <pt x="634" y="746" on="0"/>
        <pt x="787" y="689" on="0"/>
        <pt x="894" y="587" on="0"/>
        <pt x="952" y="440" on="0"/>
        <pt x="952" y="350" on="1"/>
        <pt x="952" y="261" on="0"/>
        <pt x="894" y="114" on="0"/>
        <pt x="787" y="11" on="0"/>
        <pt x="633" y="-46" on="0"/>
      </contour>
      <contour>
        <pt x="539" y="-3" on="1"/>
        <pt x="623" y="-3" on="0"/>
        <pt x="758" y="47" on="0"/>
        <pt x="852" y="139" on="0"/>
        <pt x="903" y="270" on="0"/>
        <pt x="903" y="350" on="1"/>
        <pt x="903" y="430" on="0"/>
        <pt x="852" y="561" on="0"/>
        <pt x="758" y="653" on="0"/>
        <pt x="623" y="703" on="0"/>
        <pt x="539" y="703" on="1"/>
        <pt x="455" y="703" on="0"/>
        <pt x="320" y="653" on="0"/>
        <pt x="226" y="561" on="0"/>
        <pt x="175" y="430" on="0"/>
        <pt x="175" y="350" on="1"/>
        <pt x="175" y="270" on="0"/>
        <pt x="226" y="139" on="0"/>
        <pt x="320" y="47" on="0"/>
        <pt x="455" y="-3" on="0"/>
      </contour>
    </TTGlyph>
    <TTGlyph name="circle.solid" xMin="126" yMin="-46" xMax="952" yMax="746">
      <contour>
        <pt x="539" y="-46" on="1"/>
        <pt x="445" y="-46" on="0"/>
        <pt x="291" y="11" on="0"/>
        <pt x="184" y="113" on="0"/>
        <pt x="126" y="260" on="0"/>
        <pt x="126" y="350" on="1"/>
        <pt x="126" y="439" on="0"/>
        <pt x="184" y="586" on="0"/>
        <pt x="291" y="689" on="0"/>
        <pt x="445" y="746" on="0"/>
        <pt x="539" y="746" on="1"/>
        <pt x="634" y="746" on="0"/>
        <pt x="787" y="689" on="0"/>
        <pt x="894" y="587" on="0"/>
        <pt x="952" y="440" on="0"/>
        <pt x="952" y="350" on="1"/>
        <pt x="952" y="261" on="0"/>
        <pt x="894" y="114" on="0"/>
        <pt x="787" y="11" on="0"/>
        <pt x="633" y="-46" on="0"/>
      </contour>
    </TTGlyph>
    <TTGlyph name="circumflex" xMin="151" yMin="643" xMax="514" yMax="810">
      <contour>
        <pt x="151" y="643" on="1"/>
        <pt x="327" y="810" on="1"/>
        <pt x="410" y="810" on="1"/>
        <pt x="514" y="643" on="1"/>
        <pt x="468" y="643" on="1"/>
        <pt x="384" y="776" on="1"/>
        <pt x="344" y="776" on="1"/>
        <pt x="204" y="643" on="1"/>
      </contour>
    </TTGlyph>
    <TTGlyph name="colon" xMin="65" yMin="-13" xMax="228" yMax="426">
      <component glyphName="period" x="0" y="0" flags="0x204"/>
      <component glyphName="period" x="76" y="359" flags="0x4"/>
    </TTGlyph>
    <TTGlyph name="colon.fig" xMin="95" yMin="130" xMax="258" yMax="569">
      <component glyphName="colon" x="30" y="143" flags="0x4"/>
    </TTGlyph>
    <TTGlyph name="colon.tab" xMin="89" yMin="-13" xMax="252" yMax="426">
      <component glyphName="colon" x="24" y="0" flags="0x4"/>
    </TTGlyph>
    <TTGlyph name="colonmonetary" xMin="119" yMin="-114" xMax="824" yMax="805">
      <contour>
        <pt x="193" y="-112" on="1"/>
        <pt x="153" y="-114" on="1"/>
        <pt x="236" y="60" on="1"/>
        <pt x="180" y="98" on="0"/>
        <pt x="119" y="221" on="0"/>
        <pt x="119" y="299" on="1"/>
        <pt x="119" y="382" on="0"/>
        <pt x="177" y="528" on="0"/>
        <pt x="279" y="635" on="0"/>
        <pt x="424" y="697" on="0"/>
        <pt x="511" y="697" on="1"/>
        <pt x="518" y="697" on="0"/>
        <pt x="534" y="697" on="0"/>
        <pt x="542" y="696" on="1"/>
        <pt x="594" y="805" on="1"/>
        <pt x="634" y="805" on="1"/>
        <pt x="580" y="691" on="1"/>
        <pt x="614" y="686" on="0"/>
        <pt x="682" y="665" on="0"/>
        <pt x="710" y="649" on="1"/>
        <pt x="784" y="805" on="1"/>
        <pt x="824" y="805" on="1"/>
        <pt x="457" y="42" on="1"/>
        <pt x="506" y="43" on="0"/>
        <pt x="591" y="64" on="0"/>
        <pt x="631" y="79" on="1"/>
        <pt x="632" y="79" on="1"/>
        <pt x="624" y="36" on="1"/>
        <pt x="582" y="20" on="0"/>
        <pt x="492" y="3" on="0"/>
        <pt x="443" y="3" on="1"/>
        <pt x="442" y="3" on="0"/>
        <pt x="439" y="3" on="0"/>
        <pt x="438" y="3" on="1"/>
        <pt x="387" y="-104" on="1"/>
        <pt x="348" y="-107" on="1"/>
        <pt x="401" y="5" on="1"/>
        <pt x="363" y="8" on="0"/>
        <pt x="295" y="27" on="0"/>
        <pt x="266" y="42" on="1"/>
      </contour>
      <contour>
        <pt x="163" y="302" on="1"/>
        <pt x="163" y="236" on="0"/>
        <pt x="211" y="132" on="0"/>
        <pt x="255" y="99" on="1"/>
        <pt x="523" y="656" on="1"/>
        <pt x="520" y="657" on="0"/>
        <pt x="514" y="657" on="0"/>
        <pt x="510" y="657" on="1"/>
        <pt x="435" y="657" on="0"/>
        <pt x="307" y="602" on="0"/>
        <pt x="215" y="507" on="0"/>
        <pt x="163" y="377" on="0"/>
      </contour>
      <contour>
        <pt x="285" y="80" on="1"/>
        <pt x="313" y="64" on="0"/>
        <pt x="381" y="45" on="0"/>
        <pt x="420" y="43" on="1"/>
        <pt x="693" y="611" on="1"/>
        <pt x="667" y="625" on="0"/>
        <pt x="597" y="647" on="0"/>
        <pt x="560" y="652" on="1"/>
      </contour>
    </TTGlyph>
    <TTGlyph name="comma" xMin="-14" yMin="-171" xMax="174" yMax="97">
      <contour>
        <pt x="108" y="97" on="1"/>
        <pt x="174" y="97" on="1"/>
        <pt x="174" y="95" on="1"/>
        <pt x="21" y="-171" on="1"/>
        <pt x="-14" y="-171" on="1"/>
      </contour>
    </TTGlyph>
    <TTGlyph name="comma.tab" xMin="25" yMin="-171" xMax="213" yMax="97">
      <component glyphName="comma" x="39" y="0" flags="0x4"/>
    </TTGlyph>
    <TTGlyph name="copyright" xMin="90" yMin="-45" xMax="929" yMax="745">
      <contour>
        <pt x="510" y="-45" on="1"/>
        <pt x="414" y="-45" on="0"/>
        <pt x="258" y="11" on="0"/>
        <pt x="149" y="114" on="0"/>
        <pt x="90" y="260" on="0"/>
        <pt x="90" y="350" on="1"/>
        <pt x="90" y="440" on="0"/>
        <pt x="149" y="586" on="0"/>
        <pt x="258" y="689" on="0"/>
        <pt x="414" y="745" on="0"/>
        <pt x="510" y="745" on="1"/>
        <pt x="606" y="745" on="0"/>
        <pt x="761" y="689" on="0"/>
        <pt x="870" y="586" on="0"/>
        <pt x="929" y="440" on="0"/>
        <pt x="929" y="350" on="1"/>
        <pt x="929" y="260" on="0"/>
        <pt x="870" y="114" on="0"/>
        <pt x="761" y="11" on="0"/>
        <pt x="606" y="-45" on="0"/>
      </contour>
      <contour>
        <pt x="510" y="-10" on="1"/>
        <pt x="597" y="-10" on="0"/>
        <pt x="738" y="41" on="0"/>
        <pt x="836" y="135" on="0"/>
        <pt x="889" y="269" on="0"/>
        <pt x="889" y="350" on="1"/>
        <pt x="889" y="431" on="0"/>
        <pt x="836" y="565" on="0"/>
        <pt x="738" y="659" on="0"/>
        <pt x="597" y="710" on="0"/>
        <pt x="510" y="710" on="1"/>
        <pt x="423" y="710" on="0"/>
        <pt x="282" y="659" on="0"/>
        <pt x="183" y="565" on="0"/>
        <pt x="130" y="431" on="0"/>
        <pt x="130" y="350" on="1"/>
        <pt x="130" y="269" on="0"/>
        <pt x="183" y="135" on="0"/>
        <pt x="282" y="41" on="0"/>
        <pt x="423" y="-10" on="0"/>
      </contour>
      <contour>
        <pt x="522" y="165" on="1"/>
        <pt x="429" y="165" on="0"/>
        <pt x="324" y="271" on="0"/>
        <pt x="324" y="352" on="1"/>
        <pt x="324" y="392" on="0"/>
        <pt x="353" y="462" on="0"/>
        <pt x="405" y="514" on="0"/>
        <pt x="479" y="543" on="0"/>
        <pt x="524" y="543" on="1"/>
        <pt x="566" y="543" on="0"/>
        <pt x="639" y="517" on="0"/>
        <pt x="667" y="495" on="1"/>
        <pt x="667" y="456" on="1"/>
        <pt x="666" y="456" on="1"/>
        <pt x="637" y="480" on="0"/>
        <pt x="565" y="508" on="0"/>
        <pt x="525" y="508" on="1"/>
        <pt x="453" y="508" on="0"/>
        <pt x="363" y="419" on="0"/>
        <pt x="363" y="352" on="1"/>
        <pt x="363" y="284" on="0"/>
        <pt x="450" y="199" on="0"/>
        <pt x="525" y="199" on="1"/>
        <pt x="571" y="199" on="0"/>
        <pt x="639" y="229" on="0"/>
        <pt x="668" y="253" on="1"/>
        <pt x="669" y="253" on="1"/>
        <pt x="669" y="214" on="1"/>
        <pt x="641" y="192" on="0"/>
        <pt x="569" y="165" on="0"/>
      </contour>
    </TTGlyph>
    <TTGlyph name="d" xMin="61" yMin="-13" xMax="634" yMax="742">
      <contour>
        <pt x="243" y="-13" on="1"/>
        <pt x="205" y="-13" on="0"/>
        <pt x="138" y="12" on="0"/>
        <pt x="89" y="62" on="0"/>
        <pt x="61" y="137" on="0"/>
        <pt x="61" y="187" on="1"/>
        <pt x="61" y="256" on="0"/>
        <pt x="103" y="383" on="0"/>
        <pt x="179" y="479" on="0"/>
        <pt x="286" y="537" on="0"/>
        <pt x="349" y="537" on="1"/>
        <pt x="410" y="537" on="0"/>
        <pt x="500" y="485" on="0"/>
        <pt x="526" y="445" on="1"/>
        <pt x="589" y="742" on="1"/>
        <pt x="634" y="742" on="1"/>
        <pt x="477" y="0" on="1"/>
        <pt x="432" y="0" on="1"/>
        <pt x="454" y="97" on="1"/>
        <pt x="409" y="48" on="0"/>
        <pt x="304" y="-13" on="0"/>
      </contour>
      <contour>
        <pt x="254" y="26" on="1"/>
        <pt x="311" y="26" on="0"/>
        <pt x="415" y="89" on="0"/>
        <pt x="462" y="143" on="1"/>
        <pt x="517" y="401" on="1"/>
        <pt x="493" y="444" on="0"/>
        <pt x="408" y="498" on="0"/>
        <pt x="350" y="498" on="1"/>
        <pt x="295" y="498" on="0"/>
        <pt x="205" y="446" on="0"/>
        <pt x="142" y="361" on="0"/>
        <pt x="107" y="251" on="0"/>
        <pt x="107" y="192" on="1"/>
        <pt x="107" y="110" on="0"/>
        <pt x="190" y="26" on="0"/>
      </contour>
    </TTGlyph>
    <TTGlyph name="d.sc" xMin="77" yMin="0" xMax="664" yMax="567">
      <contour>
        <pt x="77" y="0" on="1"/>
        <pt x="197" y="567" on="1"/>
        <pt x="400" y="567" on="1"/>
        <pt x="469" y="567" on="0"/>
        <pt x="569" y="531" on="0"/>
        <pt x="633" y="467" on="0"/>
        <pt x="664" y="380" on="0"/>
        <pt x="664" y="329" on="1"/>
        <pt x="664" y="261" on="0"/>
        <pt x="617" y="141" on="0"/>
        <pt x="524" y="52" on="0"/>
        <pt x="384" y="0" on="0"/>
        <pt x="292" y="0" on="1"/>
      </contour>
      <contour>
        <pt x="618" y="326" on="1"/>
        <pt x="618" y="416" on="0"/>
        <pt x="511" y="527" on="0"/>
        <pt x="394" y="527" on="1"/>
        <pt x="235" y="527" on="1"/>
        <pt x="131" y="40" on="1"/>
        <pt x="297" y="40" on="1"/>
        <pt x="378" y="40" on="0"/>
        <pt x="500" y="87" on="0"/>
        <pt x="579" y="165" on="0"/>
        <pt x="618" y="269" on="0"/>
      </contour>
    </TTGlyph>
    <TTGlyph name="dagger" xMin="153" yMin="232" xMax="516" yMax="724">
      <contour>
        <pt x="246" y="232" on="1"/>
        <pt x="312" y="540" on="1"/>
        <pt x="153" y="540" on="1"/>
        <pt x="169" y="576" on="1"/>
        <pt x="319" y="576" on="1"/>
        <pt x="351" y="724" on="1"/>
        <pt x="393" y="724" on="1"/>
        <pt x="361" y="576" on="1"/>
        <pt x="516" y="576" on="1"/>
        <pt x="509" y="540" on="1"/>
        <pt x="354" y="540" on="1"/>
        <pt x="288" y="232" on="1"/>
      </contour>
    </TTGlyph>
    <TTGlyph name="daggerdbl" xMin="113" yMin="182" xMax="516" yMax="724">
      <contour>
        <pt x="236" y="182" on="1"/>
        <pt x="267" y="330" on="1"/>
        <pt x="113" y="330" on="1"/>
        <pt x="121" y="366" on="1"/>
        <pt x="275" y="366" on="1"/>
        <pt x="312" y="540" on="1"/>
        <pt x="153" y="540" on="1"/>
        <pt x="169" y="576" on="1"/>
        <pt x="320" y="576" on="1"/>
        <pt x="351" y="724" on="1"/>
        <pt x="393" y="724" on="1"/>
        <pt x="361" y="576" on="1"/>
        <pt x="516" y="576" on="1"/>
        <pt x="509" y="540" on="1"/>
        <pt x="354" y="540" on="1"/>
        <pt x="316" y="366" on="1"/>
        <pt x="476" y="366" on="1"/>
        <pt x="461" y="330" on="1"/>
        <pt x="309" y="330" on="1"/>
        <pt x="277" y="182" on="1"/>
      </contour>
    </TTGlyph>
    <TTGlyph name="dcaron" xMin="61" yMin="-13" xMax="794" yMax="742">
      <component glyphName="d" x="0" y="0" flags="0x204"/>
      <component glyphName="caron.alt" x="444" y="-47" flags="0x4"/>
    </TTGlyph>
    <TTGlyph name="dcaron.sc" xMin="77" yMin="0" xMax="664" yMax="853">
      <component glyphName="d.sc" x="0" y="0" flags="0x204"/>
      <component glyphName="caron" x="90" y="43" flags="0x4"/>
    </TTGlyph>
    <TTGlyph name="dcroat" xMin="59" yMin="-13" xMax="706" yMax="742">
      <contour>
        <pt x="240" y="-13" on="1"/>
        <pt x="164" y="-13" on="0"/>
        <pt x="59" y="86" on="0"/>
        <pt x="59" y="184" on="1"/>
        <pt x="59" y="247" on="0"/>
        <pt x="101" y="364" on="0"/>
        <pt x="176" y="453" on="0"/>
        <pt x="282" y="507" on="0"/>
        <pt x="346" y="507" on="1"/>
        <pt x="405" y="507" on="0"/>
        <pt x="492" y="467" on="0"/>
        <pt x="520" y="435" on="1"/>
        <pt x="556" y="607" on="1"/>
        <pt x="354" y="607" on="1"/>
        <pt x="361" y="640" on="1"/>
        <pt x="563" y="640" on="1"/>
        <pt x="585" y="742" on="1"/>
        <pt x="630" y="742" on="1"/>
        <pt x="608" y="640" on="1"/>
        <pt x="700" y="640" on="1"/>
        <pt x="706" y="607" on="1"/>
        <pt x="601" y="607" on="1"/>
        <pt x="473" y="0" on="1"/>
        <pt x="428" y="0" on="1"/>
        <pt x="450" y="97" on="1"/>
        <pt x="406" y="49" on="0"/>
        <pt x="301" y="-12" on="0"/>
      </contour>
      <contour>
        <pt x="251" y="26" on="1"/>
        <pt x="307" y="26" on="0"/>
        <pt x="411" y="88" on="0"/>
        <pt x="458" y="142" on="1"/>
        <pt x="511" y="391" on="1"/>
        <pt x="484" y="425" on="0"/>
        <pt x="401" y="468" on="0"/>
        <pt x="347" y="468" on="1"/>
        <pt x="291" y="468" on="0"/>
        <pt x="201" y="420" on="0"/>
        <pt x="139" y="342" on="0"/>
        <pt x="105" y="242" on="0"/>
        <pt x="105" y="190" on="1"/>
        <pt x="105" y="109" on="0"/>
        <pt x="187" y="26" on="0"/>
      </contour>
    </TTGlyph>
    <TTGlyph name="dcroat.sc" xMin="62" yMin="0" xMax="702" yMax="567">
      <component glyphName="eth.sc" x="0" y="0" flags="0x204"/>
    </TTGlyph>
    <TTGlyph name="degree" xMin="127" yMin="333" xMax="525" yMax="714">
      <contour>
        <pt x="344" y="714" on="1"/>
        <pt x="427" y="714" on="0"/>
        <pt x="525" y="620" on="0"/>
        <pt x="525" y="543" on="1"/>
        <pt x="525" y="499" on="0"/>
        <pt x="494" y="422" on="0"/>
        <pt x="437" y="366" on="0"/>
        <pt x="357" y="333" on="0"/>
        <pt x="308" y="333" on="1"/>
        <pt x="225" y="333" on="0"/>
        <pt x="127" y="428" on="0"/>
        <pt x="127" y="505" on="1"/>
        <pt x="127" y="549" on="0"/>
        <pt x="158" y="625" on="0"/>
        <pt x="215" y="681" on="0"/>
        <pt x="295" y="714" on="0"/>
      </contour>
      <contour>
        <pt x="310" y="370" on="1"/>
        <pt x="386" y="370" on="0"/>
        <pt x="483" y="468" on="0"/>
        <pt x="483" y="541" on="1"/>
        <pt x="483" y="597" on="0"/>
        <pt x="411" y="678" on="0"/>
        <pt x="342" y="678" on="1"/>
        <pt x="266" y="678" on="0"/>
        <pt x="169" y="580" on="0"/>
        <pt x="169" y="507" on="1"/>
        <pt x="169" y="450" on="0"/>
        <pt x="241" y="370" on="0"/>
      </contour>
    </TTGlyph>
    <TTGlyph name="degree.tab" xMin="174" yMin="333" xMax="572" yMax="714">
      <component glyphName="degree" x="47" y="0" flags="0x4"/>
    </TTGlyph>
    <TTGlyph name="dieresis" xMin="180" yMin="647" xMax="499" yMax="715">
      <contour>
        <pt x="255" y="684" on="1"/>
        <pt x="255" y="669" on="0"/>
        <pt x="233" y="647" on="0"/>
        <pt x="214" y="647" on="1"/>
        <pt x="199" y="647" on="0"/>
        <pt x="180" y="664" on="0"/>
        <pt x="180" y="678" on="1"/>
        <pt x="180" y="692" on="0"/>
        <pt x="202" y="715" on="0"/>
        <pt x="221" y="715" on="1"/>
        <pt x="236" y="715" on="0"/>
        <pt x="255" y="698" on="0"/>
      </contour>
      <contour>
        <pt x="499" y="684" on="1"/>
        <pt x="499" y="669" on="0"/>
        <pt x="477" y="647" on="0"/>
        <pt x="458" y="647" on="1"/>
        <pt x="443" y="647" on="0"/>
        <pt x="424" y="664" on="0"/>
        <pt x="424" y="678" on="1"/>
        <pt x="424" y="692" on="0"/>
        <pt x="446" y="715" on="0"/>
        <pt x="465" y="715" on="1"/>
        <pt x="481" y="715" on="0"/>
        <pt x="499" y="698" on="0"/>
      </contour>
    </TTGlyph>
    <TTGlyph name="divide" xMin="123" yMin="89" xMax="679" yMax="611">
      <contour>
        <pt x="452" y="611" on="1"/>
        <pt x="468" y="611" on="0"/>
        <pt x="489" y="592" on="0"/>
        <pt x="489" y="578" on="1"/>
        <pt x="489" y="562" on="0"/>
        <pt x="465" y="536" on="0"/>
        <pt x="445" y="536" on="1"/>
        <pt x="429" y="536" on="0"/>
        <pt x="408" y="555" on="0"/>
        <pt x="408" y="570" on="1"/>
        <pt x="408" y="586" on="0"/>
        <pt x="431" y="611" on="0"/>
      </contour>
      <contour>
        <pt x="679" y="371" on="1"/>
        <pt x="671" y="330" on="1"/>
        <pt x="123" y="330" on="1"/>
        <pt x="131" y="371" on="1"/>
      </contour>
      <contour>
        <pt x="313" y="123" on="1"/>
        <pt x="313" y="139" on="0"/>
        <pt x="337" y="165" on="0"/>
        <pt x="357" y="165" on="1"/>
        <pt x="373" y="165" on="0"/>
        <pt x="395" y="146" on="0"/>
        <pt x="395" y="131" on="1"/>
        <pt x="395" y="115" on="0"/>
        <pt x="371" y="89" on="0"/>
        <pt x="351" y="89" on="1"/>
        <pt x="334" y="89" on="0"/>
        <pt x="313" y="108" on="0"/>
      </contour>
    </TTGlyph>
    <TTGlyph name="divide.tab" xMin="104" yMin="89" xMax="660" yMax="611">
      <component glyphName="divide" x="-19" y="0" flags="0x4"/>
    </TTGlyph>
    <TTGlyph name="dollar" xMin="59" yMin="-112" xMax="652" yMax="806">
      <contour>
        <pt x="69" y="158" on="1"/>
        <pt x="100" y="135" on="0"/>
        <pt x="174" y="98" on="0"/>
        <pt x="252" y="73" on="0"/>
        <pt x="331" y="59" on="0"/>
        <pt x="366" y="59" on="1"/>
        <pt x="459" y="59" on="0"/>
        <pt x="554" y="132" on="0"/>
        <pt x="554" y="191" on="1"/>
        <pt x="554" y="243" on="0"/>
        <pt x="467" y="302" on="0"/>
        <pt x="363" y="334" on="1"/>
        <pt x="256" y="367" on="0"/>
        <pt x="152" y="438" on="0"/>
        <pt x="152" y="507" on="1"/>
        <pt x="152" y="582" on="0"/>
        <pt x="274" y="681" on="0"/>
        <pt x="386" y="681" on="1"/>
        <pt x="395" y="681" on="0"/>
        <pt x="414" y="680" on="0"/>
        <pt x="423" y="679" on="1"/>
        <pt x="450" y="806" on="1"/>
        <pt x="492" y="806" on="1"/>
        <pt x="464" y="674" on="1"/>
        <pt x="514" y="666" on="0"/>
        <pt x="611" y="628" on="0"/>
        <pt x="652" y="601" on="1"/>
        <pt x="643" y="557" on="1"/>
        <pt x="642" y="557" on="1"/>
        <pt x="584" y="599" on="0"/>
        <pt x="444" y="641" on="0"/>
        <pt x="385" y="641" on="1"/>
        <pt x="301" y="641" on="0"/>
        <pt x="197" y="573" on="0"/>
        <pt x="197" y="510" on="1"/>
        <pt x="197" y="459" on="0"/>
        <pt x="288" y="403" on="0"/>
        <pt x="385" y="372" on="1"/>
        <pt x="495" y="338" on="0"/>
        <pt x="599" y="262" on="0"/>
        <pt x="599" y="193" on="1"/>
        <pt x="599" y="115" on="0"/>
        <pt x="478" y="18" on="0"/>
        <pt x="362" y="18" on="1"/>
        <pt x="352" y="18" on="0"/>
        <pt x="333" y="19" on="0"/>
        <pt x="323" y="20" on="1"/>
        <pt x="296" y="-107" on="1"/>
        <pt x="253" y="-112" on="1"/>
        <pt x="282" y="25" on="1"/>
        <pt x="221" y="35" on="0"/>
        <pt x="103" y="83" on="0"/>
        <pt x="59" y="114" on="1"/>
        <pt x="68" y="158" on="1"/>
      </contour>
    </TTGlyph>
    <TTGlyph name="dollar.tab" xMin="82" yMin="-112" xMax="661" yMax="806">
      <contour>
        <pt x="92" y="158" on="1"/>
        <pt x="121" y="135" on="0"/>
        <pt x="194" y="98" on="0"/>
        <pt x="271" y="73" on="0"/>
        <pt x="347" y="59" on="0"/>
        <pt x="381" y="59" on="1"/>
        <pt x="471" y="59" on="0"/>
        <pt x="562" y="132" on="0"/>
        <pt x="562" y="190" on="1"/>
        <pt x="562" y="243" on="0"/>
        <pt x="478" y="302" on="0"/>
        <pt x="379" y="334" on="1"/>
        <pt x="275" y="367" on="0"/>
        <pt x="175" y="439" on="0"/>
        <pt x="175" y="508" on="1"/>
        <pt x="175" y="583" on="0"/>
        <pt x="293" y="681" on="0"/>
        <pt x="402" y="681" on="1"/>
        <pt x="411" y="681" on="0"/>
        <pt x="429" y="680" on="0"/>
        <pt x="438" y="679" on="1"/>
        <pt x="465" y="806" on="1"/>
        <pt x="507" y="806" on="1"/>
        <pt x="479" y="674" on="1"/>
        <pt x="528" y="665" on="0"/>
        <pt x="621" y="628" on="0"/>
        <pt x="661" y="601" on="1"/>
        <pt x="651" y="557" on="1"/>
        <pt x="650" y="557" on="1"/>
        <pt x="593" y="599" on="0"/>
        <pt x="457" y="641" on="0"/>
        <pt x="400" y="641" on="1"/>
        <pt x="319" y="641" on="0"/>
        <pt x="219" y="573" on="0"/>
        <pt x="219" y="510" on="1"/>
        <pt x="219" y="459" on="0"/>
        <pt x="307" y="403" on="0"/>
        <pt x="401" y="372" on="1"/>
        <pt x="506" y="338" on="0"/>
        <pt x="608" y="262" on="0"/>
        <pt x="608" y="193" on="1"/>
        <pt x="608" y="115" on="0"/>
        <pt x="491" y="18" on="0"/>
        <pt x="378" y="18" on="1"/>
        <pt x="368" y="18" on="0"/>
        <pt x="348" y="19" on="0"/>
        <pt x="338" y="20" on="1"/>
        <pt x="311" y="-107" on="1"/>
        <pt x="268" y="-112" on="1"/>
        <pt x="297" y="25" on="1"/>
        <pt x="237" y="36" on="0"/>
        <pt x="124" y="83" on="0"/>
        <pt x="82" y="114" on="1"/>
        <pt x="91" y="158" on="1"/>
      </contour>
    </TTGlyph>
    <TTGlyph name="dotaccent" xMin="301" yMin="647" xMax="378" yMax="716">
      <contour>
        <pt x="301" y="678" on="1"/>
        <pt x="301" y="693" on="0"/>
        <pt x="323" y="716" on="0"/>
        <pt x="343" y="716" on="1"/>
        <pt x="359" y="716" on="0"/>
        <pt x="378" y="698" on="0"/>
        <pt x="378" y="685" on="1"/>
        <pt x="378" y="669" on="0"/>
        <pt x="355" y="647" on="0"/>
        <pt x="336" y="647" on="1"/>
        <pt x="320" y="647" on="0"/>
        <pt x="301" y="664" on="0"/>
      </contour>
    </TTGlyph>
    <TTGlyph name="dotlessi" xMin="62" yMin="0" xMax="219" yMax="524">
      <contour>
        <pt x="174" y="524" on="1"/>
        <pt x="219" y="524" on="1"/>
        <pt x="107" y="0" on="1"/>
        <pt x="62" y="0" on="1"/>
      </contour>
    </TTGlyph>
    <TTGlyph name="dotlessi.sc" xMin="78" yMin="0" xMax="245" yMax="567">
      <component glyphName="i.sc" x="0" y="0" flags="0x204"/>
    </TTGlyph>
    <TTGlyph name="dotmath" xMin="116" yMin="310" xMax="203" yMax="390">
      <component glyphName="period" x="51" y="323" flags="0x4"/>
    </TTGlyph>
    <TTGlyph name="dotmath.tab" xMin="156" yMin="310" xMax="243" yMax="390">
      <component glyphName="dotmath" x="40" y="0" flags="0x4"/>
    </TTGlyph>
    <TTGlyph name="e" xMin="65" yMin="-12" xMax="534" yMax="537">
      <contour>
        <pt x="298" y="27" on="1"/>
        <pt x="346" y="27" on="0"/>
        <pt x="443" y="58" on="0"/>
        <pt x="486" y="88" on="1"/>
        <pt x="487" y="88" on="1"/>
        <pt x="476" y="40" on="1"/>
        <pt x="436" y="15" on="0"/>
        <pt x="345" y="-12" on="0"/>
        <pt x="294" y="-12" on="1"/>
        <pt x="190" y="-12" on="0"/>
        <pt x="65" y="101" on="0"/>
        <pt x="65" y="205" on="1"/>
        <pt x="65" y="276" on="0"/>
        <pt x="110" y="399" on="0"/>
        <pt x="186" y="487" on="0"/>
        <pt x="290" y="537" on="0"/>
        <pt x="349" y="537" on="1"/>
        <pt x="436" y="537" on="0"/>
        <pt x="534" y="433" on="0"/>
        <pt x="534" y="349" on="1"/>
        <pt x="534" y="327" on="0"/>
        <pt x="528" y="286" on="0"/>
        <pt x="522" y="264" on="1"/>
        <pt x="114" y="264" on="1"/>
        <pt x="112" y="252" on="0"/>
        <pt x="110" y="227" on="0"/>
        <pt x="110" y="214" on="1"/>
        <pt x="109" y="209" on="1"/>
        <pt x="110" y="118" on="0"/>
        <pt x="214" y="27" on="0"/>
      </contour>
      <contour>
        <pt x="345" y="499" on="1"/>
        <pt x="267" y="499" on="0"/>
        <pt x="142" y="387" on="0"/>
        <pt x="120" y="297" on="1"/>
        <pt x="485" y="297" on="1"/>
        <pt x="488" y="309" on="0"/>
        <pt x="491" y="335" on="0"/>
        <pt x="491" y="351" on="1"/>
        <pt x="491" y="417" on="0"/>
        <pt x="417" y="500" on="0"/>
      </contour>
    </TTGlyph>
    <TTGlyph name="e.sc" xMin="77" yMin="0" xMax="629" yMax="567">
      <contour>
        <pt x="77" y="0" on="1"/>
        <pt x="197" y="567" on="1"/>
        <pt x="624" y="567" on="1"/>
        <pt x="629" y="527" on="1"/>
        <pt x="234" y="527" on="1"/>
        <pt x="189" y="312" on="1"/>
        <pt x="509" y="312" on="1"/>
        <pt x="501" y="273" on="1"/>
        <pt x="180" y="273" on="1"/>
        <pt x="130" y="40" on="1"/>
        <pt x="544" y="40" on="1"/>
        <pt x="528" y="0" on="1"/>
      </contour>
    </TTGlyph>
    <TTGlyph name="eacute" xMin="65" yMin="-12" xMax="581" yMax="821">
      <component glyphName="e" x="0" y="0" flags="0x204"/>
      <component glyphName="acute" x="100" y="14" flags="0x4"/>
    </TTGlyph>
    <TTGlyph name="eacute.sc" xMin="77" yMin="0" xMax="629" yMax="850">
      <component glyphName="e.sc" x="0" y="0" flags="0x204"/>
      <component glyphName="acute" x="142" y="43" flags="0x4"/>
    </TTGlyph>
    <TTGlyph name="ebreve" xMin="65" yMin="-12" xMax="569" yMax="825">
      <component glyphName="e" x="0" y="0" flags="0x204"/>
      <component glyphName="breve" x="47" y="14" flags="0x4"/>
    </TTGlyph>
    <TTGlyph name="ebreve.sc" xMin="77" yMin="0" xMax="629" yMax="854">
      <component glyphName="e.sc" x="0" y="0" flags="0x204"/>
      <component glyphName="breve" x="89" y="43" flags="0x4"/>
    </TTGlyph>
    <TTGlyph name="ecaron" xMin="65" yMin="-12" xMax="596" yMax="824">
      <component glyphName="e" x="0" y="0" flags="0x204"/>
      <component glyphName="caron" x="48" y="14" flags="0x4"/>
    </TTGlyph>
    <TTGlyph name="ecaron.sc" xMin="77" yMin="0" xMax="638" yMax="853">
      <component glyphName="e.sc" x="0" y="0" flags="0x204"/>
      <component glyphName="caron" x="90" y="43" flags="0x4"/>
    </TTGlyph>
    <TTGlyph name="ecircumflex" xMin="65" yMin="-12" xMax="561" yMax="824">
      <component glyphName="e" x="0" y="0" flags="0x204"/>
      <component glyphName="circumflex" x="47" y="14" flags="0x4"/>
    </TTGlyph>
    <TTGlyph name="ecircumflex.sc" xMin="77" yMin="0" xMax="629" yMax="853">
      <component glyphName="e.sc" x="0" y="0" flags="0x204"/>
      <component glyphName="circumflex" x="89" y="43" flags="0x4"/>
    </TTGlyph>
    <TTGlyph name="edieresis" xMin="65" yMin="-12" xMax="546" yMax="729">
      <component glyphName="e" x="0" y="0" flags="0x204"/>
      <component glyphName="dieresis" x="47" y="14" flags="0x4"/>
    </TTGlyph>
    <TTGlyph name="edieresis.sc" xMin="77" yMin="0" xMax="629" yMax="758">
      <component glyphName="e.sc" x="0" y="0" flags="0x204"/>
      <component glyphName="dieresis" x="89" y="43" flags="0x4"/>
    </TTGlyph>
    <TTGlyph name="edotaccent" xMin="65" yMin="-12" xMax="534" yMax="730">
      <component glyphName="e" x="0" y="0" flags="0x204"/>
      <component glyphName="dotaccent" x="47" y="14" flags="0x4"/>
    </TTGlyph>
    <TTGlyph name="edotaccent.sc" xMin="77" yMin="0" xMax="629" yMax="759">
      <component glyphName="e.sc" x="0" y="0" flags="0x204"/>
      <component glyphName="dotaccent" x="89" y="43" flags="0x4"/>
    </TTGlyph>
    <TTGlyph name="egrave" xMin="65" yMin="-12" xMax="534" yMax="821">
      <component glyphName="e" x="0" y="0" flags="0x204"/>
      <component glyphName="grave" x="-6" y="14" flags="0x4"/>
    </TTGlyph>
    <TTGlyph name="egrave.sc" xMin="77" yMin="0" xMax="629" yMax="850">
      <component glyphName="e.sc" x="0" y="0" flags="0x204"/>
      <component glyphName="grave" x="36" y="43" flags="0x4"/>
    </TTGlyph>
    <TTGlyph name="eight" xMin="59" yMin="-21" xMax="682" yMax="718">
      <contour>
        <pt x="338" y="-21" on="1"/>
        <pt x="204" y="-21" on="0"/>
        <pt x="59" y="81" on="0"/>
        <pt x="59" y="162" on="1"/>
        <pt x="59" y="238" on="0"/>
        <pt x="175" y="344" on="0"/>
        <pt x="281" y="359" on="1"/>
        <pt x="215" y="380" on="0"/>
        <pt x="150" y="464" on="0"/>
        <pt x="150" y="517" on="1"/>
        <pt x="150" y="559" on="0"/>
        <pt x="187" y="632" on="0"/>
        <pt x="257" y="687" on="0"/>
        <pt x="361" y="718" on="0"/>
        <pt x="427" y="718" on="1"/>
        <pt x="546" y="718" on="0"/>
        <pt x="682" y="613" on="0"/>
        <pt x="682" y="535" on="1"/>
        <pt x="682" y="496" on="0"/>
        <pt x="652" y="432" on="0"/>
        <pt x="599" y="385" on="0"/>
        <pt x="527" y="353" on="0"/>
        <pt x="485" y="346" on="1"/>
        <pt x="550" y="327" on="0"/>
        <pt x="631" y="244" on="0"/>
        <pt x="631" y="181" on="1"/>
        <pt x="631" y="136" on="0"/>
        <pt x="588" y="61" on="0"/>
        <pt x="512" y="8" on="0"/>
        <pt x="403" y="-21" on="0"/>
      </contour>
      <contour>
        <pt x="407" y="369" on="1"/>
        <pt x="455" y="369" on="0"/>
        <pt x="538" y="391" on="0"/>
        <pt x="600" y="433" on="0"/>
        <pt x="635" y="494" on="0"/>
        <pt x="635" y="532" on="1"/>
        <pt x="635" y="599" on="0"/>
        <pt x="521" y="679" on="0"/>
        <pt x="425" y="679" on="1"/>
        <pt x="377" y="679" on="0"/>
        <pt x="293" y="657" on="0"/>
        <pt x="232" y="615" on="0"/>
        <pt x="196" y="554" on="0"/>
        <pt x="196" y="516" on="1"/>
        <pt x="196" y="449" on="0"/>
        <pt x="311" y="369" on="0"/>
      </contour>
      <contour>
        <pt x="354" y="334" on="1"/>
        <pt x="243" y="334" on="0"/>
        <pt x="107" y="243" on="0"/>
        <pt x="107" y="167" on="1"/>
        <pt x="107" y="99" on="0"/>
        <pt x="229" y="19" on="0"/>
        <pt x="337" y="19" on="1"/>
        <pt x="447" y="19" on="0"/>
        <pt x="584" y="110" on="0"/>
        <pt x="584" y="185" on="1"/>
        <pt x="584" y="253" on="0"/>
        <pt x="461" y="334" on="0"/>
      </contour>
    </TTGlyph>
    <TTGlyph name="eight.den" xMin="13" yMin="-11" xMax="369" yMax="406">
      <component glyphName="eight.small" x="-18" y="0" flags="0x4"/>
    </TTGlyph>
    <TTGlyph name="eight.den_tab" xMin="-6" yMin="-11" xMax="350" yMax="406">
      <component glyphName="eight.small" x="-37" y="0" flags="0x4"/>
    </TTGlyph>
    <TTGlyph name="eight.inf" xMin="12" yMin="-193" xMax="368" yMax="224">
      <component glyphName="eight.small" x="-19" y="-182" flags="0x4"/>
    </TTGlyph>
    <TTGlyph name="eight.num" xMin="114" yMin="293" xMax="470" yMax="710">
      <component glyphName="eight.small" x="83" y="304" flags="0x4"/>
    </TTGlyph>
    <TTGlyph name="eight.num_tab" xMin="95" yMin="293" xMax="451" yMax="710">
      <component glyphName="eight.small" x="64" y="304" flags="0x4"/>
    </TTGlyph>
    <TTGlyph name="eight.osf" xMin="71" yMin="-21" xMax="657" yMax="718">
      <contour>
        <pt x="420" y="718" on="1"/>
        <pt x="530" y="718" on="0"/>
        <pt x="657" y="618" on="0"/>
        <pt x="657" y="537" on="1"/>
        <pt x="657" y="464" on="0"/>
        <pt x="555" y="361" on="0"/>
        <pt x="469" y="345" on="1"/>
        <pt x="532" y="325" on="0"/>
        <pt x="606" y="241" on="0"/>
        <pt x="606" y="182" on="1"/>
        <pt x="606" y="95" on="0"/>
        <pt x="459" y="-21" on="0"/>
        <pt x="332" y="-21" on="1"/>
        <pt x="214" y="-21" on="0"/>
        <pt x="71" y="78" on="0"/>
        <pt x="71" y="162" on="1"/>
        <pt x="71" y="241" on="0"/>
        <pt x="186" y="345" on="0"/>
        <pt x="282" y="360" on="1"/>
        <pt x="225" y="381" on="0"/>
        <pt x="161" y="459" on="0"/>
        <pt x="161" y="516" on="1"/>
        <pt x="161" y="559" on="0"/>
        <pt x="199" y="633" on="0"/>
        <pt x="266" y="687" on="0"/>
        <pt x="362" y="718" on="0"/>
      </contour>
      <contour>
        <pt x="418" y="679" on="1"/>
        <pt x="325" y="679" on="0"/>
        <pt x="207" y="587" on="0"/>
        <pt x="207" y="515" on="1"/>
        <pt x="207" y="447" on="0"/>
        <pt x="314" y="369" on="0"/>
        <pt x="400" y="369" on="1"/>
        <pt x="493" y="369" on="0"/>
        <pt x="612" y="462" on="0"/>
        <pt x="612" y="534" on="1"/>
        <pt x="612" y="602" on="0"/>
        <pt x="505" y="679" on="0"/>
      </contour>
      <contour>
        <pt x="334" y="18" on="1"/>
        <pt x="435" y="18" on="0"/>
        <pt x="560" y="110" on="0"/>
        <pt x="560" y="185" on="1"/>
        <pt x="560" y="253" on="0"/>
        <pt x="442" y="334" on="0"/>
        <pt x="343" y="334" on="1"/>
        <pt x="244" y="334" on="0"/>
        <pt x="117" y="242" on="0"/>
        <pt x="117" y="167" on="1"/>
        <pt x="117" y="99" on="0"/>
        <pt x="235" y="18" on="0"/>
      </contour>
    </TTGlyph>
    <TTGlyph name="eight.small" xMin="31" yMin="-11" xMax="387" yMax="406">
      <contour>
        <pt x="190" y="-11" on="1"/>
        <pt x="113" y="-11" on="0"/>
        <pt x="31" y="46" on="0"/>
        <pt x="31" y="92" on="1"/>
        <pt x="31" y="135" on="0"/>
        <pt x="97" y="196" on="0"/>
        <pt x="154" y="204" on="1"/>
        <pt x="119" y="215" on="0"/>
        <pt x="82" y="262" on="0"/>
        <pt x="82" y="292" on="1"/>
        <pt x="82" y="339" on="0"/>
        <pt x="164" y="406" on="0"/>
        <pt x="242" y="406" on="1"/>
        <pt x="311" y="406" on="0"/>
        <pt x="387" y="347" on="0"/>
        <pt x="387" y="302" on="1"/>
        <pt x="387" y="258" on="0"/>
        <pt x="325" y="204" on="0"/>
        <pt x="279" y="196" on="1"/>
        <pt x="314" y="185" on="0"/>
        <pt x="358" y="138" on="0"/>
        <pt x="358" y="104" on="1"/>
        <pt x="358" y="53" on="0"/>
        <pt x="268" y="-11" on="0"/>
      </contour>
      <contour>
        <pt x="229" y="214" on="1"/>
        <pt x="280" y="214" on="0"/>
        <pt x="349" y="259" on="0"/>
        <pt x="349" y="298" on="1"/>
        <pt x="349" y="333" on="0"/>
        <pt x="290" y="374" on="0"/>
        <pt x="239" y="374" on="1"/>
        <pt x="188" y="374" on="0"/>
        <pt x="120" y="329" on="0"/>
        <pt x="120" y="290" on="1"/>
        <pt x="120" y="256" on="0"/>
        <pt x="179" y="214" on="0"/>
      </contour>
      <contour>
        <pt x="199" y="184" on="1"/>
        <pt x="140" y="184" on="0"/>
        <pt x="70" y="138" on="0"/>
        <pt x="70" y="98" on="1"/>
        <pt x="70" y="63" on="0"/>
        <pt x="133" y="21" on="0"/>
        <pt x="190" y="21" on="1"/>
        <pt x="249" y="21" on="0"/>
        <pt x="320" y="68" on="0"/>
        <pt x="320" y="107" on="1"/>
        <pt x="320" y="143" on="0"/>
        <pt x="256" y="184" on="0"/>
      </contour>
    </TTGlyph>
    <TTGlyph name="eight.sup" xMin="127" yMin="345" xMax="483" yMax="762">
      <component glyphName="eight.small" x="96" y="356" flags="0x4"/>
    </TTGlyph>
    <TTGlyph name="eight.tab" xMin="69" yMin="-21" xMax="685" yMax="718">
      <contour>
        <pt x="344" y="-21" on="1"/>
        <pt x="213" y="-21" on="0"/>
        <pt x="69" y="81" on="0"/>
        <pt x="69" y="162" on="1"/>
        <pt x="69" y="239" on="0"/>
        <pt x="184" y="344" on="0"/>
        <pt x="288" y="359" on="1"/>
        <pt x="225" y="380" on="0"/>
        <pt x="160" y="464" on="0"/>
        <pt x="160" y="517" on="1"/>
        <pt x="160" y="559" on="0"/>
        <pt x="196" y="632" on="0"/>
        <pt x="266" y="687" on="0"/>
        <pt x="368" y="718" on="0"/>
        <pt x="434" y="718" on="1"/>
        <pt x="551" y="718" on="0"/>
        <pt x="685" y="613" on="0"/>
        <pt x="685" y="535" on="1"/>
        <pt x="685" y="496" on="0"/>
        <pt x="655" y="432" on="0"/>
        <pt x="602" y="385" on="0"/>
        <pt x="530" y="353" on="0"/>
        <pt x="488" y="346" on="1"/>
        <pt x="553" y="327" on="0"/>
        <pt x="634" y="244" on="0"/>
        <pt x="634" y="181" on="1"/>
        <pt x="634" y="136" on="0"/>
        <pt x="592" y="61" on="0"/>
        <pt x="516" y="8" on="0"/>
        <pt x="409" y="-21" on="0"/>
      </contour>
      <contour>
        <pt x="413" y="369" on="1"/>
        <pt x="460" y="369" on="0"/>
        <pt x="543" y="391" on="0"/>
        <pt x="603" y="433" on="0"/>
        <pt x="638" y="494" on="0"/>
        <pt x="638" y="532" on="1"/>
        <pt x="638" y="599" on="0"/>
        <pt x="526" y="679" on="0"/>
        <pt x="431" y="679" on="1"/>
        <pt x="384" y="679" on="0"/>
        <pt x="302" y="657" on="0"/>
        <pt x="242" y="615" on="0"/>
        <pt x="207" y="554" on="0"/>
        <pt x="207" y="516" on="1"/>
        <pt x="207" y="449" on="0"/>
        <pt x="319" y="369" on="0"/>
      </contour>
      <contour>
        <pt x="360" y="334" on="1"/>
        <pt x="251" y="334" on="0"/>
        <pt x="117" y="243" on="0"/>
        <pt x="117" y="167" on="1"/>
        <pt x="117" y="99" on="0"/>
        <pt x="237" y="19" on="0"/>
        <pt x="343" y="19" on="1"/>
        <pt x="453" y="19" on="0"/>
        <pt x="587" y="110" on="0"/>
        <pt x="587" y="185" on="1"/>
        <pt x="587" y="253" on="0"/>
        <pt x="467" y="334" on="0"/>
      </contour>
    </TTGlyph>
    <TTGlyph name="ellipsis" xMin="65" yMin="-13" xMax="792" yMax="67">
      <contour>
        <pt x="65" y="23" on="1"/>
        <pt x="65" y="40" on="0"/>
        <pt x="91" y="67" on="0"/>
        <pt x="113" y="67" on="1"/>
        <pt x="131" y="67" on="0"/>
        <pt x="152" y="47" on="0"/>
        <pt x="152" y="31" on="1"/>
        <pt x="152" y="14" on="0"/>
        <pt x="127" y="-13" on="0"/>
        <pt x="105" y="-13" on="1"/>
        <pt x="87" y="-13" on="0"/>
        <pt x="65" y="7" on="0"/>
      </contour>
      <contour>
        <pt x="385" y="23" on="1"/>
        <pt x="385" y="40" on="0"/>
        <pt x="411" y="67" on="0"/>
        <pt x="433" y="67" on="1"/>
        <pt x="451" y="67" on="0"/>
        <pt x="472" y="47" on="0"/>
        <pt x="472" y="31" on="1"/>
        <pt x="472" y="14" on="0"/>
        <pt x="447" y="-13" on="0"/>
        <pt x="425" y="-13" on="1"/>
        <pt x="407" y="-13" on="0"/>
        <pt x="385" y="7" on="0"/>
      </contour>
      <contour>
        <pt x="705" y="23" on="1"/>
        <pt x="705" y="40" on="0"/>
        <pt x="731" y="67" on="0"/>
        <pt x="753" y="67" on="1"/>
        <pt x="771" y="67" on="0"/>
        <pt x="792" y="47" on="0"/>
        <pt x="792" y="31" on="1"/>
        <pt x="792" y="14" on="0"/>
        <pt x="767" y="-13" on="0"/>
        <pt x="745" y="-13" on="1"/>
        <pt x="727" y="-13" on="0"/>
        <pt x="705" y="7" on="0"/>
      </contour>
    </TTGlyph>
    <TTGlyph name="emacron" xMin="65" yMin="-12" xMax="562" yMax="712">
      <component glyphName="e" x="0" y="0" flags="0x204"/>
      <component glyphName="macron" x="47" y="14" flags="0x4"/>
    </TTGlyph>
    <TTGlyph name="emacron.sc" xMin="77" yMin="0" xMax="629" yMax="741">
      <component glyphName="e.sc" x="0" y="0" flags="0x204"/>
      <component glyphName="macron" x="89" y="43" flags="0x4"/>
    </TTGlyph>
    <TTGlyph name="emdash" xMin="85" yMin="294" xMax="796" yMax="336">
      <contour>
        <pt x="85" y="294" on="1"/>
        <pt x="94" y="336" on="1"/>
        <pt x="796" y="336" on="1"/>
        <pt x="787" y="294" on="1"/>
      </contour>
    </TTGlyph>
    <TTGlyph name="emdash.cap" xMin="93" yMin="329" xMax="804" yMax="371">
      <component glyphName="emdash" x="8" y="35" flags="0x4"/>
    </TTGlyph>
    <TTGlyph name="endash" xMin="85" yMin="294" xMax="630" yMax="336">
      <contour>
        <pt x="85" y="294" on="1"/>
        <pt x="94" y="336" on="1"/>
        <pt x="630" y="336" on="1"/>
        <pt x="621" y="294" on="1"/>
      </contour>
    </TTGlyph>
    <TTGlyph name="endash.cap" xMin="93" yMin="329" xMax="638" yMax="371">
      <component glyphName="endash" x="8" y="35" flags="0x4"/>
    </TTGlyph>
    <TTGlyph name="endash.tab" xMin="99" yMin="329" xMax="664" yMax="371">
      <contour>
        <pt x="99" y="329" on="1"/>
        <pt x="108" y="371" on="1"/>
        <pt x="664" y="371" on="1"/>
        <pt x="655" y="329" on="1"/>
      </contour>
    </TTGlyph>
    <TTGlyph name="eogonek" xMin="65" yMin="-289" xMax="534" yMax="537">
      <contour>
        <pt x="298" y="27" on="1"/>
        <pt x="346" y="27" on="0"/>
        <pt x="443" y="58" on="0"/>
        <pt x="486" y="88" on="1"/>
        <pt x="487" y="88" on="1"/>
        <pt x="476" y="40" on="1"/>
        <pt x="361" y="-59" on="1"/>
        <pt x="307" y="-106" on="0"/>
        <pt x="262" y="-168" on="0"/>
        <pt x="262" y="-197" on="1"/>
        <pt x="262" y="-223" on="0"/>
        <pt x="300" y="-252" on="0"/>
        <pt x="334" y="-252" on="1"/>
        <pt x="362" y="-252" on="0"/>
        <pt x="416" y="-234" on="0"/>
        <pt x="440" y="-218" on="1"/>
        <pt x="432" y="-260" on="1"/>
        <pt x="408" y="-274" on="0"/>
        <pt x="354" y="-289" on="0"/>
        <pt x="326" y="-289" on="1"/>
        <pt x="276" y="-289" on="0"/>
        <pt x="219" y="-244" on="0"/>
        <pt x="219" y="-205" on="1"/>
        <pt x="219" y="-165" on="0"/>
        <pt x="275" y="-88" on="0"/>
        <pt x="338" y="-37" on="1"/>
        <pt x="382" y="-1" on="1"/>
        <pt x="361" y="-6" on="0"/>
        <pt x="317" y="-12" on="0"/>
        <pt x="294" y="-12" on="1"/>
        <pt x="190" y="-12" on="0"/>
        <pt x="65" y="101" on="0"/>
        <pt x="65" y="205" on="1"/>
        <pt x="65" y="276" on="0"/>
        <pt x="110" y="399" on="0"/>
        <pt x="186" y="487" on="0"/>
        <pt x="290" y="537" on="0"/>
        <pt x="349" y="537" on="1"/>
        <pt x="436" y="537" on="0"/>
        <pt x="534" y="433" on="0"/>
        <pt x="534" y="349" on="1"/>
        <pt x="534" y="327" on="0"/>
        <pt x="528" y="286" on="0"/>
        <pt x="522" y="264" on="1"/>
        <pt x="114" y="264" on="1"/>
        <pt x="112" y="252" on="0"/>
        <pt x="110" y="227" on="0"/>
        <pt x="110" y="214" on="1"/>
        <pt x="109" y="209" on="1"/>
        <pt x="110" y="118" on="0"/>
        <pt x="214" y="27" on="0"/>
      </contour>
      <contour>
        <pt x="345" y="499" on="1"/>
        <pt x="267" y="499" on="0"/>
        <pt x="142" y="387" on="0"/>
        <pt x="120" y="297" on="1"/>
        <pt x="485" y="297" on="1"/>
        <pt x="488" y="309" on="0"/>
        <pt x="491" y="335" on="0"/>
        <pt x="491" y="351" on="1"/>
        <pt x="491" y="417" on="0"/>
        <pt x="417" y="500" on="0"/>
      </contour>
    </TTGlyph>
    <TTGlyph name="eogonek.sc" xMin="77" yMin="-289" xMax="629" yMax="567">
      <contour>
        <pt x="77" y="0" on="1"/>
        <pt x="197" y="567" on="1"/>
        <pt x="624" y="567" on="1"/>
        <pt x="629" y="527" on="1"/>
        <pt x="234" y="527" on="1"/>
        <pt x="189" y="312" on="1"/>
        <pt x="509" y="312" on="1"/>
        <pt x="501" y="273" on="1"/>
        <pt x="180" y="273" on="1"/>
        <pt x="130" y="40" on="1"/>
        <pt x="544" y="40" on="1"/>
        <pt x="528" y="0" on="1"/>
        <pt x="457" y="-60" on="1"/>
        <pt x="403" y="-106" on="0"/>
        <pt x="358" y="-168" on="0"/>
        <pt x="358" y="-197" on="1"/>
        <pt x="358" y="-223" on="0"/>
        <pt x="396" y="-252" on="0"/>
        <pt x="430" y="-252" on="1"/>
        <pt x="457" y="-252" on="0"/>
        <pt x="511" y="-234" on="0"/>
        <pt x="536" y="-218" on="1"/>
        <pt x="527" y="-260" on="1"/>
        <pt x="503" y="-274" on="0"/>
        <pt x="450" y="-289" on="0"/>
        <pt x="422" y="-289" on="1"/>
        <pt x="371" y="-289" on="0"/>
        <pt x="314" y="-244" on="0"/>
        <pt x="314" y="-205" on="1"/>
        <pt x="314" y="-165" on="0"/>
        <pt x="370" y="-88" on="0"/>
        <pt x="433" y="-36" on="1"/>
        <pt x="476" y="0" on="1"/>
      </contour>
    </TTGlyph>
    <TTGlyph name="equal" xMin="104" yMin="192" xMax="692" yMax="509">
      <contour>
        <pt x="164" y="468" on="1"/>
        <pt x="172" y="509" on="1"/>
        <pt x="692" y="509" on="1"/>
        <pt x="684" y="468" on="1"/>
      </contour>
      <contour>
        <pt x="104" y="192" on="1"/>
        <pt x="112" y="233" on="1"/>
        <pt x="632" y="233" on="1"/>
        <pt x="623" y="192" on="1"/>
      </contour>
    </TTGlyph>
    <TTGlyph name="equal.tab" xMin="88" yMin="192" xMax="676" yMax="509">
      <component glyphName="equal" x="-16" y="0" flags="0x4"/>
    </TTGlyph>
    <TTGlyph name="eth" xMin="64" yMin="-14" xMax="592" yMax="743">
      <contour>
        <pt x="564" y="316" on="1"/>
        <pt x="564" y="249" on="0"/>
        <pt x="524" y="128" on="0"/>
        <pt x="453" y="39" on="0"/>
        <pt x="352" y="-14" on="0"/>
        <pt x="290" y="-14" on="1"/>
        <pt x="190" y="-14" on="0"/>
        <pt x="64" y="106" on="0"/>
        <pt x="64" y="205" on="1"/>
        <pt x="64" y="264" on="0"/>
        <pt x="103" y="367" on="0"/>
        <pt x="171" y="442" on="0"/>
        <pt x="266" y="486" on="0"/>
        <pt x="322" y="486" on="1"/>
        <pt x="390" y="486" on="0"/>
        <pt x="496" y="417" on="0"/>
        <pt x="522" y="358" on="1"/>
        <pt x="515" y="435" on="0"/>
        <pt x="460" y="574" on="0"/>
        <pt x="402" y="636" on="1"/>
        <pt x="205" y="559" on="1"/>
        <pt x="213" y="594" on="1"/>
        <pt x="379" y="659" on="1"/>
        <pt x="357" y="680" on="0"/>
        <pt x="302" y="720" on="0"/>
        <pt x="271" y="739" on="1"/>
        <pt x="273" y="742" on="1"/>
        <pt x="325" y="742" on="1"/>
        <pt x="351" y="727" on="0"/>
        <pt x="397" y="693" on="0"/>
        <pt x="417" y="674" on="1"/>
        <pt x="592" y="743" on="1"/>
        <pt x="584" y="707" on="1"/>
        <pt x="440" y="651" on="1"/>
        <pt x="504" y="580" on="0"/>
        <pt x="564" y="405" on="0"/>
      </contour>
      <contour>
        <pt x="109" y="208" on="1"/>
        <pt x="109" y="127" on="0"/>
        <pt x="211" y="25" on="0"/>
        <pt x="292" y="25" on="1"/>
        <pt x="345" y="25" on="0"/>
        <pt x="430" y="75" on="0"/>
        <pt x="488" y="155" on="0"/>
        <pt x="519" y="255" on="0"/>
        <pt x="520" y="304" on="1"/>
        <pt x="498" y="372" on="0"/>
        <pt x="393" y="449" on="0"/>
        <pt x="328" y="449" on="1"/>
        <pt x="281" y="449" on="0"/>
        <pt x="200" y="412" on="0"/>
        <pt x="142" y="348" on="0"/>
        <pt x="109" y="259" on="0"/>
      </contour>
    </TTGlyph>
    <TTGlyph name="eth.sc" xMin="62" yMin="0" xMax="702" yMax="567">
      <contour>
        <pt x="115" y="0" on="1"/>
        <pt x="172" y="271" on="1"/>
        <pt x="62" y="271" on="1"/>
        <pt x="78" y="307" on="1"/>
        <pt x="180" y="307" on="1"/>
        <pt x="235" y="567" on="1"/>
        <pt x="439" y="567" on="1"/>
        <pt x="507" y="567" on="0"/>
        <pt x="607" y="531" on="0"/>
        <pt x="671" y="467" on="0"/>
        <pt x="702" y="380" on="0"/>
        <pt x="702" y="329" on="1"/>
        <pt x="702" y="261" on="0"/>
        <pt x="655" y="141" on="0"/>
        <pt x="562" y="52" on="0"/>
        <pt x="422" y="0" on="0"/>
        <pt x="330" y="0" on="1"/>
      </contour>
      <contour>
        <pt x="656" y="326" on="1"/>
        <pt x="656" y="416" on="0"/>
        <pt x="549" y="527" on="0"/>
        <pt x="432" y="527" on="1"/>
        <pt x="273" y="527" on="1"/>
        <pt x="226" y="307" on="1"/>
        <pt x="418" y="307" on="1"/>
        <pt x="410" y="271" on="1"/>
        <pt x="218" y="271" on="1"/>
        <pt x="169" y="40" on="1"/>
        <pt x="335" y="40" on="1"/>
        <pt x="416" y="40" on="0"/>
        <pt x="538" y="87" on="0"/>
        <pt x="617" y="165" on="0"/>
        <pt x="656" y="269" on="0"/>
      </contour>
    </TTGlyph>
    <TTGlyph name="exclam" xMin="86" yMin="-13" xMax="299" yMax="700">
      <contour>
        <pt x="145" y="206" on="1"/>
        <pt x="240" y="699" on="1"/>
        <pt x="240" y="700" on="1"/>
        <pt x="299" y="700" on="1"/>
        <pt x="299" y="699" on="1"/>
        <pt x="183" y="206" on="1"/>
      </contour>
      <contour>
        <pt x="86" y="23" on="1"/>
        <pt x="86" y="40" on="0"/>
        <pt x="112" y="67" on="0"/>
        <pt x="134" y="67" on="1"/>
        <pt x="151" y="67" on="0"/>
        <pt x="173" y="47" on="0"/>
        <pt x="173" y="31" on="1"/>
        <pt x="173" y="14" on="0"/>
        <pt x="148" y="-13" on="0"/>
        <pt x="126" y="-13" on="1"/>
        <pt x="108" y="-13" on="0"/>
        <pt x="86" y="7" on="0"/>
      </contour>
    </TTGlyph>
    <TTGlyph name="exclamdown" xMin="54" yMin="-175" xMax="267" yMax="538">
      <contour>
        <pt x="267" y="502" on="1"/>
        <pt x="267" y="485" on="0"/>
        <pt x="241" y="458" on="0"/>
        <pt x="219" y="458" on="1"/>
        <pt x="202" y="458" on="0"/>
        <pt x="180" y="478" on="0"/>
        <pt x="180" y="494" on="1"/>
        <pt x="180" y="511" on="0"/>
        <pt x="205" y="538" on="0"/>
        <pt x="227" y="538" on="1"/>
        <pt x="245" y="538" on="0"/>
        <pt x="267" y="518" on="0"/>
      </contour>
      <contour>
        <pt x="208" y="319" on="1"/>
        <pt x="113" y="-174" on="1"/>
        <pt x="113" y="-175" on="1"/>
        <pt x="54" y="-175" on="1"/>
        <pt x="54" y="-174" on="1"/>
        <pt x="170" y="319" on="1"/>
      </contour>
    </TTGlyph>
    <TTGlyph name="exclamdown.cap" xMin="91" yMin="0" xMax="304" yMax="713">
      <contour>
        <pt x="304" y="677" on="1"/>
        <pt x="304" y="660" on="0"/>
        <pt x="278" y="633" on="0"/>
        <pt x="256" y="633" on="1"/>
        <pt x="239" y="633" on="0"/>
        <pt x="217" y="653" on="0"/>
        <pt x="217" y="669" on="1"/>
        <pt x="217" y="686" on="0"/>
        <pt x="242" y="713" on="0"/>
        <pt x="264" y="713" on="1"/>
        <pt x="282" y="713" on="0"/>
        <pt x="304" y="693" on="0"/>
      </contour>
      <contour>
        <pt x="245" y="494" on="1"/>
        <pt x="150" y="1" on="1"/>
        <pt x="150" y="0" on="1"/>
        <pt x="91" y="0" on="1"/>
        <pt x="91" y="1" on="1"/>
        <pt x="207" y="494" on="1"/>
      </contour>
    </TTGlyph>
    <TTGlyph name="f" xMin="96" yMin="0" xMax="482" yMax="751">
      <contour>
        <pt x="266" y="572" on="1"/>
        <pt x="256" y="524" on="1"/>
        <pt x="443" y="524" on="1"/>
        <pt x="434" y="486" on="1"/>
        <pt x="248" y="486" on="1"/>
        <pt x="144" y="0" on="1"/>
        <pt x="99" y="0" on="1"/>
        <pt x="203" y="486" on="1"/>
        <pt x="96" y="486" on="1"/>
        <pt x="113" y="524" on="1"/>
        <pt x="211" y="524" on="1"/>
        <pt x="222" y="576" on="1"/>
        <pt x="244" y="677" on="0"/>
        <pt x="336" y="751" on="0"/>
        <pt x="392" y="751" on="1"/>
        <pt x="417" y="751" on="0"/>
        <pt x="465" y="738" on="0"/>
        <pt x="482" y="727" on="1"/>
        <pt x="472" y="689" on="1"/>
        <pt x="471" y="689" on="1"/>
        <pt x="457" y="699" on="0"/>
        <pt x="416" y="712" on="0"/>
        <pt x="394" y="712" on="1"/>
        <pt x="376" y="712" on="0"/>
        <pt x="339" y="702" on="0"/>
        <pt x="305" y="673" on="0"/>
        <pt x="275" y="617" on="0"/>
      </contour>
    </TTGlyph>
    <TTGlyph name="f.sc" xMin="77" yMin="0" xMax="617" yMax="567">
      <contour>
        <pt x="234" y="527" on="1"/>
        <pt x="188" y="308" on="1"/>
        <pt x="499" y="308" on="1"/>
        <pt x="491" y="268" on="1"/>
        <pt x="180" y="268" on="1"/>
        <pt x="122" y="0" on="1"/>
        <pt x="77" y="0" on="1"/>
        <pt x="197" y="567" on="1"/>
        <pt x="613" y="567" on="1"/>
        <pt x="617" y="527" on="1"/>
      </contour>
    </TTGlyph>
    <TTGlyph name="five" xMin="49" yMin="-16" xMax="659" yMax="700">
      <contour>
        <pt x="49" y="61" on="1"/>
        <pt x="59" y="107" on="1"/>
        <pt x="60" y="107" on="1"/>
        <pt x="123" y="67" on="0"/>
        <pt x="254" y="25" on="0"/>
        <pt x="328" y="25" on="1"/>
        <pt x="382" y="25" on="0"/>
        <pt x="469" y="54" on="0"/>
        <pt x="529" y="103" on="0"/>
        <pt x="561" y="171" on="0"/>
        <pt x="561" y="209" on="1"/>
        <pt x="561" y="284" on="0"/>
        <pt x="430" y="364" on="0"/>
        <pt x="288" y="364" on="1"/>
        <pt x="138" y="364" on="1"/>
        <pt x="219" y="700" on="1"/>
        <pt x="653" y="700" on="1"/>
        <pt x="659" y="659" on="1"/>
        <pt x="254" y="659" on="1"/>
        <pt x="192" y="405" on="1"/>
        <pt x="300" y="405" on="1"/>
        <pt x="458" y="405" on="0"/>
        <pt x="608" y="302" on="0"/>
        <pt x="608" y="213" on="1"/>
        <pt x="608" y="164" on="0"/>
        <pt x="569" y="80" on="0"/>
        <pt x="497" y="19" on="0"/>
        <pt x="391" y="-16" on="0"/>
        <pt x="325" y="-16" on="1"/>
        <pt x="247" y="-16" on="0"/>
        <pt x="112" y="24" on="0"/>
      </contour>
    </TTGlyph>
    <TTGlyph name="five.den" xMin="15" yMin="-10" xMax="367" yMax="396">
      <component glyphName="five.small" x="-18" y="0" flags="0x4"/>
    </TTGlyph>
    <TTGlyph name="five.den_tab" xMin="-4" yMin="-10" xMax="348" yMax="396">
      <component glyphName="five.small" x="-37" y="0" flags="0x4"/>
    </TTGlyph>
    <TTGlyph name="five.inf" xMin="14" yMin="-192" xMax="366" yMax="214">
      <component glyphName="five.small" x="-19" y="-182" flags="0x4"/>
    </TTGlyph>
    <TTGlyph name="five.num" xMin="116" yMin="294" xMax="468" yMax="700">
      <component glyphName="five.small" x="83" y="304" flags="0x4"/>
    </TTGlyph>
    <TTGlyph name="five.num_tab" xMin="97" yMin="294" xMax="449" yMax="700">
      <component glyphName="five.small" x="64" y="304" flags="0x4"/>
    </TTGlyph>
    <TTGlyph name="five.osf" xMin="16" yMin="-152" xMax="592" yMax="567">
      <contour>
        <pt x="16" y="-93" on="1"/>
        <pt x="25" y="-50" on="1"/>
        <pt x="26" y="-50" on="1"/>
        <pt x="77" y="-78" on="0"/>
        <pt x="197" y="-112" on="0"/>
        <pt x="257" y="-112" on="1"/>
        <pt x="361" y="-112" on="0"/>
        <pt x="477" y="-14" on="0"/>
        <pt x="477" y="64" on="1"/>
        <pt x="477" y="143" on="0"/>
        <pt x="346" y="226" on="0"/>
        <pt x="212" y="227" on="1"/>
        <pt x="112" y="227" on="1"/>
        <pt x="190" y="567" on="1"/>
        <pt x="589" y="567" on="1"/>
        <pt x="592" y="527" on="1"/>
        <pt x="224" y="527" on="1"/>
        <pt x="164" y="266" on="1"/>
        <pt x="230" y="266" on="1"/>
        <pt x="374" y="264" on="0"/>
        <pt x="523" y="164" on="0"/>
        <pt x="523" y="67" on="1"/>
        <pt x="523" y="-31" on="0"/>
        <pt x="380" y="-152" on="0"/>
        <pt x="256" y="-152" on="1"/>
        <pt x="191" y="-152" on="0"/>
        <pt x="69" y="-119" on="0"/>
      </contour>
    </TTGlyph>
    <TTGlyph name="five.small" xMin="33" yMin="-10" xMax="385" yMax="396">
      <contour>
        <pt x="193" y="-10" on="1"/>
        <pt x="149" y="-10" on="0"/>
        <pt x="68" y="13" on="0"/>
        <pt x="33" y="33" on="1"/>
        <pt x="40" y="68" on="1"/>
        <pt x="41" y="68" on="1"/>
        <pt x="76" y="46" on="0"/>
        <pt x="153" y="24" on="0"/>
        <pt x="195" y="24" on="1"/>
        <pt x="254" y="23" on="0"/>
        <pt x="318" y="79" on="0"/>
        <pt x="318" y="119" on="1"/>
        <pt x="318" y="158" on="0"/>
        <pt x="244" y="199" on="0"/>
        <pt x="163" y="199" on="1"/>
        <pt x="81" y="199" on="1"/>
        <pt x="129" y="396" on="1"/>
        <pt x="383" y="396" on="1"/>
        <pt x="385" y="362" on="1"/>
        <pt x="157" y="362" on="1"/>
        <pt x="126" y="231" on="1"/>
        <pt x="178" y="231" on="1"/>
        <pt x="268" y="231" on="0"/>
        <pt x="358" y="174" on="0"/>
        <pt x="358" y="121" on="1"/>
        <pt x="358" y="66" on="0"/>
        <pt x="271" y="-10" on="0"/>
      </contour>
    </TTGlyph>
    <TTGlyph name="five.sup" xMin="129" yMin="346" xMax="481" yMax="752">
      <component glyphName="five.small" x="96" y="356" flags="0x4"/>
    </TTGlyph>
    <TTGlyph name="five.tab" xMin="66" yMin="-16" xMax="684" yMax="700">
      <contour>
        <pt x="349" y="-16" on="1"/>
        <pt x="271" y="-16" on="0"/>
        <pt x="129" y="24" on="0"/>
        <pt x="66" y="61" on="1"/>
        <pt x="75" y="107" on="1"/>
        <pt x="76" y="107" on="1"/>
        <pt x="139" y="67" on="0"/>
        <pt x="277" y="25" on="0"/>
        <pt x="351" y="25" on="1"/>
        <pt x="406" y="25" on="0"/>
        <pt x="493" y="54" on="0"/>
        <pt x="553" y="103" on="0"/>
        <pt x="585" y="171" on="0"/>
        <pt x="585" y="209" on="1"/>
        <pt x="585" y="284" on="0"/>
        <pt x="453" y="364" on="0"/>
        <pt x="311" y="364" on="1"/>
        <pt x="154" y="364" on="1"/>
        <pt x="235" y="700" on="1"/>
        <pt x="679" y="700" on="1"/>
        <pt x="684" y="659" on="1"/>
        <pt x="270" y="659" on="1"/>
        <pt x="208" y="405" on="1"/>
        <pt x="322" y="405" on="1"/>
        <pt x="481" y="405" on="0"/>
        <pt x="632" y="302" on="0"/>
        <pt x="632" y="213" on="1"/>
        <pt x="632" y="164" on="0"/>
        <pt x="593" y="80" on="0"/>
        <pt x="521" y="19" on="0"/>
        <pt x="415" y="-16" on="0"/>
      </contour>
    </TTGlyph>
    <TTGlyph name="fiveeighths" xMin="116" yMin="-11" xMax="1041" yMax="700">
      <component glyphName="five.num" x="0" y="0" flags="0x4"/>
      <component glyphName="fraction" x="449" y="0" flags="0x4"/>
      <component glyphName="eight.den" x="672" y="0" flags="0x4"/>
    </TTGlyph>
    <TTGlyph name="fiveeighths.tab" xMin="97" yMin="-11" xMax="1002" yMax="700">
      <component glyphName="five.num_tab" x="0" y="0" flags="0x4"/>
      <component glyphName="fraction.tab" x="450" y="0" flags="0x4"/>
      <component glyphName="eight.den_tab" x="652" y="0" flags="0x4"/>
    </TTGlyph>
    <TTGlyph name="four" xMin="43" yMin="0" xMax="685" yMax="700">
      <contour>
        <pt x="448" y="0" on="1"/>
        <pt x="487" y="187" on="1"/>
        <pt x="43" y="187" on="1"/>
        <pt x="53" y="224" on="1"/>
        <pt x="438" y="700" on="1"/>
        <pt x="642" y="700" on="1"/>
        <pt x="542" y="228" on="1"/>
        <pt x="685" y="228" on="1"/>
        <pt x="669" y="187" on="1"/>
        <pt x="533" y="187" on="1"/>
        <pt x="493" y="0" on="1"/>
      </contour>
      <contour>
        <pt x="111" y="228" on="1"/>
        <pt x="496" y="228" on="1"/>
        <pt x="588" y="659" on="1"/>
        <pt x="458" y="659" on="1"/>
      </contour>
    </TTGlyph>
    <TTGlyph name="four.den" xMin="-4" yMin="0" xMax="365" yMax="396">
      <component glyphName="four.small" x="-18" y="0" flags="0x4"/>
    </TTGlyph>
    <TTGlyph name="four.den_tab" xMin="-23" yMin="0" xMax="346" yMax="396">
      <component glyphName="four.small" x="-37" y="0" flags="0x4"/>
    </TTGlyph>
    <TTGlyph name="four.inf" xMin="-5" yMin="-182" xMax="364" yMax="214">
      <component glyphName="four.small" x="-19" y="-182" flags="0x4"/>
    </TTGlyph>
    <TTGlyph name="four.num" xMin="97" yMin="304" xMax="466" yMax="700">
      <component glyphName="four.small" x="83" y="304" flags="0x4"/>
    </TTGlyph>
    <TTGlyph name="four.num_tab" xMin="78" yMin="304" xMax="447" yMax="700">
      <component glyphName="four.small" x="64" y="304" flags="0x4"/>
    </TTGlyph>
    <TTGlyph name="four.osf" xMin="20" yMin="-145" xMax="630" yMax="567">
      <contour>
        <pt x="396" y="-145" on="1"/>
        <pt x="439" y="56" on="1"/>
        <pt x="20" y="56" on="1"/>
        <pt x="28" y="92" on="1"/>
        <pt x="387" y="567" on="1"/>
        <pt x="592" y="567" on="1"/>
        <pt x="492" y="95" on="1"/>
        <pt x="630" y="95" on="1"/>
        <pt x="614" y="56" on="1"/>
        <pt x="483" y="56" on="1"/>
        <pt x="440" y="-145" on="1"/>
      </contour>
      <contour>
        <pt x="84" y="95" on="1"/>
        <pt x="448" y="95" on="1"/>
        <pt x="539" y="526" on="1"/>
        <pt x="407" y="526" on="1"/>
      </contour>
    </TTGlyph>
    <TTGlyph name="four.small" xMin="14" yMin="0" xMax="383" yMax="396">
      <contour>
        <pt x="240" y="0" on="1"/>
        <pt x="261" y="98" on="1"/>
        <pt x="14" y="98" on="1"/>
        <pt x="20" y="129" on="1"/>
        <pt x="222" y="396" on="1"/>
        <pt x="362" y="396" on="1"/>
        <pt x="306" y="132" on="1"/>
        <pt x="383" y="132" on="1"/>
        <pt x="372" y="98" on="1"/>
        <pt x="299" y="98" on="1"/>
        <pt x="278" y="0" on="1"/>
      </contour>
      <contour>
        <pt x="65" y="131" on="1"/>
        <pt x="268" y="131" on="1"/>
        <pt x="318" y="363" on="1"/>
        <pt x="241" y="363" on="1"/>
      </contour>
    </TTGlyph>
    <TTGlyph name="four.sup" xMin="110" yMin="356" xMax="479" yMax="752">
      <component glyphName="four.small" x="96" y="356" flags="0x4"/>
    </TTGlyph>
    <TTGlyph name="four.tab" xMin="45" yMin="0" xMax="682" yMax="700">
      <contour>
        <pt x="451" y="0" on="1"/>
        <pt x="490" y="181" on="1"/>
        <pt x="45" y="181" on="1"/>
        <pt x="52" y="217" on="1"/>
        <pt x="426" y="700" on="1"/>
        <pt x="645" y="700" on="1"/>
        <pt x="543" y="222" on="1"/>
        <pt x="682" y="222" on="1"/>
        <pt x="667" y="181" on="1"/>
        <pt x="535" y="181" on="1"/>
        <pt x="496" y="0" on="1"/>
      </contour>
      <contour>
        <pt x="109" y="222" on="1"/>
        <pt x="499" y="222" on="1"/>
        <pt x="592" y="659" on="1"/>
        <pt x="448" y="659" on="1"/>
      </contour>
    </TTGlyph>
    <TTGlyph name="fraction" xMin="-209" yMin="0" xMax="471" yMax="700">
      <contour>
        <pt x="-209" y="1" on="1"/>
        <pt x="424" y="700" on="1"/>
        <pt x="470" y="700" on="1"/>
        <pt x="471" y="699" on="1"/>
        <pt x="-163" y="0" on="1"/>
        <pt x="-208" y="0" on="1"/>
      </contour>
    </TTGlyph>
    <TTGlyph name="fraction.tab" xMin="-230" yMin="0" xMax="450" yMax="700">
      <contour>
        <pt x="-230" y="1" on="1"/>
        <pt x="403" y="700" on="1"/>
        <pt x="449" y="700" on="1"/>
        <pt x="450" y="699" on="1"/>
        <pt x="-184" y="0" on="1"/>
        <pt x="-229" y="0" on="1"/>
      </contour>
    </TTGlyph>
    <TTGlyph name="g" xMin="-7" yMin="-197" xMax="603" yMax="627">
      <contour>
        <pt x="258" y="-197" on="1"/>
        <pt x="200" y="-197" on="0"/>
        <pt x="102" y="-180" on="0"/>
        <pt x="32" y="-148" on="0"/>
        <pt x="-7" y="-99" on="0"/>
        <pt x="-7" y="-67" on="1"/>
        <pt x="-7" y="-24" on="0"/>
        <pt x="69" y="42" on="0"/>
        <pt x="139" y="67" on="1"/>
        <pt x="189" y="212" on="1"/>
        <pt x="149" y="233" on="0"/>
        <pt x="106" y="303" on="0"/>
        <pt x="106" y="348" on="1"/>
        <pt x="106" y="387" on="0"/>
        <pt x="137" y="456" on="0"/>
        <pt x="195" y="506" on="0"/>
        <pt x="279" y="536" on="0"/>
        <pt x="330" y="536" on="1"/>
        <pt x="364" y="536" on="0"/>
        <pt x="422" y="523" on="0"/>
        <pt x="445" y="511" on="1"/>
        <pt x="546" y="627" on="1"/>
        <pt x="603" y="627" on="1"/>
        <pt x="603" y="626" on="1"/>
        <pt x="476" y="492" on="1"/>
        <pt x="504" y="470" on="0"/>
        <pt x="533" y="409" on="0"/>
        <pt x="533" y="372" on="1"/>
        <pt x="533" y="334" on="0"/>
        <pt x="502" y="265" on="0"/>
        <pt x="444" y="215" on="0"/>
        <pt x="360" y="185" on="0"/>
        <pt x="308" y="185" on="1"/>
        <pt x="284" y="185" on="0"/>
        <pt x="240" y="192" on="0"/>
        <pt x="221" y="198" on="1"/>
        <pt x="182" y="80" on="1"/>
        <pt x="348" y="67" on="0"/>
        <pt x="514" y="-5" on="0"/>
        <pt x="514" y="-60" on="1"/>
        <pt x="514" y="-119" on="0"/>
        <pt x="379" y="-197" on="0"/>
      </contour>
      <contour>
        <pt x="311" y="220" on="1"/>
        <pt x="389" y="220" on="0"/>
        <pt x="490" y="305" on="0"/>
        <pt x="490" y="371" on="1"/>
        <pt x="490" y="431" on="0"/>
        <pt x="400" y="501" on="0"/>
        <pt x="328" y="501" on="1"/>
        <pt x="250" y="501" on="0"/>
        <pt x="150" y="416" on="0"/>
        <pt x="150" y="350" on="1"/>
        <pt x="150" y="290" on="0"/>
        <pt x="239" y="220" on="0"/>
      </contour>
      <contour>
        <pt x="267" y="-162" on="1"/>
        <pt x="359" y="-162" on="0"/>
        <pt x="470" y="-106" on="0"/>
        <pt x="470" y="-63" on="1"/>
        <pt x="470" y="-22" on="0"/>
        <pt x="311" y="34" on="0"/>
        <pt x="160" y="45" on="1"/>
        <pt x="100" y="25" on="0"/>
        <pt x="35" y="-29" on="0"/>
        <pt x="35" y="-60" on="1"/>
        <pt x="35" y="-86" on="0"/>
        <pt x="72" y="-125" on="0"/>
        <pt x="135" y="-150" on="0"/>
        <pt x="220" y="-162" on="0"/>
      </contour>
    </TTGlyph>
</ttFont>
